<svg width="1120" height="699" viewBox="0 0 1120 699" fill="none" xmlns="http://www.w3.org/2000/svg">
<g clip-path="url(#clip0)">
<path d="M292.609 426C410.246 426 505.609 330.637 505.609 213C505.609 95.3633 410.246 0 292.609 0C174.972 0 79.6091 95.3633 79.6091 213C79.6091 330.637 174.972 426 292.609 426Z" fill="#F2F2F2"/>
<path d="M0 51.1423C0 128.64 48.6181 191.351 108.701 191.351L0 51.1423Z" fill="#2F2E41"/>
<path d="M108.701 191.351C108.701 112.982 162.956 49.567 230.004 49.567L108.701 191.351Z" fill="#276AFB"/>
<path d="M39.3843 58.1677C39.3843 131.782 70.3871 191.351 108.701 191.351L39.3843 58.1677Z" fill="#276AFB"/>
<path d="M108.701 191.35C108.701 91.2128 171.411 10.1826 248.909 10.1826L108.701 191.35Z" fill="#2F2E41"/>
<path d="M85.833 192.339C85.833 192.339 101.249 191.864 105.894 188.556C110.54 185.248 129.607 181.298 130.76 186.603C131.912 191.909 153.927 212.991 136.523 213.132C119.118 213.272 96.0832 210.421 91.4463 207.596C86.8094 204.772 85.833 192.339 85.833 192.339Z" fill="#A8A8A8"/>
<path opacity="0.2" d="M136.833 211.285C119.429 211.425 96.3938 208.574 91.7569 205.749C88.2256 203.598 86.8185 195.88 86.3476 192.319C86.0216 192.333 85.833 192.339 85.833 192.339C85.833 192.339 86.8094 204.772 91.4463 207.596C96.0833 210.421 119.118 213.272 136.523 213.132C141.546 213.091 143.282 211.304 143.186 208.656C142.489 210.256 140.572 211.255 136.833 211.285Z" fill="black"/>
<path d="M198.609 449.94C301.886 449.94 385.609 438.55 385.609 424.5C385.609 410.45 301.886 399.06 198.609 399.06C95.3319 399.06 11.6091 410.45 11.6091 424.5C11.6091 438.55 95.3319 449.94 198.609 449.94Z" fill="#3F3D56"/>
<path opacity="0.1" d="M198.609 445.859C285.318 445.859 355.609 436.296 355.609 424.5C355.609 412.704 285.318 403.141 198.609 403.141C111.9 403.141 41.6091 412.704 41.6091 424.5C41.6091 436.296 111.9 445.859 198.609 445.859Z" fill="black"/>
<path d="M836.609 699C992.906 699 1119.61 681.763 1119.61 660.5C1119.61 639.237 992.906 622 836.609 622C680.313 622 553.609 639.237 553.609 660.5C553.609 681.763 680.313 699 836.609 699Z" fill="#3F3D56"/>
<path d="M310.609 668.627C404.498 668.627 480.609 658.273 480.609 645.5C480.609 632.727 404.498 622.373 310.609 622.373C216.721 622.373 140.609 632.727 140.609 645.5C140.609 658.273 216.721 668.627 310.609 668.627Z" fill="#3F3D56"/>
<path d="M462.609 626C552.609 649 725.609 596 744.609 536" stroke="#2F2E41" stroke-width="2" stroke-miterlimit="10"/>
<path d="M309.609 259C309.609 259 439.609 223 447.609 339C455.609 455 340.609 488 430.609 511" stroke="#2F2E41" stroke-width="2" stroke-miterlimit="10"/>
<path d="M184.011 537.283C184.011 537.283 223.084 526.463 225.488 561.328C227.893 596.192 193.329 606.111 220.379 613.023" stroke="#2F2E41" stroke-width="2" stroke-miterlimit="10"/>
<path d="M778.705 563.24L770.827 613.535C770.827 613.535 732.045 634.138 759.314 634.744C786.582 635.35 915.047 634.744 915.047 634.744C915.047 634.744 939.892 634.744 900.504 612.929L892.626 560.21L778.705 563.24Z" fill="#2F2E41"/>
<path opacity="0.1" d="M753.828 634.198C760.021 628.688 770.827 622.946 770.827 622.946L778.705 572.651L892.626 572.758L900.504 622.34C909.689 627.427 915.379 631.327 918.707 634.318C923.766 633.164 929.294 628.875 900.504 612.929L892.626 560.21L778.705 563.24L770.827 613.535C770.827 613.535 738.239 630.85 753.828 634.198Z" fill="black"/>
<path d="M1073.64 212.689H596.479C586.512 212.689 578.433 220.768 578.433 230.734V552.163C578.433 562.129 586.512 570.208 596.479 570.208H1073.64C1083.61 570.208 1091.69 562.129 1091.69 552.163V230.734C1091.69 220.768 1083.61 212.689 1073.64 212.689Z" fill="#2F2E41"/>
<path d="M1074.42 231.776H595.703V499.613H1074.42V231.776Z" fill="#3F3D56"/>
<path d="M835.06 226.323C836.733 226.323 838.089 224.966 838.089 223.293C838.089 221.62 836.733 220.263 835.06 220.263C833.386 220.263 832.03 221.62 832.03 223.293C832.03 224.966 833.386 226.323 835.06 226.323Z" fill="#F2F2F2"/>
<path d="M1091.69 520.822V552.163C1091.69 554.533 1091.22 556.879 1090.31 559.069C1089.41 561.258 1088.08 563.248 1086.4 564.924C1084.73 566.599 1082.74 567.929 1080.55 568.835C1078.36 569.742 1076.01 570.209 1073.64 570.208H596.479C594.109 570.209 591.762 569.742 589.572 568.835C587.383 567.929 585.393 566.599 583.718 564.924C582.042 563.248 580.713 561.258 579.806 559.069C578.899 556.879 578.433 554.533 578.433 552.163V520.822H1091.69Z" fill="#2F2E41"/>
<path d="M968.978 667.466V673.526H642.968V668.678L643.417 667.466L651.452 645.651H962.312L968.978 667.466Z" fill="#2F2E41"/>
<path d="M1094.44 661.534C1093.84 664.073 1091.6 666.751 1086.54 669.284C1068.36 678.374 1031.39 666.86 1031.39 666.86C1031.39 666.86 1002.91 662.012 1002.91 649.287C1003.71 648.74 1004.55 648.244 1005.41 647.803C1013.05 643.759 1038.39 633.781 1083.33 648.225C1086.64 649.264 1089.59 651.202 1091.87 653.822C1093.69 655.954 1095.12 658.657 1094.44 661.534Z" fill="#2F2E41"/>
<path opacity="0.1" d="M1094.44 661.534C1072.19 670.06 1052.35 670.696 1032 656.559C1021.73 649.432 1012.41 647.669 1005.41 647.802C1013.05 643.759 1038.39 633.781 1083.33 648.225C1086.64 649.264 1089.59 651.202 1091.87 653.822C1093.69 655.953 1095.12 658.657 1094.44 661.534Z" fill="black"/>
<path d="M1066.54 656.559C1070.89 656.559 1074.42 655.473 1074.42 654.135C1074.42 652.796 1070.89 651.711 1066.54 651.711C1062.19 651.711 1058.66 652.796 1058.66 654.135C1058.66 655.473 1062.19 656.559 1066.54 656.559Z" fill="#F2F2F2"/>
<path d="M835.06 557.18C841.418 557.18 846.573 552.026 846.573 545.667C846.573 539.308 841.418 534.154 835.06 534.154C828.701 534.154 823.546 539.308 823.546 545.667C823.546 552.026 828.701 557.18 835.06 557.18Z" fill="#F2F2F2"/>
<path opacity="0.1" d="M968.978 667.466V673.526H642.968V668.678L643.417 667.466H968.978Z" fill="black"/>
<path d="M316.609 159H108.609V401H316.609V159Z" fill="#2F2E41"/>
<path d="M337.609 135H87.6091V221H337.609V135Z" fill="#3F3D56"/>
<path d="M337.609 237H87.6091V323H337.609V237Z" fill="#3F3D56"/>
<path d="M337.609 339H87.6091V425H337.609V339Z" fill="#3F3D56"/>
<path opacity="0.4" d="M287.609 150H271.609V166H287.609V150Z" fill="#276AFB"/>
<path opacity="0.8" d="M310.609 150H294.609V166H310.609V150Z" fill="#276AFB"/>
<path d="M333.609 150H317.609V166H333.609V150Z" fill="#276AFB"/>
<path opacity="0.4" d="M287.609 251H271.609V267H287.609V251Z" fill="#276AFB"/>
<path opacity="0.8" d="M310.609 251H294.609V267H310.609V251Z" fill="#276AFB"/>
<path d="M333.609 251H317.609V267H333.609V251Z" fill="#276AFB"/>
<path opacity="0.4" d="M287.609 352H271.609V368H287.609V352Z" fill="#276AFB"/>
<path opacity="0.8" d="M310.609 352H294.609V368H310.609V352Z" fill="#276AFB"/>
<path d="M333.609 352H317.609V368H333.609V352Z" fill="#276AFB"/>
<path d="M316.609 617C360.24 617 395.609 581.63 395.609 538C395.609 494.37 360.24 459 316.609 459C272.979 459 237.609 494.37 237.609 538C237.609 581.63 272.979 617 316.609 617Z" fill="#2F2E41"/>
<path d="M304.609 600H280.609V643H304.609V600Z" fill="#2F2E41"/>
<path d="M352.609 600H328.609V643H352.609V600Z" fill="#2F2E41"/>
<path d="M300.609 651C311.655 651 320.609 647.642 320.609 643.5C320.609 639.358 311.655 636 300.609 636C289.563 636 280.609 639.358 280.609 643.5C280.609 647.642 289.563 651 300.609 651Z" fill="#2F2E41"/>
<path d="M348.609 650C359.655 650 368.609 646.642 368.609 642.5C368.609 638.358 359.655 635 348.609 635C337.563 635 328.609 638.358 328.609 642.5C328.609 646.642 337.563 650 348.609 650Z" fill="#2F2E41"/>
<path d="M318.609 545C333.521 545 345.609 532.912 345.609 518C345.609 503.088 333.521 491 318.609 491C303.697 491 291.609 503.088 291.609 518C291.609 532.912 303.697 545 318.609 545Z" fill="white"/>
<path d="M318.609 527C323.58 527 327.609 522.971 327.609 518C327.609 513.029 323.58 509 318.609 509C313.639 509 309.609 513.029 309.609 518C309.609 522.971 313.639 527 318.609 527Z" fill="#3F3D56"/>
<path d="M390.704 522.244C410.759 513.66 424.833 501.597 422.138 495.301C419.443 489.005 401.001 490.86 380.945 499.444C360.89 508.028 346.816 520.09 349.511 526.386C352.205 532.682 370.648 530.827 390.704 522.244Z" fill="#2F2E41"/>
<path d="M242.704 575.244C262.759 566.66 276.833 554.597 274.138 548.301C271.443 542.005 253.001 543.86 232.945 552.444C212.89 561.027 198.816 573.09 201.511 579.386C204.205 585.682 222.648 583.827 242.704 575.244Z" fill="#2F2E41"/>
<path d="M362.609 561C362.609 568.732 342.701 584 320.609 584C298.518 584 277.609 569.732 277.609 562C277.609 554.268 298.518 556 320.609 556C342.701 556 362.609 553.268 362.609 561Z" fill="white"/>
<path d="M826.069 297.18C795.671 297.18 773.846 320.68 773.846 375.515C773.846 437.66 795.671 454.111 826.069 454.111C856.466 454.111 879.591 436.094 879.591 375.515C879.591 310.758 856.466 297.18 826.069 297.18ZM826.268 433.482C805.214 433.482 794.215 418.598 794.215 375.555C794.215 337.575 805.665 317.547 826.719 317.547C847.773 317.547 859.222 330.703 859.222 375.555C859.222 417.513 847.322 433.482 826.268 433.482Z" fill="#276AFB"/>
<path d="M755.644 410.765H743.076V366.168C743.076 363.799 742.295 361.527 740.905 359.853C739.515 358.178 737.63 357.237 735.664 357.237H732.719C731.746 357.237 730.782 357.468 729.883 357.916C728.984 358.365 728.167 359.023 727.478 359.853C726.79 360.682 726.244 361.666 725.872 362.75C725.499 363.834 725.308 364.995 725.308 366.168V410.765H689.857C689.128 410.765 688.411 410.538 687.776 410.106C687.141 409.674 686.61 409.051 686.233 408.298C685.857 407.546 685.648 406.689 685.628 405.81C685.607 404.932 685.775 404.062 686.116 403.285L723.636 317.712C724.104 316.645 724.388 315.475 724.47 314.272C724.552 313.07 724.431 311.86 724.114 310.715C723.798 309.57 723.292 308.515 722.627 307.612C721.963 306.71 721.153 305.979 720.248 305.463L718.033 304.203C716.313 303.224 714.347 303.08 712.541 303.799C710.735 304.519 709.228 306.047 708.331 308.069L662.571 411.223C661.791 412.98 661.384 414.941 661.384 416.933V416.933C661.384 418.523 661.644 420.098 662.149 421.567C662.654 423.037 663.394 424.372 664.327 425.496C665.261 426.621 666.369 427.513 667.588 428.122C668.807 428.73 670.114 429.044 671.434 429.044H725.308V457.244C725.308 458.65 725.537 460.042 725.984 461.341C726.43 462.64 727.085 463.82 727.91 464.814C728.735 465.808 729.714 466.597 730.792 467.135C731.87 467.673 733.025 467.95 734.192 467.95H734.192C735.359 467.95 736.514 467.673 737.592 467.135C738.67 466.597 739.649 465.808 740.474 464.814C741.299 463.82 741.953 462.64 742.4 461.341C742.846 460.042 743.076 458.65 743.076 457.244V429.044H755.644C757.656 429.044 759.585 428.081 761.007 426.367C762.429 424.653 763.228 422.328 763.228 419.904V419.904C763.228 417.481 762.429 415.156 761.007 413.442C759.585 411.728 757.656 410.765 755.644 410.765V410.765Z" fill="#276AFB"/>
<path d="M988.37 410.765H975.802V366.168C975.802 363.799 975.021 361.527 973.631 359.853C972.241 358.178 970.356 357.237 968.39 357.237H965.445C964.472 357.237 963.508 357.468 962.609 357.916C961.709 358.365 960.892 359.023 960.204 359.853C959.516 360.682 958.97 361.666 958.597 362.75C958.225 363.834 958.033 364.995 958.033 366.168V410.765H922.583C921.854 410.765 921.137 410.538 920.502 410.106C919.867 409.674 919.335 409.051 918.959 408.298C918.582 407.546 918.374 406.689 918.353 405.81C918.333 404.932 918.501 404.062 918.842 403.285L956.362 317.712C956.83 316.645 957.113 315.475 957.195 314.272C957.277 313.07 957.157 311.86 956.84 310.715C956.523 309.57 956.017 308.515 955.353 307.612C954.688 306.71 953.879 305.979 952.973 305.463L950.758 304.203C949.039 303.224 947.072 303.08 945.267 303.799C943.461 304.519 941.954 306.047 941.057 308.069L895.296 411.223C894.517 412.98 894.109 414.941 894.109 416.933V416.933C894.109 420.145 895.168 423.225 897.053 425.496C898.938 427.768 901.494 429.044 904.16 429.044H958.033V457.244C958.033 460.083 958.969 462.806 960.635 464.814C962.301 466.822 964.561 467.95 966.917 467.95V467.95C969.274 467.95 971.533 466.822 973.2 464.814C974.866 462.806 975.802 460.083 975.802 457.244V429.044H988.37C990.381 429.044 992.31 428.081 993.733 426.367C995.155 424.653 995.954 422.328 995.954 419.904V419.904C995.954 417.481 995.155 415.156 993.733 413.442C992.31 411.728 990.381 410.765 988.37 410.765Z" fill="#276AFB"/>
<path d="M759.111 405.543H746.543V360.946C746.543 359.773 746.351 358.611 745.979 357.528C745.606 356.444 745.06 355.46 744.372 354.63C743.684 353.801 742.867 353.143 741.968 352.694C741.068 352.245 740.104 352.014 739.131 352.014H736.186C734.22 352.014 732.335 352.955 730.945 354.63C729.555 356.305 728.774 358.577 728.774 360.946V405.543H693.324C692.595 405.543 691.878 405.316 691.243 404.884C690.608 404.451 690.076 403.829 689.7 403.076C689.324 402.323 689.115 401.466 689.095 400.588C689.074 399.709 689.242 398.839 689.583 398.062L727.103 312.49C727.571 311.423 727.854 310.253 727.937 309.05C728.019 307.848 727.898 306.637 727.581 305.493C727.264 304.348 726.759 303.292 726.094 302.39C725.429 301.487 724.62 300.756 723.715 300.241L721.5 298.981C719.78 298.002 717.814 297.858 716.008 298.577C714.202 299.297 712.695 300.825 711.798 302.846L666.038 406.001C665.258 407.758 664.851 409.719 664.851 411.71C664.851 414.922 665.909 418.003 667.794 420.274C669.679 422.545 672.235 423.821 674.901 423.821H728.774V452.022C728.774 453.428 729.004 454.82 729.451 456.119C729.897 457.418 730.552 458.598 731.376 459.592C732.201 460.586 733.181 461.375 734.259 461.913C735.337 462.451 736.492 462.728 737.659 462.728C740.015 462.728 742.275 461.6 743.941 459.592C745.607 457.584 746.543 454.861 746.543 452.022V423.821H759.111C760.107 423.821 761.093 423.585 762.013 423.126C762.934 422.666 763.77 421.993 764.474 421.144C765.178 420.296 765.737 419.288 766.118 418.18C766.499 417.071 766.695 415.882 766.695 414.682C766.695 413.482 766.499 412.294 766.118 411.185C765.737 410.076 765.178 409.069 764.474 408.22C763.77 407.371 762.934 406.698 762.013 406.239C761.093 405.78 760.107 405.543 759.111 405.543Z" stroke="#276AFB" stroke-miterlimit="10"/>
<path d="M994.87 405.543H982.302V360.946C982.302 358.577 981.522 356.305 980.132 354.63C978.742 352.955 976.856 352.014 974.891 352.014H971.946C970.972 352.014 970.009 352.245 969.109 352.694C968.21 353.143 967.393 353.801 966.705 354.63C966.016 355.46 965.47 356.444 965.098 357.528C964.726 358.611 964.534 359.773 964.534 360.946V405.543H929.084C928.354 405.543 927.637 405.316 927.002 404.884C926.367 404.451 925.836 403.829 925.46 403.076C925.083 402.323 924.875 401.466 924.854 400.588C924.834 399.709 925.002 398.839 925.342 398.062L962.863 312.49C963.33 311.423 963.614 310.253 963.696 309.05C963.778 307.848 963.657 306.637 963.341 305.493C963.024 304.348 962.518 303.292 961.854 302.39C961.189 301.487 960.38 300.756 959.474 300.241L957.259 298.981C955.539 298.002 953.573 297.858 951.767 298.577C949.962 299.297 948.454 300.825 947.558 302.846L901.797 406.001C901.018 407.758 900.61 409.719 900.61 411.71C900.61 414.922 901.669 418.003 903.554 420.274C905.439 422.545 907.995 423.821 910.66 423.821H964.534V452.022C964.534 454.861 965.47 457.584 967.136 459.592C968.802 461.6 971.062 462.728 973.418 462.728V462.728C975.774 462.728 978.034 461.6 979.7 459.592C981.366 457.584 982.302 454.861 982.302 452.022V423.821H994.87C995.866 423.821 996.853 423.585 997.773 423.126C998.693 422.666 999.529 421.993 1000.23 421.144C1000.94 420.296 1001.5 419.288 1001.88 418.18C1002.26 417.071 1002.45 415.882 1002.45 414.682V414.682C1002.45 412.258 1001.66 409.934 1000.23 408.22C998.811 406.506 996.882 405.543 994.87 405.543V405.543Z" stroke="#276AFB" stroke-miterlimit="10"/>
<path d="M833.003 292.48C802.605 292.48 780.78 315.98 780.78 370.815C780.78 432.96 802.605 449.411 833.003 449.411C863.4 449.411 886.525 431.394 886.525 370.815C886.525 306.058 863.4 292.48 833.003 292.48ZM833.203 428.782C812.149 428.782 801.149 413.898 801.149 370.855C801.149 332.875 812.599 312.847 833.653 312.847C854.707 312.847 866.156 326.003 866.156 370.855C866.156 412.813 854.257 428.782 833.203 428.782V428.782Z" stroke="#3F3D56" stroke-miterlimit="10"/>
<path d="M1006.99 457.765C1006.35 453.882 1009.09 450.44 1011.8 448.203C1014.51 445.965 1017.68 443.767 1018.6 439.97C1019.93 434.513 1015.97 429.515 1012.89 425.206C1010.61 422.007 1008.65 418.494 1007.05 414.739C1006.41 413.234 1005.82 411.66 1005.65 409.98C1005.41 407.561 1006.05 405.154 1006.7 402.847C1008.87 395.161 1011.18 387.539 1013.65 379.981" stroke="#3F3D56" stroke-miterlimit="10"/>
</g>
<defs>
<clipPath id="clip0">
<rect width="1119.61" height="699" fill="white"/>
</clipPath>
</defs>
</svg>
