<svg width="762" height="690" viewBox="0 0 762 690" fill="none" xmlns="http://www.w3.org/2000/svg">
<g clip-path="url(#clip0)">
<path d="M508.535 242.548H253.697C249.322 242.543 245.128 240.803 242.035 237.71C238.941 234.616 237.201 230.422 237.197 226.048V25.894C237.2 22.6892 238.475 19.6166 240.741 17.3504C243.007 15.0842 246.08 13.8094 249.284 13.8057H512.738C515.998 13.8094 519.124 15.1062 521.429 17.4116C523.735 19.717 525.031 22.8427 525.035 26.103V226.048C525.03 230.422 523.29 234.616 520.197 237.71C517.103 240.803 512.91 242.543 508.535 242.548V242.548Z" fill="#F2F2F2"/>
<path d="M269.697 226.048H492.535C496.778 226.048 500.848 224.362 503.849 221.362C506.849 218.361 508.535 214.291 508.535 210.048V56.5C508.535 52.2565 506.849 48.1869 503.849 45.1863C500.848 42.1857 496.778 40.5 492.535 40.5H269.697C265.453 40.5 261.383 42.1857 258.383 45.1863C255.382 48.1869 253.697 52.2565 253.697 56.5V210.048C253.697 214.291 255.382 218.361 258.383 221.362C261.383 224.362 265.453 226.048 269.697 226.048Z" fill="white"/>
<path d="M524.805 24.9502H236.965V16.5498C236.971 12.1607 238.719 7.95334 241.823 4.85073C244.928 1.74812 249.136 0.00363938 253.525 0H508.245C512.634 0.00360501 516.843 1.74808 519.947 4.85069C523.052 7.95331 524.799 12.1607 524.805 16.5498V24.9502Z" fill="#CCCCCC"/>
<path d="M267.06 16.7834C269.426 16.7834 271.344 14.8657 271.344 12.5C271.344 10.1343 269.426 8.21658 267.06 8.21658C264.695 8.21658 262.777 10.1343 262.777 12.5C262.777 14.8657 264.695 16.7834 267.06 16.7834Z" fill="white"/>
<path d="M283.319 16.7834C285.685 16.7834 287.602 14.8657 287.602 12.5C287.602 10.1343 285.685 8.21658 283.319 8.21658C280.953 8.21658 279.036 10.1343 279.036 12.5C279.036 14.8657 280.953 16.7834 283.319 16.7834Z" fill="white"/>
<path d="M299.578 16.7834C301.944 16.7834 303.861 14.8657 303.861 12.5C303.861 10.1343 301.944 8.21658 299.578 8.21658C297.212 8.21658 295.294 10.1343 295.294 12.5C295.294 14.8657 297.212 16.7834 299.578 16.7834Z" fill="white"/>
<path d="M286.095 112.456H275.059C274.46 112.455 273.887 112.217 273.463 111.794C273.04 111.371 272.802 110.797 272.802 110.199V99.1626C272.802 98.5641 273.04 97.9903 273.463 97.5671C273.887 97.144 274.46 96.9059 275.059 96.9053H286.095C286.693 96.9059 287.267 97.144 287.69 97.5672C288.114 97.9904 288.352 98.5641 288.352 99.1626V110.199C288.352 110.797 288.114 111.371 287.69 111.794C287.267 112.217 286.693 112.455 286.095 112.456V112.456Z" fill="#276AFB"/>
<path d="M286.095 141.049H275.059C274.46 141.049 273.887 140.811 273.463 140.387C273.04 139.964 272.802 139.39 272.802 138.792V127.756C272.802 127.157 273.04 126.584 273.463 126.16C273.887 125.737 274.46 125.499 275.059 125.499H286.095C286.693 125.499 287.267 125.737 287.69 126.16C288.114 126.584 288.352 127.157 288.352 127.756V138.792C288.352 139.39 288.114 139.964 287.69 140.387C287.267 140.811 286.693 141.049 286.095 141.049Z" fill="#3F3D56"/>
<path d="M286.095 169.643H275.059C274.46 169.642 273.887 169.404 273.463 168.981C273.04 168.558 272.802 167.984 272.802 167.385V156.349C272.802 155.751 273.04 155.177 273.463 154.754C273.887 154.331 274.46 154.093 275.059 154.092H286.095C286.693 154.093 287.267 154.331 287.69 154.754C288.114 155.177 288.352 155.751 288.352 156.349V167.385C288.352 167.984 288.114 168.558 287.69 168.981C287.267 169.404 286.693 169.642 286.095 169.643V169.643Z" fill="#CCCCCC"/>
<path d="M358.331 106.938H305.157C304.559 106.937 303.986 106.698 303.564 106.275C303.142 105.852 302.905 105.278 302.905 104.681C302.905 104.083 303.142 103.509 303.564 103.086C303.986 102.663 304.559 102.425 305.157 102.423H358.331C358.627 102.423 358.922 102.481 359.196 102.594C359.47 102.707 359.72 102.873 359.93 103.083C360.14 103.292 360.307 103.541 360.42 103.816C360.534 104.09 360.593 104.384 360.593 104.681C360.593 104.977 360.534 105.271 360.42 105.546C360.307 105.82 360.14 106.069 359.93 106.279C359.72 106.488 359.47 106.654 359.196 106.768C358.922 106.881 358.627 106.939 358.331 106.938V106.938Z" fill="#CCCCCC"/>
<path d="M358.331 135.531H305.157C304.559 135.53 303.986 135.292 303.564 134.868C303.142 134.445 302.905 133.872 302.905 133.274C302.905 132.676 303.142 132.103 303.564 131.679C303.986 131.256 304.559 131.018 305.157 131.017H358.331C358.929 131.017 359.503 131.254 359.927 131.678C360.35 132.101 360.588 132.675 360.588 133.274C360.588 133.873 360.35 134.447 359.927 134.87C359.503 135.293 358.929 135.531 358.331 135.531Z" fill="#CCCCCC"/>
<path d="M358.331 164.125H305.157C304.559 164.123 303.986 163.885 303.564 163.462C303.142 163.039 302.905 162.465 302.905 161.867C302.905 161.269 303.142 160.696 303.564 160.273C303.986 159.85 304.559 159.611 305.157 159.61H358.331C358.627 159.609 358.922 159.667 359.196 159.78C359.47 159.894 359.72 160.06 359.93 160.269C360.14 160.479 360.307 160.728 360.42 161.002C360.534 161.276 360.593 161.57 360.593 161.867C360.593 162.164 360.534 162.458 360.42 162.732C360.307 163.006 360.14 163.255 359.93 163.465C359.72 163.675 359.47 163.841 359.196 163.954C358.922 164.067 358.627 164.125 358.331 164.125V164.125Z" fill="#CCCCCC"/>
<path d="M489.341 133.991C489.398 133.042 489.43 132.086 489.43 131.123C489.43 118.574 484.445 106.538 475.571 97.6645C466.697 88.7907 454.662 83.8054 442.112 83.8054V133.991H489.341Z" fill="#276AFB"/>
<path d="M438.528 138.292V88.107C429.291 88.1067 420.257 90.8096 412.538 95.8824C404.819 100.955 398.754 108.176 395.09 116.655C391.426 125.134 390.324 134.499 391.919 143.597C393.514 152.695 397.737 161.127 404.067 167.853C410.397 174.579 418.558 179.306 427.542 181.45C436.526 183.594 445.941 183.062 454.627 179.919C463.312 176.776 470.888 171.16 476.419 163.763C481.951 156.366 485.197 147.512 485.756 138.292H438.528Z" fill="#3F3D56"/>
<path d="M761 689.787H1C0.734784 689.787 0.480429 689.682 0.292892 689.494C0.105356 689.307 0 689.052 0 688.787C0 688.522 0.105356 688.268 0.292892 688.08C0.480429 687.893 0.734784 687.787 1 687.787H761C761.265 687.787 761.52 687.893 761.707 688.08C761.895 688.268 762 688.522 762 688.787C762 689.052 761.895 689.307 761.707 689.494C761.52 689.682 761.265 689.787 761 689.787Z" fill="#CCCCCC"/>
<path d="M504.69 412.926C505.024 413.379 505.321 413.857 505.58 414.357L555.693 419.992L562.982 410.145L579.28 419.202L564.933 443.121L503.538 427.008C501.975 428.51 499.993 429.501 497.854 429.849C495.714 430.197 493.52 429.885 491.562 428.955C489.605 428.026 487.977 426.522 486.894 424.644C485.812 422.767 485.327 420.604 485.504 418.444C485.681 416.284 486.511 414.229 487.884 412.552C489.257 410.876 491.108 409.657 493.191 409.058C495.274 408.459 497.489 408.508 499.544 409.199C501.598 409.89 503.393 411.19 504.69 412.926V412.926Z" fill="#FFB8B8"/>
<path d="M248.987 399.988C247.72 400.733 246.304 401.191 244.841 401.33C243.377 401.468 241.901 401.285 240.516 400.791C239.132 400.298 237.872 399.507 236.826 398.474C235.78 397.441 234.973 396.191 234.462 394.812L198.735 395.557L208.633 379.845L241.042 381.547C243.415 380.842 245.964 381.032 248.206 382.081C250.447 383.13 252.226 384.965 253.206 387.238C254.185 389.512 254.296 392.065 253.519 394.415C252.741 396.764 251.129 398.747 248.987 399.988V399.988Z" fill="#FFB8B8"/>
<path d="M233.285 395.49C233.001 396.437 232.414 397.265 231.614 397.845C230.814 398.426 229.845 398.727 228.856 398.703L163.47 397.043L104.263 379.513C102.634 379.031 101.117 378.229 99.8002 377.155C98.4834 376.082 97.3933 374.757 96.5932 373.258C95.793 371.759 95.2988 370.116 95.1394 368.424C94.9799 366.733 95.1583 365.026 95.6642 363.404C96.1701 361.782 96.9934 360.277 98.0862 358.976C99.179 357.675 100.52 356.604 102.03 355.826C103.54 355.048 105.19 354.578 106.884 354.443C108.578 354.308 110.281 354.511 111.896 355.04L165.386 372.579L229.587 378.774C230.712 378.888 231.753 379.419 232.506 380.262C233.259 381.105 233.668 382.2 233.655 383.33L233.469 394.281C233.463 394.69 233.401 395.097 233.285 395.49V395.49Z" fill="#3F3D56"/>
<path d="M138.461 676.601L150.72 676.6L156.553 629.312L138.459 629.313L138.461 676.601Z" fill="#FFB8B8"/>
<path d="M135.333 672.598L159.477 672.597H159.478C161.499 672.597 163.5 672.995 165.366 673.768C167.233 674.541 168.929 675.675 170.358 677.103C171.787 678.532 172.92 680.228 173.694 682.095C174.467 683.962 174.865 685.963 174.865 687.983V688.483L135.334 688.485L135.333 672.598Z" fill="#242424"/>
<path d="M102.461 676.601L114.72 676.6L120.553 629.312L102.459 629.313L102.461 676.601Z" fill="#FFB8B8"/>
<path d="M99.3335 672.598L123.477 672.597H123.478C125.499 672.597 127.5 672.995 129.366 673.768C131.233 674.541 132.929 675.675 134.358 677.103C135.787 678.532 136.92 680.228 137.694 682.095C138.467 683.962 138.865 685.963 138.865 687.983V688.483L99.3343 688.485L99.3335 672.598Z" fill="#242424"/>
<path d="M94.2329 485.493L97.1603 659.187C97.1696 659.737 97.2922 660.279 97.5206 660.78C97.7489 661.28 98.078 661.728 98.4874 662.096C98.8967 662.463 99.3775 662.742 99.8996 662.916C100.422 663.089 100.974 663.153 101.522 663.103L115.868 661.799C116.809 661.713 117.689 661.297 118.353 660.625C119.017 659.952 119.421 659.066 119.494 658.124L127.893 549.779C127.913 549.525 128.029 549.287 128.218 549.116C128.407 548.944 128.654 548.852 128.91 548.857C129.165 548.862 129.408 548.964 129.591 549.143C129.773 549.322 129.88 549.563 129.889 549.818L134.087 660.644C134.126 661.678 134.565 662.657 135.31 663.374C136.055 664.092 137.05 664.493 138.084 664.493H153.47C154.489 664.493 155.469 664.104 156.211 663.406C156.953 662.708 157.4 661.754 157.462 660.737L168.233 484.493L104.233 468.493L94.2329 485.493Z" fill="#242424"/>
<path d="M140.654 322.396C154.219 322.396 165.215 311.4 165.215 297.835C165.215 284.271 154.219 273.274 140.654 273.274C127.09 273.274 116.093 284.271 116.093 297.835C116.093 311.4 127.09 322.396 140.654 322.396Z" fill="#FFB8B8"/>
<path d="M167.292 491.932C167.268 491.932 167.244 491.931 167.22 491.931L109.789 491.047C108.685 491.031 107.626 490.608 106.813 489.861C106 489.114 105.49 488.094 105.381 486.996L104.731 480.493C104.718 480.369 104.66 480.255 104.568 480.172C104.477 480.089 104.357 480.043 104.233 480.043C104.109 480.043 103.989 480.089 103.897 480.172C103.806 480.255 103.748 480.369 103.735 480.493L103.064 487.21C102.96 488.261 102.488 489.242 101.732 489.981C100.977 490.719 99.9849 491.168 98.9312 491.248L94.8726 491.56C94.1573 491.615 93.4392 491.499 92.7782 491.22C92.1172 490.941 91.5324 490.508 91.0726 489.957C90.6129 489.407 90.2915 488.754 90.1353 488.054C89.9791 487.354 89.9926 486.626 90.1746 485.932L93.6693 472.608C100.901 444.916 101.482 415.907 95.367 387.948L93.6304 380.048C92.3214 374.147 92.9205 367.983 95.3415 362.444C97.7625 356.906 101.88 352.279 107.101 349.232L118.381 342.62L123.499 334.943C124.489 333.461 125.822 332.24 127.385 331.383C128.948 330.526 130.694 330.058 132.476 330.02C139.616 329.864 151.863 331.172 154.164 341.611C159.866 343.559 164.804 347.265 168.268 352.195C171.733 357.126 173.545 363.027 173.446 369.052L171.789 487.495C171.772 488.677 171.291 489.805 170.45 490.635C169.608 491.465 168.474 491.931 167.292 491.932V491.932Z" fill="#3F3D56"/>
<path d="M138.733 311.993C138.632 315.465 136.222 317.473 133.262 319.292C130.303 321.111 126.844 321.899 123.454 322.66C122.999 322.902 122.49 323.022 121.974 323.009C121.459 322.997 120.956 322.851 120.513 322.588C120.07 322.324 119.703 321.95 119.447 321.503C119.19 321.056 119.053 320.551 119.049 320.035L115.941 308.212C114.841 304.435 114.041 300.578 113.548 296.675C112.799 289.166 114.579 281.088 119.82 275.659C125.061 270.229 134.151 268.301 140.432 272.484C147.885 262.964 181.955 283.997 173.551 290.617C172.056 291.794 169.77 290.304 167.872 290.16C165.975 290.015 163.848 290.349 162.642 291.822C161.067 293.746 161.753 296.612 161.104 299.013C160.836 299.857 160.403 300.641 159.83 301.317C159.258 301.993 158.557 302.55 157.768 302.954C156.98 303.358 156.119 303.602 155.235 303.672C154.352 303.742 153.463 303.636 152.621 303.361C151.052 302.588 149.576 301.639 148.221 300.533C146.765 299.563 144.926 298.847 143.287 299.458C141.127 300.264 140.36 302.909 140.165 305.206C139.836 307.497 139.357 309.764 138.733 311.993V311.993Z" fill="#242424"/>
<path opacity="0.2" d="M144.469 377.819L148.469 426.819L169.469 477.819L138.469 427.819L144.469 377.819Z" fill="black"/>
<path d="M402.819 646.146L183.649 516.12C179.889 513.883 177.17 510.247 176.088 506.008C175.006 501.77 175.649 497.275 177.877 493.51L280.002 321.371C281.64 318.616 284.304 316.624 287.409 315.831C290.514 315.038 293.807 315.51 296.565 317.142L523.145 451.564C525.947 453.231 527.974 455.941 528.78 459.1C529.587 462.259 529.107 465.609 527.447 468.415L425.428 640.375C423.192 644.134 419.556 646.854 415.317 647.936C411.079 649.018 406.584 648.374 402.819 646.146Z" fill="#F2F2F2"/>
<path d="M205.828 510.093L397.477 623.792C401.127 625.957 405.487 626.584 409.599 625.534C413.71 624.485 417.236 621.845 419.402 618.195L497.747 486.138C499.912 482.489 500.539 478.129 499.489 474.017C498.439 469.905 495.799 466.379 492.15 464.214L300.5 350.515C296.851 348.35 292.491 347.723 288.379 348.773C284.268 349.822 280.741 352.462 278.576 356.112L200.231 488.168C198.066 491.818 197.439 496.178 198.489 500.29C199.539 504.401 202.178 507.928 205.828 510.093V510.093Z" fill="white"/>
<path d="M527.837 467.306L280.284 320.441L284.57 313.216C286.815 309.444 290.465 306.717 294.718 305.633C298.971 304.549 303.48 305.196 307.257 307.432L526.326 437.398C530.099 439.641 532.828 443.289 533.915 447.541C535.002 451.793 534.358 456.303 532.124 460.081L527.837 467.306Z" fill="#CCCCCC"/>
<path d="M312.52 329.372C314.885 329.372 316.803 327.454 316.803 325.089C316.803 322.723 314.885 320.805 312.52 320.805C310.154 320.805 308.236 322.723 308.236 325.089C308.236 327.454 310.154 329.372 312.52 329.372Z" fill="white"/>
<path d="M326.503 337.668C328.869 337.668 330.786 335.75 330.786 333.384C330.786 331.019 328.869 329.101 326.503 329.101C324.137 329.101 322.219 331.019 322.219 333.384C322.219 335.75 324.137 337.668 326.503 337.668Z" fill="white"/>
<path d="M340.486 345.964C342.852 345.964 344.77 344.046 344.77 341.68C344.77 339.315 342.852 337.397 340.486 337.397C338.12 337.397 336.203 339.315 336.203 341.68C336.203 344.046 338.12 345.964 340.486 345.964Z" fill="white"/>
<path d="M472.757 492.376L472.478 492.846L475.296 494.518L475.575 494.048L472.757 492.376Z" fill="#E6E6E6"/>
<path d="M466.786 489.469L461.094 486.092L461.372 485.622L467.065 488.999L466.786 489.469ZM455.402 482.715L449.709 479.338L449.988 478.868L455.68 482.245L455.402 482.715ZM444.017 475.961L438.325 472.584L438.604 472.114L444.296 475.491L444.017 475.961ZM432.633 469.207L426.941 465.83L427.219 465.36L432.911 468.737L432.633 469.207ZM421.248 462.453L415.556 459.076L415.835 458.606L421.527 461.983L421.248 462.453ZM409.864 455.699L404.172 452.322L404.45 451.852L410.142 455.229L409.864 455.699ZM398.479 448.945L392.787 445.568L393.066 445.098L398.758 448.475L398.479 448.945ZM387.095 442.191L381.403 438.814L381.681 438.344L387.374 441.721L387.095 442.191ZM375.711 435.437L370.018 432.06L370.297 431.59L375.989 434.967L375.711 435.437ZM364.326 428.683L358.634 425.306L358.913 424.836L364.605 428.213L364.326 428.683ZM352.942 421.929L347.25 418.552L347.528 418.082L353.22 421.459L352.942 421.929ZM341.557 415.175L335.865 411.798L336.144 411.328L341.836 414.705L341.557 415.175ZM330.173 408.421L324.481 405.044L324.759 404.574L330.452 407.951L330.173 408.421ZM318.788 401.667L313.096 398.29L313.375 397.82L319.067 401.197L318.788 401.667ZM307.404 394.913L301.712 391.536L301.991 391.066L307.683 394.443L307.404 394.913ZM296.02 388.159L290.327 384.782L290.606 384.312L296.298 387.689L296.02 388.159Z" fill="#E6E6E6"/>
<path d="M282.096 379.264L281.818 379.733L284.635 381.405L284.914 380.935L282.096 379.264Z" fill="#E6E6E6"/>
<path d="M354.334 481.165L354.055 481.635L356.873 483.306L357.152 482.837L354.334 481.165Z" fill="#E6E6E6"/>
<path d="M348.448 478.308L342.84 474.981L343.119 474.511L348.726 477.838L348.448 478.308ZM337.232 471.654L331.625 468.327L331.903 467.858L337.511 471.185L337.232 471.654ZM326.017 465L320.409 461.674L320.688 461.204L326.296 464.531L326.017 465ZM314.802 458.347L309.194 455.02L309.473 454.55L315.08 457.877L314.802 458.347ZM303.586 451.693L297.979 448.366L298.257 447.897L303.865 451.223L303.586 451.693ZM292.371 445.039L286.763 441.712L287.042 441.243L292.65 444.57L292.371 445.039ZM281.156 438.386L275.548 435.059L275.827 434.589L281.434 437.916L281.156 438.386ZM269.94 431.732L264.333 428.405L264.611 427.935L270.219 431.262L269.94 431.732Z" fill="#E6E6E6"/>
<path d="M256.186 422.937L255.907 423.407L258.725 425.078L259.004 424.609L256.186 422.937Z" fill="#E6E6E6"/>
<path d="M287.131 469.231L286.853 469.701L289.67 471.373L289.949 470.903L287.131 469.231Z" fill="#E6E6E6"/>
<path d="M281.083 466.278L275.314 462.855L275.593 462.386L281.362 465.808L281.083 466.278ZM269.544 459.432L263.775 456.01L264.054 455.54L269.823 458.963L269.544 459.432ZM258.005 452.587L252.236 449.164L252.515 448.694L258.284 452.117L258.005 452.587Z" fill="#E6E6E6"/>
<path d="M243.928 443.6L243.649 444.069L246.467 445.741L246.745 445.272L243.928 443.6Z" fill="#E6E6E6"/>
<path d="M266.212 504.493L265.933 504.962L268.751 506.634L269.03 506.164L266.212 504.493Z" fill="#E6E6E6"/>
<path d="M260.164 501.54L254.395 498.117L254.673 497.647L260.443 501.07L260.164 501.54ZM248.625 494.694L242.855 491.271L243.134 490.802L248.904 494.224L248.625 494.694ZM237.086 487.848L231.317 484.425L231.595 483.956L237.365 487.379L237.086 487.848Z" fill="#E6E6E6"/>
<path d="M223.008 478.861L222.729 479.331L225.547 481.003L225.826 480.533L223.008 478.861Z" fill="#E6E6E6"/>
<path d="M238.402 489.116L400.811 585.468C404.746 587.797 409.445 588.469 413.875 587.338C418.305 586.207 422.106 583.365 424.443 579.436L471.897 499.449L471.57 499.268L363.905 526.749L355.376 493.356C355.22 492.739 354.924 492.166 354.51 491.682C354.095 491.199 353.575 490.818 352.989 490.569C352.092 490.208 351.102 490.152 350.171 490.411L293.749 504.81L287.513 480.395C287.378 479.868 287.142 479.373 286.816 478.937C286.49 478.502 286.081 478.135 285.614 477.858C285.146 477.58 284.628 477.398 284.09 477.32C283.552 477.243 283.003 477.273 282.476 477.407C282.095 477.508 245.381 487.236 238.402 489.116Z" fill="#276AFB"/>
<path d="M237.431 489.174L237.296 488.645L282.445 477.119C283.638 476.816 284.902 476.999 285.96 477.626C287.019 478.254 287.785 479.276 288.09 480.468L294.2 504.403L350.309 490.08C351.501 489.777 352.765 489.959 353.824 490.587C354.882 491.215 355.648 492.237 355.953 493.429L364.356 526.343L472.582 498.714L472.717 499.243L363.962 527.007L355.424 493.564C355.291 493.043 355.057 492.553 354.735 492.123C354.412 491.692 354.009 491.329 353.546 491.055C353.084 490.78 352.571 490.6 352.039 490.523C351.507 490.447 350.965 490.476 350.444 490.609L293.806 505.067L287.561 480.603C287.291 479.552 286.615 478.65 285.682 478.096C284.748 477.542 283.633 477.381 282.58 477.648L237.431 489.174Z" fill="#3F3D56"/>
<path d="M289.81 474.96C291.921 474.96 293.632 473.249 293.632 471.138C293.632 469.027 291.921 467.315 289.81 467.315C287.699 467.315 285.988 469.027 285.988 471.138C285.988 473.249 287.699 474.96 289.81 474.96Z" fill="#3F3D56"/>
<path d="M357.012 486.894C359.123 486.894 360.835 485.182 360.835 483.072C360.835 480.961 359.123 479.249 357.012 479.249C354.901 479.249 353.19 480.961 353.19 483.072C353.19 485.182 354.901 486.894 357.012 486.894Z" fill="#3F3D56"/>
<path d="M474.091 496.099C476.202 496.099 477.914 494.387 477.914 492.276C477.914 490.165 476.202 488.454 474.091 488.454C471.981 488.454 470.269 490.165 470.269 492.276C470.269 494.387 471.981 496.099 474.091 496.099Z" fill="#3F3D56"/>
<path d="M174.38 496.811C173.233 495.891 172.303 494.73 171.653 493.411C171.004 492.092 170.652 490.647 170.622 489.177C170.591 487.707 170.884 486.249 171.478 484.904C172.073 483.56 172.955 482.362 174.062 481.395L160.683 448.259L178.886 451.935L188.8 482.838C190.3 484.806 191.027 487.256 190.842 489.724C190.657 492.192 189.574 494.507 187.796 496.229C186.019 497.952 183.671 498.962 181.198 499.069C178.726 499.177 176.299 498.373 174.38 496.811V496.811Z" fill="#FFB8B8"/>
<path d="M174.158 482.454C173.171 482.525 172.189 482.27 171.363 481.728C170.536 481.186 169.91 480.387 169.581 479.455L147.924 417.737L143.295 356.163C143.168 354.469 143.378 352.766 143.915 351.154C144.451 349.541 145.303 348.052 146.42 346.772C147.537 345.492 148.898 344.446 150.423 343.697C151.948 342.947 153.606 342.508 155.302 342.405C156.998 342.302 158.698 342.538 160.302 343.098C161.907 343.658 163.383 344.531 164.647 345.667C165.911 346.803 166.936 348.178 167.664 349.714C168.391 351.25 168.805 352.915 168.883 354.612L171.475 410.844L188.472 473.064C188.765 474.156 188.638 475.317 188.117 476.32C187.596 477.323 186.719 478.095 185.657 478.483L175.353 482.197C174.968 482.336 174.566 482.423 174.158 482.454V482.454Z" fill="#3F3D56"/>
<path d="M575.719 427.768C575.316 427.591 574.94 427.356 574.603 427.072L554.462 410.105C553.978 409.697 553.584 409.193 553.304 408.625C553.025 408.058 552.866 407.438 552.838 406.805C552.811 406.173 552.915 405.542 553.143 404.952C553.372 404.361 553.721 403.825 554.168 403.377L572.445 385.024C573.212 384.247 574.233 383.772 575.322 383.685C576.411 383.599 577.494 383.906 578.375 384.552L592.197 394.589C593.059 395.216 593.676 396.124 593.94 397.157C594.205 398.19 594.1 399.283 593.645 400.247L581.688 425.528C581.179 426.604 580.271 427.439 579.157 427.857C578.043 428.275 576.81 428.243 575.719 427.768L575.719 427.768Z" fill="#276AFB"/>
<path d="M654.276 667.73L642.247 671.003L623.898 626.162L641.652 621.332L654.276 667.73Z" fill="#FFB8B8"/>
<path d="M632.477 669.97L655.919 663.592L659.893 678.198L622.087 688.485L622.021 688.243C620.985 684.433 621.504 680.367 623.465 676.94C625.426 673.514 628.668 671.006 632.477 669.97Z" fill="#242424"/>
<path d="M551.441 676.909L538.975 676.908L533.044 628.823L551.444 628.824L551.441 676.909Z" fill="#FFB8B8"/>
<path d="M529.819 673.346H554.113V688.484H514.933V688.233C514.933 684.285 516.501 680.498 519.293 677.706C522.085 674.914 525.871 673.346 529.819 673.346V673.346Z" fill="#242424"/>
<path d="M570.221 359.428C584.014 359.428 595.196 348.246 595.196 334.453C595.196 320.659 584.014 309.478 570.221 309.478C556.428 309.478 545.246 320.659 545.246 334.453C545.246 348.246 556.428 359.428 570.221 359.428Z" fill="#FFB8B8"/>
<path d="M550.678 642.624H533.642C532.478 642.622 531.357 642.178 530.508 641.38C529.66 640.583 529.146 639.493 529.071 638.331C523.994 557.632 526.964 499.744 538.415 456.158C538.465 455.967 538.527 455.78 538.601 455.597L539.513 453.316C539.85 452.465 540.436 451.735 541.194 451.222C541.952 450.709 542.847 450.436 543.762 450.439H578.795C579.455 450.438 580.107 450.581 580.707 450.857C581.307 451.133 581.84 451.535 582.269 452.037L587.027 457.589C587.12 457.697 587.207 457.807 587.291 457.923C608.747 487.845 627.976 546.343 650.246 624.97C650.575 626.113 650.445 627.339 649.883 628.387C649.321 629.435 648.372 630.222 647.238 630.58L628.93 636.439C627.879 636.77 626.744 636.713 625.731 636.277C624.719 635.842 623.896 635.058 623.413 634.068L575.903 535.527C575.571 534.838 575.026 534.275 574.348 533.92C573.671 533.566 572.897 533.439 572.142 533.558C571.387 533.677 570.69 534.037 570.155 534.583C569.62 535.129 569.275 535.833 569.171 536.591L555.212 638.668C555.058 639.763 554.516 640.765 553.683 641.492C552.85 642.219 551.783 642.621 550.678 642.624V642.624Z" fill="#242424"/>
<path d="M585.107 457.995C585.059 457.995 585.011 457.994 584.963 457.993L542.409 456.649C541.315 456.619 540.269 456.196 539.461 455.458C538.653 454.719 538.137 453.715 538.008 452.629C532.613 408.963 547.408 397.266 554.019 394.264C554.571 394.014 555.05 393.627 555.408 393.138C555.767 392.649 555.993 392.076 556.065 391.474L556.637 386.898C556.734 386.089 557.046 385.322 557.541 384.675C567.906 371.247 582.06 366.948 589.575 365.58C590.184 365.471 590.809 365.486 591.413 365.626C592.016 365.765 592.585 366.026 593.084 366.392C593.583 366.758 594.003 367.222 594.318 367.756C594.632 368.289 594.835 368.881 594.914 369.495L595.771 376.067C595.859 376.693 596.109 377.287 596.497 377.787C618.114 406.047 594.031 447.774 588.984 455.851C588.571 456.507 588 457.047 587.322 457.422C586.643 457.797 585.881 457.994 585.107 457.995V457.995Z" fill="#276AFB"/>
<path d="M597.7 318.92C595.845 313.297 594.476 307.525 593.607 301.668C593.334 298.258 594.208 294.589 596.691 292.236C601.339 287.832 609.235 289.93 614.095 294.097C621.119 300.119 624.623 309.375 625.947 318.532C627.271 327.69 626.688 337.002 627.007 346.249C627.325 355.496 628.648 365.004 633.362 372.966C638.077 380.927 646.825 387.039 656.053 386.361C659.777 386.16 663.314 384.661 666.049 382.125C667.392 380.848 668.409 379.267 669.014 377.516C669.62 375.764 669.797 373.893 669.53 372.06C674.247 380.505 671.856 391.951 664.821 398.59C657.786 405.229 646.965 407.106 637.717 404.272C628.468 401.437 620.856 394.329 616.31 385.791C611.763 377.253 610.097 367.391 610.338 357.72C610.524 350.295 611.786 342.808 610.531 335.487C609.276 328.165 604.694 320.731 597.469 319.007L597.7 318.92Z" fill="#242424"/>
<path d="M565.253 328.546C564.021 332.661 559.309 335.199 555.07 334.503C552.96 334.064 551.008 333.062 549.421 331.603C547.835 330.145 546.672 328.284 546.058 326.218C544.893 322.032 545.37 317.56 547.391 313.714C548.504 311.409 550.061 309.346 551.973 307.643C553.884 305.941 556.113 304.632 558.531 303.791C560.963 302.985 563.553 302.776 566.083 303.18C568.613 303.584 571.008 304.59 573.068 306.114C573.287 305.189 573.749 304.34 574.406 303.653C575.062 302.967 575.89 302.467 576.804 302.207C578.644 301.711 580.586 301.74 582.41 302.29C587.668 303.788 592.223 307.102 595.267 311.643C598.272 316.17 600.26 321.294 601.094 326.664C602.529 334.716 602 343.514 597.478 350.329C592.955 357.143 583.704 361.167 576.198 357.918C575.73 355.526 576.839 353.117 578.121 351.043C579.404 348.97 580.924 346.951 581.417 344.563C581.91 342.175 580.965 339.255 578.655 338.474C576.685 337.808 574.584 338.887 572.509 339.017C571.33 339.091 570.152 338.854 569.094 338.329C568.036 337.805 567.134 337.011 566.48 336.028C565.825 335.044 565.441 333.906 565.365 332.728C565.289 331.549 565.525 330.371 566.048 329.312L565.253 328.546Z" fill="#242424"/>
<path d="M501.956 431.433C502.369 431.815 502.751 432.229 503.099 432.671L553.376 428.758L558.678 417.714L576.392 423.536L566.811 449.731L503.478 445.481C502.227 447.251 500.467 448.597 498.432 449.342C496.397 450.087 494.183 450.194 492.085 449.65C489.987 449.106 488.105 447.936 486.688 446.297C485.271 444.657 484.387 442.624 484.153 440.47C483.92 438.315 484.348 436.14 485.38 434.235C486.413 432.329 488.001 430.783 489.933 429.802C491.866 428.822 494.051 428.452 496.199 428.743C498.346 429.035 500.354 429.973 501.956 431.433V431.433Z" fill="#FFB8B8"/>
<path d="M576.119 440.984C575.695 440.863 575.291 440.682 574.919 440.446L552.653 426.383C552.118 426.045 551.659 425.599 551.305 425.075C550.95 424.55 550.709 423.958 550.595 423.335C550.482 422.712 550.499 422.073 550.645 421.457C550.791 420.841 551.064 420.262 551.445 419.757L567.05 399.085C567.705 398.211 568.652 397.601 569.718 397.367C570.785 397.132 571.9 397.289 572.861 397.809L587.921 405.869C588.861 406.372 589.596 407.188 589.999 408.175C590.401 409.163 590.447 410.26 590.127 411.277L581.727 437.952C581.369 439.087 580.584 440.038 579.537 440.604C578.491 441.17 577.265 441.306 576.119 440.984V440.984Z" fill="#276AFB"/>
</g>
<defs>
<clipPath id="clip0">
<rect width="762" height="689.787" fill="white"/>
</clipPath>
</defs>
</svg>
