<svg width="808" height="582" viewBox="0 0 808 582" fill="none" xmlns="http://www.w3.org/2000/svg">
<g clip-path="url(#clip0)">
<path d="M705.257 200.076C676.019 178.219 630.225 157.547 579.617 143.363C533.539 130.447 488.596 124.212 453.057 125.804L452.872 121.671C488.834 120.061 534.244 126.348 580.734 139.379C631.813 153.696 678.103 174.611 707.734 196.763L705.257 200.076Z" fill="#E9E9E9"/>
<path d="M702.221 216.913C702.247 236.278 698.187 255.432 690.307 273.122C689.649 274.603 688.964 276.07 688.251 277.523C674.544 305.597 651.729 328.199 623.528 341.641C595.326 355.083 563.402 358.573 532.962 351.541C502.523 344.51 475.364 327.371 455.915 302.922C436.467 278.472 425.877 248.154 425.872 216.913C425.872 213.715 425.981 210.542 426.199 207.394C426.303 205.793 426.436 204.201 426.6 202.62C430.265 167.402 447.308 134.934 474.214 111.917C501.121 88.9002 535.836 77.0899 571.196 78.9236C606.557 80.7573 639.864 96.0951 664.245 121.772C688.626 147.449 702.22 181.505 702.221 216.913V216.913Z" fill="#276AFB"/>
<path opacity="0.1" d="M690.307 273.121C689.649 274.602 688.964 276.07 688.251 277.523C684.213 277.962 679.963 278.28 675.501 278.479C671.806 278.644 668.004 278.727 664.12 278.727C630.189 278.727 589.353 272.464 547.635 260.773C501.144 247.741 459.084 229.514 429.198 209.445C428.181 208.763 427.181 208.079 426.199 207.393C426.303 205.792 426.436 204.201 426.6 202.619C428.185 203.749 429.819 204.88 431.503 206.012C461.036 225.84 502.675 243.873 548.753 256.789C590.105 268.38 630.557 274.59 664.099 274.59C667.934 274.59 671.673 274.509 675.315 274.346C680.618 274.106 685.616 273.698 690.307 273.121Z" fill="black"/>
<path d="M664.12 275.418C630.19 275.419 589.352 269.155 547.637 257.463C501.146 244.432 459.084 226.204 429.198 206.136C398.688 185.65 384.382 165.463 388.914 149.295C393.445 133.127 416.159 123.316 452.872 121.671L453.057 125.804C435.913 126.572 421.941 129.121 411.529 133.378C401.143 137.625 394.875 143.356 392.897 150.412C390.919 157.467 393.297 165.621 399.962 174.648C406.644 183.696 417.256 193.135 431.504 202.702C461.034 222.531 502.674 240.564 548.753 253.479C590.107 265.07 630.555 271.281 664.1 271.282C667.933 271.282 671.671 271.201 675.313 271.038C692.458 270.269 706.43 267.721 716.841 263.464C727.227 259.217 733.496 253.486 735.474 246.43C739.025 233.761 728.293 217.299 705.257 200.076L707.734 196.763C719.589 205.626 728.364 214.362 733.816 222.728C739.661 231.697 741.559 240.048 739.457 247.547C734.926 263.715 712.211 273.525 675.499 275.171C671.805 275.336 668.005 275.418 664.12 275.418Z" fill="#E9E9E9"/>
<path d="M567.702 53.8181C568.576 53.8181 569.285 53.1092 569.285 52.2347C569.285 51.3603 568.576 50.6514 567.702 50.6514C566.828 50.6514 566.119 51.3603 566.119 52.2347C566.119 53.1092 566.828 53.8181 567.702 53.8181Z" fill="#F2F2F2"/>
<path d="M357.645 122.525C359.149 122.525 360.369 121.305 360.369 119.801C360.369 118.296 359.149 117.077 357.645 117.077C356.141 117.077 354.921 118.296 354.921 119.801C354.921 121.305 356.141 122.525 357.645 122.525Z" fill="#E9E9E9"/>
<path d="M351.839 231.794C354.811 231.794 357.22 229.385 357.22 226.413C357.22 223.441 354.811 221.032 351.839 221.032C348.868 221.032 346.458 223.441 346.458 226.413C346.458 229.385 348.868 231.794 351.839 231.794Z" fill="#E9E9E9"/>
<path d="M674.842 65.3213C676.822 65.3213 678.428 63.7157 678.428 61.735C678.428 59.7543 676.822 58.1487 674.842 58.1487C672.861 58.1487 671.255 59.7543 671.255 61.735C671.255 63.7157 672.861 65.3213 674.842 65.3213Z" fill="#E9E9E9"/>
<path d="M802.037 216.402C805.253 216.402 807.86 213.795 807.86 210.579C807.86 207.363 805.253 204.756 802.037 204.756C798.821 204.756 796.214 207.363 796.214 210.579C796.214 213.795 798.821 216.402 802.037 216.402Z" fill="#E9E9E9"/>
<path d="M756.506 120.078C757.885 120.078 759.004 118.96 759.004 117.58C759.004 116.2 757.885 115.082 756.506 115.082C755.126 115.082 754.007 116.2 754.007 117.58C754.007 118.96 755.126 120.078 756.506 120.078Z" fill="#E9E9E9"/>
<path d="M453.173 89.3823C455.326 89.3823 457.071 87.6374 457.071 85.485C457.071 83.3325 455.326 81.5876 453.173 81.5876C451.021 81.5876 449.276 83.3325 449.276 85.485C449.276 87.6374 451.021 89.3823 453.173 89.3823Z" fill="#E9E9E9"/>
<path d="M747.762 201.271C749.142 201.271 750.26 200.152 750.26 198.772C750.26 197.393 749.142 196.274 747.762 196.274C746.382 196.274 745.264 197.393 745.264 198.772C745.264 200.152 746.382 201.271 747.762 201.271Z" fill="#E9E9E9"/>
<path d="M364.506 305.522C366.223 305.522 367.616 304.13 367.616 302.413C367.616 300.696 366.223 299.304 364.506 299.304C362.789 299.304 361.397 300.696 361.397 302.413C361.397 304.13 362.789 305.522 364.506 305.522Z" fill="#E9E9E9"/>
<path d="M427.312 349.059C429.172 349.059 430.679 347.551 430.679 345.691C430.679 343.832 429.172 342.324 427.312 342.324C425.452 342.324 423.945 343.832 423.945 345.691C423.945 347.551 425.452 349.059 427.312 349.059Z" fill="#E9E9E9"/>
<path d="M525.2 6.645H518.555V0H514.99V6.645H508.342V10.213H514.99V16.858H518.555V10.213H525.2V6.645Z" fill="#E9E9E9"/>
<path d="M679.342 366.201H675.168V362.029H672.93V366.201H668.758V368.44H672.93V372.612H675.168V368.44H679.342V366.201Z" fill="#E9E9E9"/>
<path d="M775.646 344.844H772.527V341.725H770.852V344.844H767.733V346.519H770.852V349.638H772.527V346.519H775.646V344.844Z" fill="#E9E9E9"/>
<path opacity="0.1" d="M566.119 120.329C572.531 120.329 577.73 115.13 577.73 108.717C577.73 102.305 572.531 97.1062 566.119 97.1062C559.706 97.1062 554.508 102.305 554.508 108.717C554.508 115.13 559.706 120.329 566.119 120.329Z" fill="black"/>
<path opacity="0.1" d="M476.924 205.301C483.336 205.301 488.535 200.103 488.535 193.69C488.535 187.278 483.336 182.079 476.924 182.079C470.511 182.079 465.312 187.278 465.312 193.69C465.312 200.103 470.511 205.301 476.924 205.301Z" fill="black"/>
<path opacity="0.1" d="M605.174 321.941C611.587 321.941 616.786 316.743 616.786 310.33C616.786 303.917 611.587 298.719 605.174 298.719C598.762 298.719 593.563 303.917 593.563 310.33C593.563 316.743 598.762 321.941 605.174 321.941Z" fill="black"/>
<path opacity="0.1" d="M566.119 223.246C572.531 223.246 577.73 218.047 577.73 211.635C577.73 205.222 572.531 200.023 566.119 200.023C559.706 200.023 554.508 205.222 554.508 211.635C554.508 218.047 559.706 223.246 566.119 223.246Z" fill="black"/>
<path opacity="0.1" d="M482.729 287.107C489.142 287.107 494.34 281.909 494.34 275.496C494.34 269.084 489.142 263.885 482.729 263.885C476.317 263.885 471.118 269.084 471.118 275.496C471.118 281.909 476.317 287.107 482.729 287.107Z" fill="black"/>
<path opacity="0.1" d="M628.397 160.968C634.81 160.968 640.008 155.769 640.008 149.357C640.008 142.944 634.81 137.745 628.397 137.745C621.984 137.745 616.786 142.944 616.786 149.357C616.786 155.769 621.984 160.968 628.397 160.968Z" fill="black"/>
<path opacity="0.1" d="M666.925 239.607C673.338 239.607 678.536 234.409 678.536 227.996C678.536 221.583 673.338 216.385 666.925 216.385C660.512 216.385 655.314 221.583 655.314 227.996C655.314 234.409 660.512 239.607 666.925 239.607Z" fill="black"/>
<path d="M566.119 176.273C574.572 176.273 581.424 169.421 581.424 160.968C581.424 152.515 574.572 145.662 566.119 145.662C557.666 145.662 550.813 152.515 550.813 160.968C550.813 169.421 557.666 176.273 566.119 176.273Z" fill="white"/>
<path d="M566.119 138.801C560.38 138.801 554.876 141.081 550.818 145.139C546.76 149.197 544.48 154.701 544.48 160.44C544.48 172.391 566.119 211.635 566.119 211.635C566.119 211.635 587.758 172.391 587.758 160.44C587.758 154.701 585.478 149.197 581.42 145.139C577.362 141.081 571.858 138.801 566.119 138.801ZM566.119 170.995C564.135 170.995 562.197 170.407 560.548 169.305C558.898 168.204 557.613 166.637 556.854 164.805C556.095 162.973 555.897 160.956 556.284 159.011C556.67 157.066 557.626 155.279 559.028 153.877C560.43 152.474 562.217 151.519 564.162 151.132C566.108 150.745 568.124 150.944 569.956 151.703C571.789 152.462 573.355 153.747 574.457 155.396C575.558 157.045 576.147 158.984 576.147 160.968C576.147 162.284 575.887 163.588 575.383 164.805C574.879 166.022 574.141 167.127 573.21 168.058C572.278 168.99 571.173 169.728 569.956 170.232C568.74 170.736 567.436 170.995 566.119 170.995Z" fill="#E9E9E9"/>
<path d="M482.729 241.718C491.182 241.718 498.035 234.866 498.035 226.413C498.035 217.96 491.182 211.107 482.729 211.107C474.276 211.107 467.424 217.96 467.424 226.413C467.424 234.866 474.276 241.718 482.729 241.718Z" fill="white"/>
<path d="M482.729 204.246C476.99 204.246 471.486 206.526 467.428 210.584C463.37 214.642 461.09 220.146 461.09 225.885C461.09 237.836 482.729 277.08 482.729 277.08C482.729 277.08 504.368 237.836 504.368 225.885C504.368 223.043 503.809 220.229 502.721 217.604C501.634 214.979 500.04 212.593 498.03 210.584C496.021 208.574 493.635 206.98 491.01 205.893C488.385 204.806 485.571 204.246 482.729 204.246ZM482.729 236.44C480.746 236.44 478.807 235.852 477.158 234.75C475.509 233.649 474.224 232.082 473.465 230.25C472.706 228.418 472.507 226.401 472.894 224.456C473.281 222.511 474.236 220.724 475.638 219.322C477.041 217.919 478.828 216.964 480.773 216.577C482.718 216.191 484.734 216.389 486.567 217.148C488.399 217.907 489.965 219.192 491.067 220.841C492.169 222.491 492.757 224.429 492.757 226.413C492.757 227.73 492.498 229.034 491.994 230.25C491.49 231.467 490.751 232.572 489.82 233.503C488.889 234.435 487.783 235.173 486.567 235.677C485.35 236.181 484.046 236.44 482.729 236.44Z" fill="#E9E9E9"/>
<path d="M666.925 194.218C675.378 194.218 682.231 187.365 682.231 178.912C682.231 170.459 675.378 163.607 666.925 163.607C658.472 163.607 651.619 170.459 651.619 178.912C651.619 187.365 658.472 194.218 666.925 194.218Z" fill="white"/>
<path d="M666.925 156.745C664.083 156.745 661.269 157.305 658.644 158.393C656.019 159.48 653.633 161.074 651.624 163.083C649.614 165.093 648.021 167.478 646.933 170.104C645.846 172.729 645.286 175.543 645.286 178.384C645.286 190.335 666.925 229.579 666.925 229.579C666.925 229.579 688.564 190.335 688.564 178.384C688.564 175.543 688.004 172.729 686.917 170.104C685.829 167.478 684.235 165.093 682.226 163.083C680.217 161.074 677.831 159.48 675.206 158.393C672.58 157.305 669.767 156.745 666.925 156.745ZM666.925 188.94C664.942 188.94 663.003 188.352 661.354 187.25C659.705 186.148 658.419 184.582 657.66 182.75C656.901 180.917 656.703 178.901 657.09 176.956C657.477 175.011 658.432 173.224 659.834 171.821C661.237 170.419 663.023 169.464 664.969 169.077C666.914 168.69 668.93 168.889 670.762 169.648C672.595 170.407 674.161 171.692 675.263 173.341C676.365 174.99 676.953 176.929 676.953 178.912C676.953 180.229 676.693 181.533 676.19 182.75C675.686 183.966 674.947 185.072 674.016 186.003C673.085 186.934 671.979 187.673 670.762 188.177C669.546 188.681 668.242 188.94 666.925 188.94Z" fill="#E9E9E9"/>
<path d="M566.119 73.356C574.572 73.356 581.424 66.5034 581.424 58.0503C581.424 49.5972 574.572 42.7446 566.119 42.7446C557.666 42.7446 550.813 49.5972 550.813 58.0503C550.813 66.5034 557.666 73.356 566.119 73.356Z" fill="white"/>
<path d="M566.119 35.8835C560.38 35.8836 554.876 38.1634 550.818 42.2215C546.76 46.2796 544.48 51.7835 544.48 57.5225C544.48 69.4734 566.119 108.717 566.119 108.717C566.119 108.717 587.758 69.4734 587.758 57.5225C587.758 51.7835 585.478 46.2796 581.42 42.2215C577.362 38.1634 571.858 35.8835 566.119 35.8835ZM566.119 68.0782C564.135 68.0782 562.197 67.4901 560.548 66.3882C558.898 65.2863 557.613 63.7202 556.854 61.8878C556.095 60.0555 555.897 58.0392 556.284 56.094C556.67 54.1488 557.626 52.362 559.028 50.9595C560.43 49.5571 562.217 48.6021 564.162 48.2151C566.108 47.8282 568.124 48.0268 569.956 48.7858C571.789 49.5448 573.355 50.8301 574.457 52.4792C575.558 54.1282 576.147 56.067 576.147 58.0503C576.147 59.3672 575.887 60.6712 575.383 61.8878C574.879 63.1045 574.141 64.21 573.21 65.1411C572.278 66.0723 571.173 66.8109 569.956 67.3149C568.74 67.8188 567.436 68.0782 566.119 68.0782Z" fill="#E9E9E9"/>
<path d="M605.174 276.552C613.628 276.552 620.48 269.699 620.48 261.246C620.48 252.793 613.628 245.94 605.174 245.94C596.721 245.94 589.869 252.793 589.869 261.246C589.869 269.699 596.721 276.552 605.174 276.552Z" fill="white"/>
<path d="M605.174 239.079C599.435 239.079 593.932 241.359 589.873 245.417C585.815 249.475 583.536 254.979 583.536 260.718C583.536 272.669 605.174 311.913 605.174 311.913C605.174 311.913 626.814 272.669 626.814 260.718C626.814 257.877 626.254 255.063 625.166 252.437C624.079 249.812 622.485 247.427 620.476 245.417C618.466 243.408 616.081 241.814 613.455 240.727C610.83 239.639 608.016 239.079 605.174 239.079ZM605.174 271.274C603.191 271.274 601.252 270.686 599.603 269.584C597.954 268.482 596.669 266.916 595.91 265.084C595.151 263.251 594.952 261.235 595.339 259.29C595.726 257.345 596.681 255.558 598.084 254.155C599.486 252.753 601.273 251.798 603.218 251.411C605.163 251.024 607.18 251.223 609.012 251.982C610.844 252.741 612.411 254.026 613.512 255.675C614.614 257.324 615.202 259.263 615.202 261.246C615.202 262.563 614.943 263.867 614.439 265.084C613.935 266.3 613.196 267.406 612.265 268.337C611.334 269.268 610.229 270.007 609.012 270.511C607.795 271.015 606.491 271.274 605.174 271.274Z" fill="#3F3D56"/>
<path d="M476.924 158.857C485.377 158.857 492.229 152.004 492.229 143.551C492.229 135.098 485.377 128.245 476.924 128.245C468.471 128.245 461.618 135.098 461.618 143.551C461.618 152.004 468.471 158.857 476.924 158.857Z" fill="white"/>
<path d="M476.924 121.384C471.185 121.384 465.681 123.664 461.623 127.722C457.564 131.78 455.285 137.284 455.285 143.023C455.285 154.974 476.924 194.218 476.924 194.218C476.924 194.218 498.563 154.974 498.563 143.023C498.563 137.284 496.283 131.78 492.225 127.722C488.167 123.664 482.663 121.384 476.924 121.384ZM476.924 153.579C474.94 153.579 473.002 152.991 471.352 151.889C469.703 150.787 468.418 149.221 467.659 147.388C466.9 145.556 466.702 143.54 467.089 141.594C467.475 139.649 468.43 137.862 469.833 136.46C471.235 135.058 473.022 134.103 474.967 133.716C476.913 133.329 478.929 133.527 480.761 134.286C482.594 135.045 484.16 136.331 485.262 137.98C486.363 139.629 486.952 141.567 486.952 143.551C486.952 144.868 486.692 146.172 486.188 147.388C485.684 148.605 484.946 149.71 484.014 150.642C483.083 151.573 481.978 152.311 480.761 152.815C479.545 153.319 478.241 153.579 476.924 153.579Z" fill="#3F3D56"/>
<path d="M628.397 116.106C636.85 116.106 643.703 109.254 643.703 100.801C643.703 92.3475 636.85 85.4949 628.397 85.4949C619.944 85.4949 613.091 92.3475 613.091 100.801C613.091 109.254 619.944 116.106 628.397 116.106Z" fill="white"/>
<path d="M628.397 78.6338C622.658 78.6338 617.154 80.9136 613.096 84.9717C609.038 89.0298 606.758 94.5338 606.758 100.273C606.758 112.224 628.397 151.468 628.397 151.468C628.397 151.468 650.036 112.224 650.036 100.273C650.036 94.5338 647.756 89.0298 643.698 84.9717C639.64 80.9136 634.136 78.6338 628.397 78.6338ZM628.397 110.828C626.414 110.828 624.475 110.24 622.826 109.138C621.177 108.037 619.891 106.47 619.132 104.638C618.373 102.806 618.175 100.789 618.562 98.8443C618.949 96.899 619.904 95.1122 621.306 93.7098C622.709 92.3074 624.495 91.3523 626.441 90.9654C628.386 90.5785 630.402 90.7771 632.234 91.536C634.067 92.295 635.633 93.5803 636.735 95.2294C637.837 96.8785 638.425 98.8173 638.425 100.801C638.425 103.46 637.368 106.011 635.488 107.891C633.607 109.772 631.056 110.828 628.397 110.828V110.828Z" fill="#3F3D56"/>
<path d="M188.862 569.715L201.044 568.332L201.509 520.688L183.53 522.729L188.862 569.715Z" fill="#FFB8B8"/>
<path d="M225.82 576.978L187.535 581.322L185.857 566.531L209.35 563.865C213.273 563.419 217.212 564.551 220.301 567.01C223.39 569.469 225.375 573.055 225.82 576.978Z" fill="#2F2E41"/>
<path d="M63.582 568.954L75.842 568.953L81.674 521.665L63.58 521.666L63.582 568.954Z" fill="#FFB8B8"/>
<path d="M99.4864 580.336L60.9557 580.338L60.955 565.451L84.5988 565.45C88.5471 565.45 92.3337 567.018 95.1256 569.81C97.9176 572.602 99.4862 576.388 99.4864 580.336Z" fill="#2F2E41"/>
<path d="M151.544 357.486L158.544 380.255L196.544 462.486L206.544 540.486L183.544 541.486L169.544 469.486L121.544 417.486L79.5435 553.486L60.5435 551.486C60.5435 551.486 76.5435 375.486 98.5435 357.486C98.5435 357.486 134.544 340.486 151.544 357.486Z" fill="#2F2E41"/>
<path d="M120.492 259.24C134.057 259.24 145.053 248.244 145.053 234.679C145.053 221.114 134.057 210.118 120.492 210.118C106.928 210.118 95.9313 221.114 95.9313 234.679C95.9313 248.244 106.928 259.24 120.492 259.24Z" fill="#FFB8B8"/>
<path d="M154.044 361.986C154.044 361.986 157.044 259.986 115.044 266.986C73.0436 273.986 90.5436 372.486 90.5436 372.486C90.5436 372.486 99.5436 390.486 121.544 370.486C143.544 350.486 154.044 361.986 154.044 361.986Z" fill="#E9E9E9"/>
<path opacity="0.2" d="M96.044 309.986L105.927 347.869L120.984 362.927L100.044 355.986L96.044 309.986Z" fill="black"/>
<path d="M154.354 405.124C152.972 404.623 151.716 403.825 150.676 402.786C149.636 401.748 148.836 400.493 148.333 399.112C147.83 397.731 147.636 396.256 147.764 394.792C147.893 393.327 148.341 391.909 149.077 390.636L125.718 363.593L144.132 361.196L163.491 387.244C165.547 388.622 167.026 390.707 167.648 393.102C168.269 395.498 167.991 398.039 166.864 400.243C165.738 402.447 163.842 404.161 161.537 405.061C159.231 405.96 156.675 405.983 154.354 405.124Z" fill="#FFB8B8"/>
<path d="M125.914 287.762L128.544 339.486L159.544 379.486L146.544 389.486L104.544 347.486C104.544 347.486 89.5435 296.486 100.544 281.486C104.669 275.861 109.215 274.314 113.288 274.578C116.638 274.857 119.771 276.351 122.097 278.779C124.422 281.208 125.78 284.402 125.914 287.762Z" fill="#E9E9E9"/>
<path d="M117.571 260.486C117.689 260.381 117.78 260.25 117.838 260.103C117.895 259.957 117.918 259.799 117.904 259.642C117.89 259.485 117.84 259.334 117.757 259.2C117.675 259.065 117.562 258.952 117.428 258.87C115.247 257.519 113.47 255.606 112.284 253.331C111.098 251.056 110.546 248.504 110.687 245.943C110.827 243.381 111.655 240.905 113.084 238.774C114.512 236.643 116.488 234.936 118.804 233.832C126.025 230.389 135.81 233.068 141.148 226.452C142.234 225.036 143.002 223.403 143.399 221.664C143.796 219.925 143.814 218.121 143.451 216.375C142.299 210.126 137.602 205.485 132.341 202.305C125.878 198.398 118.451 196.38 110.899 196.478C103.348 196.576 95.9759 198.787 89.6171 202.861C83.2584 206.934 78.1676 212.707 74.9216 219.526C71.6757 226.344 70.4043 233.935 71.2516 241.439C71.9306 247.453 73.7864 254.197 70.2103 259.08C67.0629 263.377 61.1221 264.183 55.9035 265.251C44.7104 267.541 33.9119 272.825 26.316 281.359C18.7201 289.894 14.668 301.868 16.9581 313.061C19.2483 324.254 28.4362 334.091 39.7288 335.826C48.9204 337.238 58.4114 333.334 65.1613 326.938C71.9111 320.541 76.1777 311.902 78.8688 303.001C82.063 292.435 83.3229 281.05 89.0896 271.639C94.7328 262.429 106.894 255.827 116.425 260.624C116.607 260.719 116.814 260.757 117.019 260.732C117.224 260.708 117.416 260.622 117.571 260.486Z" fill="#2F2E41"/>
<path d="M308 581.582H1C0.734784 581.582 0.480429 581.476 0.292892 581.289C0.105356 581.101 0 580.847 0 580.582C0 580.317 0.105356 580.062 0.292892 579.875C0.480429 579.687 0.734784 579.582 1 579.582H308C308.265 579.582 308.52 579.687 308.707 579.875C308.895 580.062 309 580.317 309 580.582C309 580.847 308.895 581.101 308.707 581.289C308.52 581.476 308.265 581.582 308 581.582Z" fill="#3F3D56"/>
</g>
<defs>
<clipPath id="clip0">
<rect width="807.86" height="581.582" fill="white"/>
</clipPath>
</defs>
</svg>
