<svg width="1143" height="960" viewBox="0 0 1143 960" fill="none" xmlns="http://www.w3.org/2000/svg">
<g clip-path="url(#clip0)">
<path d="M829.064 752.8H669.299L397.178 779.244L122.951 752.8V104.907L396.041 124.74L675.029 104.907L947.951 142.37L940.945 639.909L829.064 752.8Z" fill="url(#paint0_linear)"/>
<path d="M823.856 743.794H667.586L401.418 769.524L133.19 743.794V113.412L400.306 132.709L673.19 113.412L940.142 149.863L933.289 633.955L823.856 743.794Z" fill="white"/>
<path d="M824.736 726.631H660.154L409.096 750.901L156.095 726.631V132.035L408.047 150.237L665.44 132.035L917.237 166.417V633.6L824.736 726.631Z" fill="#276AFB"/>
<path d="M1142.05 905.143L564.089 585.083L710.891 97.332L660.931 77.52L589.788 313.893L22.967 0L0 54.646L572.409 371.634L441.726 805.828L491.686 825.64L546.71 642.823L1119.08 959.789L1142.05 905.143Z" fill="white"/>
<path d="M813.083 742.811L815.019 620.076L933.289 624.847L813.083 742.811Z" fill="url(#paint1_linear)"/>
<path d="M156.095 388.993L518.844 549.605L542.951 599.576L518.951 624.576L156.095 452.489V388.993Z" fill="white"/>
<path d="M823.856 742.811L825.618 629.555L933.289 633.957L823.856 742.811Z" fill="white"/>
<path d="M648.951 647.576L800.309 150.451L860.519 158.672L690.951 673.576L648.951 647.576Z" fill="white"/>
<path opacity="0.1" d="M408.047 750.901L659.999 726.631V132.035L408.047 150.237" fill="#242424"/>
<path d="M638.799 348.436C638.799 396.465 551.834 532.478 551.834 532.478C551.834 532.478 464.869 396.465 464.869 348.436C464.865 337.013 467.112 325.701 471.481 315.147C475.849 304.592 482.254 295.002 490.33 286.923C498.406 278.845 507.994 272.437 518.547 268.064C529.1 263.692 540.411 261.442 551.834 261.442C563.257 261.442 574.568 263.692 585.121 268.064C595.674 272.437 605.262 278.845 613.338 286.923C621.414 295.002 627.819 304.592 632.187 315.147C636.556 325.701 638.803 337.013 638.799 348.436V348.436Z" fill="#F00946"/>
<path d="M551.834 368.66C566.355 368.66 578.126 356.889 578.126 342.369C578.126 327.848 566.355 316.077 551.834 316.077C537.314 316.077 525.542 327.848 525.542 342.369C525.542 356.889 537.314 368.66 551.834 368.66Z" fill="white"/>
<path d="M784.67 388.993L917.237 423.009V486.505L754.951 428.576L784.67 388.993Z" fill="white"/>
<path d="M279.434 510.983L245.951 742.576L283.951 750.576L334.01 536.866L333.951 506.576L279.434 510.983Z" fill="white"/>
<path d="M278.084 208.643L240.514 426.371L269.604 442.076L338.951 208.576L278.084 208.643Z" fill="white"/>
<path d="M349.951 173.576C354.369 173.576 357.951 169.994 357.951 165.576C357.951 161.157 354.369 157.576 349.951 157.576C345.532 157.576 341.951 161.157 341.951 165.576C341.951 169.994 345.532 173.576 349.951 173.576Z" fill="#F00946"/>
<path d="M253.951 587.575C258.369 587.575 261.951 583.994 261.951 579.575C261.951 575.157 258.369 571.575 253.951 571.575C249.532 571.575 245.951 575.157 245.951 579.575C245.951 583.994 249.532 587.575 253.951 587.575Z" fill="#F00946"/>
<path d="M245.951 646.575C250.369 646.575 253.951 642.994 253.951 638.575C253.951 634.157 250.369 630.575 245.951 630.575C241.532 630.575 237.951 634.157 237.951 638.575C237.951 642.994 241.532 646.575 245.951 646.575Z" fill="#F00946"/>
<path d="M330.951 632.575C335.369 632.575 338.951 628.994 338.951 624.575C338.951 620.157 335.369 616.575 330.951 616.575C326.532 616.575 322.951 620.157 322.951 624.575C322.951 628.994 326.532 632.575 330.951 632.575Z" fill="#F00946"/>
<path d="M193.951 392.575C198.369 392.575 201.951 388.994 201.951 384.575C201.951 380.157 198.369 376.575 193.951 376.575C189.532 376.575 185.951 380.157 185.951 384.575C185.951 388.994 189.532 392.575 193.951 392.575Z" fill="#F00946"/>
<path d="M823.951 384.575C828.369 384.575 831.951 380.994 831.951 376.575C831.951 372.157 828.369 368.575 823.951 368.575C819.532 368.575 815.951 372.157 815.951 376.575C815.951 380.994 819.532 384.575 823.951 384.575Z" fill="#F00946"/>
<path d="M754.951 662.575C759.369 662.575 762.951 658.994 762.951 654.575C762.951 650.157 759.369 646.575 754.951 646.575C750.532 646.575 746.951 650.157 746.951 654.575C746.951 658.994 750.532 662.575 754.951 662.575Z" fill="#F00946"/>
<circle cx="373" cy="84" r="15" fill="#276AFB"/>
<circle cx="1052" cy="224" r="15" fill="#276AFB"/>
<circle cx="973" cy="547" r="15" fill="#276AFB"/>
<path d="M905.194 696.553C906.655 691.826 913.345 691.826 914.806 696.553V696.553C915.458 698.661 917.426 700.098 919.632 700.098V700.098C924.578 700.098 926.784 706.375 922.854 709.377L922.445 709.689C920.705 711.019 919.979 713.292 920.625 715.383L920.837 716.069C922.273 720.715 916.897 724.465 913.032 721.513V721.513C911.242 720.145 908.758 720.145 906.968 721.513V721.513C903.103 724.465 897.727 720.715 899.163 716.069L899.375 715.383C900.021 713.292 899.295 711.019 897.555 709.689L897.146 709.377C893.216 706.375 895.422 700.098 900.368 700.098V700.098C902.574 700.098 904.542 698.661 905.194 696.553V696.553Z" fill="#E9E9E9"/>
<path d="M88.1938 502.553C89.6545 497.826 96.3455 497.826 97.8062 502.553V502.553C98.4575 504.661 100.426 506.098 102.632 506.098V506.098C107.578 506.098 109.784 512.375 105.854 515.377L105.445 515.689C103.705 517.019 102.979 519.292 103.625 521.383L103.837 522.069C105.273 526.715 99.8969 530.465 96.0323 527.513V527.513C94.2421 526.145 91.7579 526.145 89.9677 527.513V527.513C86.1031 530.465 80.7273 526.715 82.1631 522.069L82.3749 521.383C83.0213 519.292 82.2948 517.019 80.555 515.689L80.146 515.377C76.216 512.375 78.4221 506.098 83.3675 506.098V506.098C85.5737 506.098 87.5425 504.661 88.1938 502.553V502.553Z" fill="#F00946"/>
<circle cx="64" cy="360" r="15" fill="#276AFB"/>
<path d="M958.709 102.93C958.097 103.543 957.122 103.598 956.445 103.058L947.227 95.7119C946.359 95.0201 945.571 94.2333 944.878 93.3664L937.367 83.9754C936.829 83.3018 936.882 82.3308 937.492 81.7208V81.7208C938.093 81.12 939.046 81.0576 939.72 81.5749L949.349 88.9642C950.392 89.765 951.322 90.7031 952.114 91.7532L958.864 100.703C959.375 101.38 959.309 102.33 958.709 102.93V102.93Z" fill="#F00946"/>
<path d="M937.496 102.709C936.884 102.097 936.829 101.122 937.368 100.445L944.714 91.2273C945.406 90.3591 946.193 89.571 947.06 88.8777L956.451 81.3672C957.125 80.8285 958.096 80.8823 958.705 81.4923V81.4923C959.306 82.0931 959.369 83.0462 958.851 83.7202L951.462 93.3486C950.661 94.392 949.723 95.3223 948.673 96.1143L939.724 102.864C939.046 103.375 938.096 103.309 937.496 102.709V102.709Z" fill="#F00946"/>
<path d="M948.057 107.213C947.191 107.213 946.463 106.563 946.366 105.703L945.042 93.9901C944.917 92.887 944.916 91.7734 945.039 90.6701L946.369 78.719C946.464 77.8617 947.189 77.2132 948.052 77.2132V77.2132C948.901 77.2132 949.619 77.843 949.73 78.6854L951.313 90.7187C951.485 92.0227 951.479 93.344 951.297 94.6465L949.742 105.748C949.624 106.588 948.905 107.213 948.057 107.213V107.213Z" fill="#F00946"/>
<path d="M933.213 92.0566C933.213 91.1908 933.863 90.463 934.724 90.3657L946.436 89.0421C947.539 88.9174 948.653 88.9164 949.756 89.0392L961.707 90.3689C962.565 90.4643 963.213 91.189 963.213 92.0516V92.0516C963.213 92.9012 962.583 93.6193 961.741 93.7301L949.708 95.3134C948.404 95.485 947.082 95.4794 945.78 95.297L934.679 93.7418C933.838 93.624 933.213 92.9052 933.213 92.0566V92.0566Z" fill="#F00946"/>
<path d="M1004.71 364.931C1004.1 365.543 1003.12 365.598 1002.45 365.058L993.227 357.712C992.359 357.02 991.571 356.233 990.878 355.366L983.367 345.976C982.829 345.302 982.882 344.331 983.492 343.721V343.721C984.093 343.12 985.046 343.058 985.72 343.575L995.349 350.964C996.392 351.765 997.322 352.703 998.114 353.753L1004.86 362.703C1005.38 363.38 1005.31 364.331 1004.71 364.931V364.931Z" fill="#1C2237"/>
<path d="M983.496 364.709C982.884 364.097 982.829 363.122 983.368 362.445L990.714 353.227C991.406 352.359 992.193 351.571 993.06 350.878L1002.45 343.367C1003.12 342.829 1004.1 342.882 1004.71 343.492V343.492C1005.31 344.093 1005.37 345.046 1004.85 345.72L997.462 355.349C996.661 356.392 995.723 357.322 994.673 358.114L985.724 364.864C985.046 365.375 984.096 365.309 983.496 364.709V364.709Z" fill="#1C2237"/>
</g>
<defs>
<linearGradient id="paint0_linear" x1="535.451" y1="779.244" x2="535.451" y2="104.907" gradientUnits="userSpaceOnUse">
<stop stop-color="#808080" stop-opacity="0.25"/>
<stop offset="0.53514" stop-color="#808080" stop-opacity="0.12"/>
<stop offset="1" stop-color="#808080" stop-opacity="0.1"/>
</linearGradient>
<linearGradient id="paint1_linear" x1="873.186" y1="742.811" x2="873.186" y2="620.076" gradientUnits="userSpaceOnUse">
<stop stop-opacity="0.12"/>
<stop offset="0.55135" stop-opacity="0.09"/>
<stop offset="1" stop-opacity="0.02"/>
</linearGradient>
<clipPath id="clip0">
<rect width="1142.05" height="959.789" fill="white"/>
</clipPath>
</defs>
</svg>
