<svg width="950" height="768" viewBox="0 0 950 768" fill="none" xmlns="http://www.w3.org/2000/svg">
<g clip-path="url(#clip0)">
<path d="M738.317 636.971C765.104 636.971 786.82 592.663 786.82 538.006C786.82 483.349 765.104 439.041 738.317 439.041C711.53 439.041 689.814 483.349 689.814 538.006C689.814 592.663 711.53 636.971 738.317 636.971Z" fill="#242424"/>
<path d="M733.838 699.996C753.264 583.444 734.033 467.314 733.837 466.156L730.058 466.796C730.254 467.949 749.374 583.469 730.057 699.367L733.838 699.996Z" fill="#276AFB"/>
<path d="M695.615 516.725L693.807 520.105L737.666 543.565L739.474 540.185L695.615 516.725Z" fill="#276AFB"/>
<path d="M783.956 528.477L740.102 551.95L741.91 555.33L785.765 531.856L783.956 528.477Z" fill="#276AFB"/>
<path d="M854.855 574.943C907.248 574.943 949.72 488.282 949.72 381.379C949.72 274.477 907.248 187.815 854.855 187.815C802.462 187.815 759.989 274.477 759.989 381.379C759.989 488.282 802.462 574.943 854.855 574.943Z" fill="#E9E9E9"/>
<path d="M844.288 697.912C882.232 470.252 844.671 243.421 844.287 241.156L840.508 241.796C840.891 244.055 878.342 470.276 840.508 697.283L844.288 697.912Z" fill="#276AFB"/>
<path d="M770.469 341.371L768.661 344.751L854.448 390.637L856.256 387.257L770.469 341.371Z" fill="#276AFB"/>
<path d="M944.983 364.358L859.21 410.267L861.018 413.646L946.792 367.737L944.983 364.358Z" fill="#276AFB"/>
<path d="M630.173 529.755C701.868 529.755 759.989 411.165 759.989 264.877C759.989 118.59 701.868 0 630.173 0C558.477 0 500.357 118.59 500.357 264.877C500.357 411.165 558.477 529.755 630.173 529.755Z" fill="#E9E9E9"/>
<path d="M615.016 697.912C666.92 386.492 615.54 76.2088 615.015 73.1114L611.237 73.7515C611.761 76.8433 663.03 386.516 611.236 697.283L615.016 697.912Z" fill="#276AFB"/>
<path d="M514.365 210.752L512.557 214.132L629.948 276.923L631.756 273.543L514.365 210.752Z" fill="#276AFB"/>
<path d="M753.84 242.207L636.465 305.029L638.274 308.408L755.649 245.587L753.84 242.207Z" fill="#276AFB"/>
<path d="M910.513 700.231H0V698.05H910.908L910.513 700.231Z" fill="#242424"/>
<path d="M156 675.917H134C122.492 675.917 112.212 676.732 105.426 681.092C102.234 675.284 97.5412 670.44 91.837 667.067C86.1327 663.694 79.627 661.915 73.0001 661.917H50.9999C46.141 661.917 41.3297 662.874 36.8407 664.734C32.3516 666.593 28.2728 669.319 24.837 672.754C21.4013 676.19 18.6759 680.269 16.8165 684.758C14.957 689.247 14 694.058 14 698.917V698.917H193V698.917C193 678.483 176.435 675.917 156 675.917Z" fill="#242424"/>
<path d="M756.014 700H849.986C849.512 682.468 836.381 679 814 679H792C769.619 679 756.488 682.468 756.014 700Z" fill="#242424"/>
<path d="M199.745 438.191L212.45 444.072L203.63 463.129C202.85 464.814 201.433 466.12 199.69 466.76C197.947 467.4 196.022 467.322 194.337 466.542V466.542C192.652 465.762 191.346 464.345 190.706 462.602C190.066 460.86 190.145 458.934 190.924 457.249L199.745 438.191V438.191Z" fill="#FFB9B9"/>
<path d="M324.217 171.829H324.217C337.743 171.829 350.715 177.202 360.28 186.766C369.844 196.331 375.217 209.303 375.217 222.829V279.829H273.217V222.829C273.217 209.303 278.59 196.331 288.155 186.766C297.719 177.202 310.691 171.829 324.217 171.829V171.829Z" fill="#2F2E41"/>
<path d="M286.217 708.837L275.217 706.837L267.217 662.837L289.717 663.329L286.217 708.837Z" fill="#FFB9B9"/>
<path d="M407.717 734.329L396.437 739.542L378.437 687.542L397.717 684.329L407.717 734.329Z" fill="#FFB9B9"/>
<path d="M402.717 687.329L373.217 688.837L292.717 494.329L290.522 669.496L262.217 665.837C242.261 556.826 225.749 459.989 251.717 399.329L339.717 406.329L402.717 687.329Z" fill="#2F2E41"/>
<path d="M268.534 739.49L257.086 738.871C256.584 738.844 256.096 738.689 255.67 738.421C255.244 738.153 254.894 737.781 254.651 737.339C254.409 736.898 254.284 736.402 254.287 735.899C254.29 735.396 254.421 734.902 254.668 734.463L272.092 703.55L287.392 704.825L289.754 715.847C290.193 717.894 290.047 720.024 289.334 721.993C288.62 723.962 287.368 725.691 285.72 726.983L278.217 732.862C277.557 734.878 276.25 736.62 274.5 737.818C272.749 739.017 270.652 739.604 268.534 739.49V739.49Z" fill="#2F2E41"/>
<path d="M424.505 764.217L414.617 767.616C413.959 767.843 413.253 767.894 412.569 767.765C411.884 767.636 411.245 767.332 410.714 766.882L393.504 752.291C391.913 750.942 390.753 749.155 390.167 747.153C389.582 745.151 389.597 743.021 390.21 741.027L392.372 734.003L408.757 730.831L426.567 758.231C426.899 758.743 427.111 759.323 427.185 759.929C427.26 760.535 427.195 761.15 426.996 761.727C426.798 762.304 426.47 762.828 426.038 763.26C425.607 763.691 425.082 764.019 424.505 764.217V764.217Z" fill="#2F2E41"/>
<path d="M317.217 251.829C335.995 251.829 351.217 236.607 351.217 217.829C351.217 199.051 335.995 183.829 317.217 183.829C298.44 183.829 283.217 199.051 283.217 217.829C283.217 236.607 298.44 251.829 317.217 251.829Z" fill="#FFB9B9"/>
<path d="M351.717 268.329L311.717 275.329L307.717 243.329L338.717 239.329L351.717 268.329Z" fill="#FFB9B9"/>
<path d="M351.717 417.329L248.717 407.329C253.768 352.375 270.695 303.909 305.717 265.329L355.717 261.329L351.717 417.329Z" fill="#242424"/>
<path d="M214.217 447.837L193.217 440.837L229.457 367.57L283.717 279.329L305.717 265.329L257.041 374.412L214.217 447.837Z" fill="#242424"/>
<path d="M340.217 206.829L278.217 218.829L288.217 187.829L324.217 179.829L352.217 189.829L340.217 206.829Z" fill="#2F2E41"/>
<path d="M212.083 458.554C263.827 458.554 305.774 416.607 305.774 364.863C305.774 313.119 263.827 271.172 212.083 271.172C160.339 271.172 118.393 313.119 118.393 364.863C118.393 416.607 160.339 458.554 212.083 458.554Z" fill="#276AFB"/>
<path d="M320.426 471.91L263.743 457.087L207.059 442.263L248.238 400.586L289.418 358.908L304.922 415.409L320.426 471.91Z" fill="#276AFB"/>
<path d="M212.198 397.529C230.763 397.529 245.813 382.479 245.813 363.914C245.813 345.35 230.763 330.3 212.198 330.3C193.633 330.3 178.584 345.35 178.584 363.914C178.584 382.479 193.633 397.529 212.198 397.529Z" fill="white"/>
<path d="M311.745 461.191L324.45 467.072L315.63 486.129C314.85 487.814 313.433 489.12 311.69 489.76C309.947 490.4 308.022 490.322 306.337 489.542V489.542C304.652 488.762 303.346 487.345 302.706 485.602C302.066 483.86 302.145 481.934 302.924 480.249L311.745 461.191Z" fill="#FFB9B9"/>
<path d="M325.217 473.837L307.217 462.837L316.656 398.59L355.717 266.329L363.136 269.165C370.453 271.963 376.485 277.354 380.084 284.312C383.683 291.27 384.597 299.308 382.652 306.896L357.338 405.673L325.217 473.837Z" fill="#242424"/>
</g>
<defs>
<clipPath id="clip0">
<rect width="949.72" height="767.834" fill="white"/>
</clipPath>
</defs>
</svg>
