<svg width="950" height="768" viewBox="0 0 950 768" fill="none" xmlns="http://www.w3.org/2000/svg">
<g clip-path="url(#clip0)">
<path d="M738.317 636.971C765.104 636.971 786.82 592.663 786.82 538.006C786.82 483.349 765.104 439.041 738.317 439.041C711.53 439.041 689.814 483.349 689.814 538.006C689.814 592.663 711.53 636.971 738.317 636.971Z" fill="#242424"/>
<path d="M733.838 699.996C753.264 583.444 734.033 467.314 733.837 466.156L730.058 466.796C730.254 467.949 749.374 583.469 730.057 699.367L733.838 699.996Z" fill="#276AFB"/>
<path d="M695.615 516.725L693.807 520.105L737.666 543.565L739.474 540.185L695.615 516.725Z" fill="#276AFB"/>
<path d="M783.956 528.477L740.102 551.95L741.91 555.33L785.765 531.856L783.956 528.477Z" fill="#276AFB"/>
<path d="M854.855 574.943C907.248 574.943 949.72 488.282 949.72 381.379C949.72 274.477 907.248 187.815 854.855 187.815C802.462 187.815 759.989 274.477 759.989 381.379C759.989 488.282 802.462 574.943 854.855 574.943Z" fill="#E9E9E9"/>
<path d="M844.288 697.912C882.232 470.252 844.671 243.421 844.287 241.156L840.508 241.796C840.891 244.055 878.342 470.276 840.508 697.283L844.288 697.912Z" fill="#276AFB"/>
<path d="M770.469 341.371L768.661 344.751L854.448 390.637L856.256 387.257L770.469 341.371Z" fill="#276AFB"/>
<path d="M944.983 364.358L859.21 410.267L861.018 413.646L946.792 367.737L944.983 364.358Z" fill="#276AFB"/>
<path d="M630.173 529.755C701.868 529.755 759.989 411.165 759.989 264.877C759.989 118.59 701.868 0 630.173 0C558.477 0 500.357 118.59 500.357 264.877C500.357 411.165 558.477 529.755 630.173 529.755Z" fill="#E9E9E9"/>
<path d="M615.016 697.912C666.92 386.492 615.54 76.2088 615.015 73.1114L611.237 73.7515C611.761 76.8433 663.03 386.516 611.236 697.283L615.016 697.912Z" fill="#276AFB"/>
<path d="M514.365 210.752L512.557 214.132L629.948 276.923L631.756 273.543L514.365 210.752Z" fill="#276AFB"/>
<path d="M753.84 242.207L636.465 305.029L638.274 308.408L755.649 245.587L753.84 242.207Z" fill="#276AFB"/>
<path d="M910.513 700.231H0V698.05H910.908L910.513 700.231Z" fill="#242424"/>
<path d="M156 675.917H134C122.492 675.917 112.212 676.732 105.426 681.092C102.234 675.284 97.5412 670.44 91.837 667.067C86.1327 663.694 79.627 661.915 73.0001 661.917H50.9999C46.141 661.917 41.3297 662.874 36.8407 664.734C32.3516 666.593 28.2728 669.319 24.837 672.754C21.4013 676.19 18.6759 680.269 16.8165 684.758C14.957 689.247 14 694.058 14 698.917V698.917H193V698.917C193 678.483 176.435 675.917 156 675.917Z" fill="#242424"/>
<path d="M756.014 700H849.986C849.512 682.468 836.381 679 814 679H792C769.619 679 756.488 682.468 756.014 700Z" fill="#242424"/>
<path d="M199.745 438.191L212.45 444.072L203.63 463.129C202.85 464.814 201.433 466.12 199.69 466.76C197.947 467.4 196.022 467.322 194.337 466.542V466.542C192.652 465.762 191.346 464.345 190.706 462.602C190.066 460.86 190.145 458.934 190.924 457.249L199.745 438.191V438.191Z" fill="#FFB9B9"/>
<path d="M324.217 171.829H324.217C337.743 171.829 350.715 177.202 360.28 186.766C369.844 196.331 375.217 209.303 375.217 222.829V279.829H273.217V222.829C273.217 209.303 278.59 196.331 288.155 186.766C297.719 177.202 310.691 171.829 324.217 171.829V171.829Z" fill="#2F2E41"/>
<path d="M286.217 708.837L275.217 706.837L267.217 662.837L289.717 663.329L286.217 708.837Z" fill="#FFB9B9"/>
<path d="M407.717 734.329L396.437 739.542L378.437 687.542L397.717 684.329L407.717 734.329Z" fill="#FFB9B9"/>
<path d="M402.717 687.329L373.217 688.837L292.717 494.329L290.522 669.496L262.217 665.837C242.261 556.826 225.749 459.989 251.717 399.329L339.717 406.329L402.717 687.329Z" fill="#2F2E41"/>
<path d="M268.534 739.49L257.086 738.871C256.584 738.844 256.096 738.689 255.67 738.421C255.244 738.153 254.894 737.781 254.651 737.339C254.409 736.898 254.284 736.402 254.287 735.899C254.29 735.396 254.421 734.902 254.668 734.463L272.092 703.55L287.392 704.825L289.754 715.847C290.193 717.894 290.047 720.024 289.334 721.993C288.62 723.962 287.368 725.691 285.72 726.983L278.217 732.862C277.557 734.878 276.25 736.62 274.5 737.818C272.749 739.017 270.652 739.604 268.534 739.49V739.49Z" fill="#2F2E41"/>
<path d="M424.505 764.217L414.617 767.616C413.959 767.843 413.253 767.894 412.569 767.765C411.884 767.636 411.245 767.332 410.714 766.882L393.504 752.291C391.913 750.942 390.753 749.155 390.167 747.153C389.582 745.151 389.597 743.021 390.21 741.027L392.372 734.003L408.757 730.831L426.567 758.231C426.899 758.743 427.111 759.323 427.185 759.929C427.26 760.535 427.195 761.15 426.996 761.727C426.798 762.304 426.47 762.828 426.038 763.26C425.607 763.691 425.082 764.019 424.505 764.217V764.217Z" fill="#2F2E41"/>
<path d="M317.217 251.829C335.995 251.829 351.217 236.607 351.217 217.829C351.217 199.051 335.995 183.829 317.217 183.829C298.44 183.829 283.217 199.051 283.217 217.829C283.217 236.607 298.44 251.829 317.217 251.829Z" fill="#FFB9B9"/>
<path d="M351.717 268.329L311.717 275.329L307.717 243.329L338.717 239.329L351.717 268.329Z" fill="#FFB9B9"/>
<path d="M351.717 417.329L248.717 407.329C253.768 352.375 270.695 303.909 305.717 265.329L355.717 261.329L351.717 417.329Z" fill="#242424"/>
<path d="M214.217 447.837L193.217 440.837L229.457 367.57L283.717 279.329L305.717 265.329L257.041 374.412L214.217 447.837Z" fill="#242424"/>
<path d="M340.217 206.829L278.217 218.829L288.217 187.829L324.217 179.829L352.217 189.829L340.217 206.829Z" fill="#2F2E41"/>
<path d="M212.083 458.554C263.827 458.554 305.774 416.607 305.774 364.863C305.774 313.119 263.827 271.172 212.083 271.172C160.339 271.172 118.393 313.119 118.393 364.863C118.393 416.607 160.339 458.554 212.083 458.554Z" fill="#276AFB"/>
<path d="M320.426 471.91L263.743 457.087L207.059 442.263L248.238 400.586L289.418 358.908L304.922 415.409L320.426 471.91Z" fill="#276AFB"/>
<path d="M212.198 397.529C230.763 397.529 245.813 382.479 245.813 363.914C245.813 345.35 230.763 330.3 212.198 330.3C193.633 330.3 178.584 345.35 178.584 363.914C178.584 382.479 193.633 397.529 212.198 397.529Z" fill="white"/>
<path d="M311.745 461.191L324.45 467.072L315.63 486.129C314.85 487.814 313.433 489.12 311.69 489.76C309.947 490.4 308.022 490.322 306.337 489.542V489.542C304.652 488.762 303.346 487.345 302.706 485.602C302.066 483.86 302.145 481.934 302.924 480.249L311.745 461.191Z" fill="#FFB9B9"/>
<path d="M325.217 473.837L307.217 462.837L316.656 398.59L355.717 266.329L363.136 269.165C370.453 271.963 376.485 277.354 380.084 284.312C383.683 291.27 384.597 299.308 382.652 306.896L357.338 405.673L325.217 473.837Z" fill="#242424"/>
<circle cx="63" cy="262" r="15" fill="#276AFB"/>
<circle cx="911" cy="39" r="15" fill="#276AFB"/>
<path d="M123.194 121.553C124.655 116.826 131.345 116.826 132.806 121.553V121.553C133.458 123.661 135.426 125.098 137.632 125.098V125.098C142.578 125.098 144.784 131.375 140.854 134.377L140.445 134.689C138.705 136.019 137.979 138.292 138.625 140.383L138.837 141.069C140.273 145.715 134.897 149.465 131.032 146.513V146.513C129.242 145.145 126.758 145.145 124.968 146.513V146.513C121.103 149.465 115.727 145.715 117.163 141.069L117.375 140.383C118.021 138.292 117.295 136.019 115.555 134.689L115.146 134.377C111.216 131.375 113.422 125.098 118.368 125.098V125.098C120.574 125.098 122.542 123.661 123.194 121.553V121.553Z" fill="#F00946"/>
<path d="M452.709 269.931C452.097 270.543 451.122 270.598 450.445 270.058L441.227 262.712C440.359 262.02 439.571 261.233 438.878 260.366L431.367 250.975C430.829 250.302 430.882 249.331 431.492 248.721V248.721C432.093 248.12 433.046 248.058 433.72 248.575L443.349 255.964C444.392 256.765 445.322 257.703 446.114 258.753L452.864 267.703C453.375 268.38 453.309 269.33 452.709 269.931V269.931Z" fill="#276AFB"/>
<path d="M431.496 269.709C430.884 269.097 430.829 268.122 431.368 267.445L438.714 258.227C439.406 257.359 440.193 256.571 441.06 255.878L450.451 248.367C451.125 247.829 452.096 247.882 452.706 248.492V248.492C453.306 249.093 453.369 250.046 452.851 250.72L445.462 260.349C444.661 261.392 443.723 262.322 442.673 263.114L433.724 269.864C433.046 270.375 432.096 270.309 431.496 269.709V269.709Z" fill="#276AFB"/>
<path d="M442.057 274.213C441.191 274.213 440.463 273.563 440.366 272.703L439.042 260.99C438.917 259.887 438.916 258.773 439.039 257.67L440.369 245.719C440.464 244.862 441.189 244.213 442.052 244.213V244.213C442.901 244.213 443.619 244.843 443.73 245.685L445.313 257.719C445.485 259.023 445.479 260.344 445.297 261.646L443.742 272.748C443.624 273.588 442.905 274.213 442.057 274.213V274.213Z" fill="#276AFB"/>
<path d="M427.213 259.057C427.213 258.191 427.863 257.463 428.724 257.366L440.436 256.042C441.539 255.917 442.653 255.916 443.756 256.039L455.707 257.369C456.565 257.464 457.213 258.189 457.213 259.052V259.052C457.213 259.901 456.583 260.619 455.741 260.73L443.708 262.313C442.404 262.485 441.082 262.479 439.78 262.297L428.679 260.742C427.838 260.624 427.213 259.905 427.213 259.057V259.057Z" fill="#276AFB"/>
<path d="M787.709 128.931C787.097 129.543 786.122 129.598 785.445 129.058L776.227 121.712C775.359 121.02 774.571 120.233 773.878 119.366L766.367 109.975C765.829 109.302 765.882 108.331 766.492 107.721V107.721C767.093 107.12 768.046 107.058 768.72 107.575L778.349 114.964C779.392 115.765 780.322 116.703 781.114 117.753L787.864 126.703C788.375 127.38 788.309 128.33 787.709 128.931V128.931Z" fill="#F00946"/>
<path d="M766.496 128.709C765.884 128.097 765.829 127.122 766.368 126.445L773.714 117.227C774.406 116.359 775.193 115.571 776.06 114.878L785.451 107.367C786.125 106.829 787.096 106.882 787.706 107.492V107.492C788.306 108.093 788.369 109.046 787.851 109.72L780.462 119.349C779.661 120.392 778.723 121.322 777.673 122.114L768.724 128.864C768.046 129.375 767.096 129.309 766.496 128.709V128.709Z" fill="#F00946"/>
<path d="M777.057 133.213C776.191 133.213 775.463 132.563 775.366 131.703L774.042 119.99C773.917 118.887 773.916 117.773 774.039 116.67L775.369 104.719C775.464 103.862 776.189 103.213 777.052 103.213V103.213C777.901 103.213 778.619 103.843 778.73 104.685L780.313 116.719C780.485 118.023 780.479 119.344 780.297 120.646L778.742 131.748C778.624 132.588 777.905 133.213 777.057 133.213V133.213Z" fill="#F00946"/>
<path d="M762.213 118.057C762.213 117.191 762.863 116.463 763.724 116.366L775.436 115.042C776.539 114.917 777.653 114.916 778.756 115.039L790.707 116.369C791.565 116.464 792.213 117.189 792.213 118.052V118.052C792.213 118.901 791.583 119.619 790.741 119.73L778.708 121.313C777.404 121.485 776.082 121.479 774.78 121.297L763.679 119.742C762.838 119.624 762.213 118.905 762.213 118.057V118.057Z" fill="#F00946"/>
<path d="M277.709 95.9305C277.097 96.5427 276.122 96.5976 275.445 96.058L266.227 88.7119C265.359 88.0201 264.571 87.2333 263.878 86.3664L256.367 76.9755C255.829 76.3018 255.882 75.3308 256.492 74.7209V74.7209C257.093 74.12 258.046 74.0576 258.72 74.5749L268.349 81.9643C269.392 82.765 270.322 83.7031 271.114 84.7532L277.864 93.7026C278.375 94.3801 278.309 95.3305 277.709 95.9305V95.9305Z" fill="white"/>
<path d="M256.496 95.7091C255.884 95.0968 255.829 94.1224 256.368 93.4453L263.714 84.2273C264.406 83.3591 265.193 82.571 266.06 81.8777L275.451 74.3672C276.125 73.8285 277.096 73.8823 277.706 74.4923V74.4923C278.306 75.0931 278.369 76.0462 277.851 76.7202L270.462 86.3486C269.661 87.392 268.723 88.3223 267.673 89.1143L258.724 95.8643C258.046 96.3753 257.096 96.3091 256.496 95.7091V95.7091Z" fill="white"/>
</g>
<defs>
<clipPath id="clip0">
<rect width="949.72" height="767.834" fill="white"/>
</clipPath>
</defs>
</svg>
