<svg width="870" height="521" viewBox="0 0 870 521" fill="none" xmlns="http://www.w3.org/2000/svg">
<g clip-path="url(#clip0)">
<path d="M754.417 348.364C765.829 346.76 773.762 336.086 772.137 324.524C770.512 312.961 759.944 304.887 748.532 306.491C737.12 308.095 729.187 318.769 730.812 330.331C732.437 341.894 743.005 349.968 754.417 348.364Z" fill="white"/>
<path d="M747.213 297.106C739.465 298.194 732.473 302.357 727.775 308.678C723.076 314.999 721.057 322.961 722.16 330.811C724.457 347.158 761.215 396.734 761.215 396.734C761.215 396.734 782.883 338.947 780.586 322.6C779.482 314.749 775.347 307.653 769.088 302.872C762.829 298.091 754.961 296.017 747.213 297.106ZM753.402 341.144C750.725 341.52 747.994 341.084 745.556 339.889C743.118 338.695 741.082 336.797 739.705 334.434C738.328 332.072 737.672 329.351 737.821 326.617C737.969 323.883 738.915 321.258 740.539 319.073C742.162 316.889 744.391 315.243 746.943 314.345C749.494 313.447 752.254 313.336 754.874 314.026C757.494 314.717 759.855 316.178 761.66 318.225C763.464 320.271 764.631 322.812 765.012 325.525C765.265 327.326 765.166 329.159 764.719 330.919C764.273 332.679 763.488 334.331 762.41 335.781C761.332 337.232 759.982 338.452 758.436 339.372C756.89 340.292 755.18 340.894 753.402 341.144Z" fill="#1C2237"/>
<path d="M666.093 514.257C654.954 504.845 648.189 489.977 649.963 475.503C651.737 461.029 662.727 447.723 676.981 444.649C691.236 441.576 707.485 450.084 711.815 464.009C714.198 437.162 716.944 409.191 731.217 386.329C744.141 365.628 766.526 350.815 790.786 348.165C815.046 345.515 840.588 355.524 855.718 374.672C870.848 393.82 874.553 421.658 863.956 443.641C856.15 459.836 841.768 471.888 826.7 481.693C778.008 513.11 719.608 525.886 662.246 517.67L666.093 514.257Z" fill="#F2F2F2"/>
<path d="M235.417 399.364C246.829 397.76 254.762 387.086 253.137 375.524C251.512 363.961 240.944 355.887 229.532 357.491C218.12 359.095 210.187 369.769 211.812 381.331C213.437 392.894 224.005 400.968 235.417 399.364Z" fill="white"/>
<path d="M228.213 348.106C220.465 349.194 213.473 353.357 208.775 359.678C204.076 365.999 202.057 373.961 203.16 381.811C205.457 398.158 242.215 447.734 242.215 447.734C242.215 447.734 263.883 389.947 261.586 373.6C260.482 365.749 256.347 358.653 250.088 353.872C243.829 349.091 235.961 347.017 228.213 348.106ZM234.402 392.144C231.725 392.52 228.994 392.084 226.556 390.889C224.118 389.695 222.082 387.797 220.705 385.434C219.328 383.072 218.672 380.351 218.821 377.617C218.969 374.883 219.915 372.258 221.539 370.073C223.162 367.889 225.391 366.243 227.943 365.345C230.494 364.447 233.254 364.336 235.874 365.026C238.494 365.717 240.855 367.178 242.66 369.225C244.464 371.271 245.631 373.812 246.012 376.525C246.265 378.326 246.166 380.159 245.719 381.919C245.273 383.679 244.488 385.331 243.41 386.781C242.332 388.232 240.982 389.452 239.436 390.372C237.89 391.292 236.18 391.894 234.402 392.144Z" fill="#1C2237"/>
<path d="M93.4287 291.577C103.409 285.815 106.766 272.947 100.928 262.835C95.0898 252.723 82.2665 249.196 72.2865 254.958C62.3065 260.72 58.9489 273.588 64.7871 283.701C70.6254 293.813 83.4487 297.339 93.4287 291.577Z" fill="white"/>
<path d="M67.5477 246.75C60.7721 250.662 55.8485 257.141 53.8601 264.762C51.8718 272.382 52.9816 280.521 56.9453 287.386C65.1993 301.682 117.851 333.879 117.851 333.879C117.851 333.879 116.295 272.182 108.041 257.886C104.077 251.021 97.5841 245.99 89.9901 243.902C82.3962 241.814 74.3234 242.838 67.5477 246.75ZM89.7835 285.263C87.4419 286.615 84.7467 287.233 82.0387 287.039C79.3307 286.845 76.7316 285.848 74.5699 284.173C72.4083 282.498 70.7813 280.222 69.8947 277.631C69.008 275.04 68.9015 272.252 69.5886 269.618C70.2758 266.985 71.7257 264.624 73.7551 262.835C75.7844 261.047 78.302 259.91 80.9896 259.569C83.6771 259.228 86.4139 259.698 88.8538 260.919C91.2936 262.141 93.327 264.059 94.6968 266.432C95.6064 268.007 96.2008 269.744 96.4461 271.543C96.6914 273.342 96.5828 275.168 96.1266 276.916C95.6703 278.665 94.8753 280.302 93.787 281.734C92.6986 283.167 91.3382 284.366 89.7835 285.263Z" fill="#F00946"/>
<path d="M44.4287 287.577C54.4087 281.815 57.7662 268.947 51.928 258.835C46.0898 248.723 33.2665 245.196 23.2865 250.958C13.3065 256.72 9.94889 269.588 15.7871 279.701C21.6254 289.813 34.4487 293.339 44.4287 287.577Z" fill="white"/>
<path d="M18.5477 242.75C11.7721 246.662 6.84847 253.141 4.86011 260.762C2.87176 268.382 3.98155 276.521 7.94529 283.386C16.1993 297.682 68.8514 329.879 68.8514 329.879C68.8514 329.879 67.2948 268.182 59.0408 253.886C55.077 247.021 48.5841 241.99 40.9901 239.902C33.3962 237.814 25.3234 238.838 18.5477 242.75ZM40.7835 281.263C38.4419 282.615 35.7467 283.233 33.0387 283.039C30.3307 282.845 27.7316 281.848 25.5699 280.173C23.4083 278.498 21.7813 276.222 20.8947 273.631C20.008 271.04 19.9015 268.252 20.5886 265.618C21.2758 262.985 22.7257 260.624 24.7551 258.835C26.7844 257.047 29.302 255.91 31.9896 255.569C34.6771 255.228 37.4139 255.698 39.8538 256.919C42.2936 258.141 44.327 260.059 45.6968 262.432C46.6064 264.007 47.2008 265.744 47.4461 267.543C47.6914 269.342 47.5828 271.168 47.1266 272.916C46.6703 274.665 45.8753 276.302 44.787 277.734C43.6986 279.167 42.3382 280.366 40.7835 281.263Z" fill="#276AFB"/>
<path d="M831.728 356.079C811.71 372.383 793.346 390.619 776.901 410.521C751.165 441.562 730.34 476.364 715.149 513.715C714.037 516.44 718.462 517.626 719.562 514.932C744.416 454.228 784.092 400.724 834.963 359.314C837.248 357.454 833.993 354.234 831.728 356.079Z" fill="white"/>
<path d="M280.067 511.699C295.366 498.772 304.658 478.351 302.221 458.471C299.784 438.591 284.69 420.315 265.112 416.094C245.533 411.872 223.214 423.558 217.267 442.684C213.995 405.81 210.223 367.392 190.619 335.991C172.868 307.558 142.122 287.213 108.801 283.573C75.4801 279.933 40.3972 293.68 19.6161 319.98C-1.1651 346.28 -6.25327 384.515 8.30131 414.709C19.0232 436.952 38.7766 453.506 59.4733 466.973C125.503 509.939 207.412 527.858 285.351 516.388" fill="#F2F2F2"/>
<path d="M52.5666 294.442C80.0607 316.836 105.284 341.883 127.87 369.219C150.461 396.527 170.349 425.961 187.257 457.109C196.707 474.582 205.196 492.557 212.687 510.956C214.214 514.698 208.137 516.327 206.627 512.626C193.359 480.191 176.944 449.133 157.618 419.899C138.385 390.772 116.372 363.578 91.8889 338.701C78.0409 324.637 63.4301 311.346 48.1226 298.886C44.985 296.331 49.455 291.908 52.5666 294.442L52.5666 294.442Z" fill="white"/>
<path d="M624.5 519H259.5V144.5C259.5 64.8223 324.322 0 404 0H480C559.678 0 624.5 64.8223 624.5 144.5V519Z" fill="#F2F2F2"/>
<path d="M554.38 97.8703C561.788 106.698 575.044 107.77 583.988 100.265C592.933 92.7591 594.179 79.5183 586.772 70.6905C579.364 61.8626 566.108 60.7906 557.164 68.2961C548.219 75.8016 546.973 89.0425 554.38 97.8703Z" fill="white"/>
<path d="M594.032 64.5983C589.003 58.6049 581.767 54.8811 573.917 54.2463C566.067 53.6115 558.245 56.1176 552.172 61.2133C539.526 71.8245 516.962 129.267 516.962 129.267C516.962 129.267 577.451 117.021 590.097 106.41C596.17 101.314 599.996 94.0464 600.734 86.2052C601.472 78.364 599.061 70.5918 594.032 64.5983ZM559.965 93.184C558.227 91.1127 557.15 88.5658 556.871 85.8652C556.592 83.1647 557.123 80.4318 558.397 78.0123C559.671 75.5927 561.63 73.5951 564.028 72.272C566.425 70.9489 569.153 70.3598 571.866 70.5792C574.579 70.7986 577.155 71.8166 579.269 73.5045C581.383 75.1924 582.94 77.4744 583.742 80.0619C584.545 82.6494 584.557 85.4262 583.778 88.0411C582.998 90.656 581.462 92.9917 579.364 94.7527C577.97 95.9219 576.363 96.8089 574.634 97.3629C572.905 97.9168 571.088 98.127 569.287 97.9813C567.485 97.8356 565.735 97.337 564.136 96.5139C562.536 95.6907 561.119 94.5592 559.965 93.184Z" fill="#F00946"/>
<path d="M555.97 60.5773C565.95 66.3392 578.774 62.8127 584.612 52.7006C590.45 42.5884 587.092 29.7199 577.112 23.958C567.132 18.196 554.309 21.7225 548.471 31.8346C542.633 41.9468 545.99 54.8153 555.97 60.5773Z" fill="white"/>
<path d="M581.851 15.75C575.076 11.8381 567.003 10.8136 559.409 12.902C551.815 14.9904 545.322 20.0206 541.358 26.886C533.104 41.1824 531.548 102.879 531.548 102.879C531.548 102.879 584.2 70.6824 592.454 56.386C596.418 49.5206 597.527 41.3824 595.539 33.7617C593.551 26.1409 588.627 19.6619 581.851 15.75ZM559.616 54.2634C557.274 52.9115 555.391 50.8863 554.205 48.4441C553.02 46.0019 552.584 43.2523 552.953 40.5429C553.323 37.8336 554.481 35.2863 556.281 33.223C558.081 31.1598 560.443 29.6733 563.067 28.9516C565.692 28.2299 568.461 28.3053 571.025 29.1684C573.589 30.0314 575.832 31.6434 577.471 33.8003C579.11 35.9573 580.072 38.5624 580.233 41.2862C580.395 44.01 579.751 46.7302 578.381 49.1028C577.471 50.6781 576.265 52.0613 574.829 53.1732C573.394 54.2851 571.758 55.104 570.016 55.5832C568.273 56.0624 566.458 56.1925 564.674 55.966C562.889 55.7396 561.171 55.161 559.616 54.2634Z" fill="#1C2237"/>
<path d="M533.38 187.87C540.788 196.698 554.044 197.77 562.988 190.265C571.933 182.759 573.179 169.518 565.772 160.69C558.364 151.863 545.108 150.791 536.164 158.296C527.219 165.802 525.973 179.042 533.38 187.87Z" fill="white"/>
<path d="M573.032 154.598C568.003 148.605 560.767 144.881 552.917 144.246C545.067 143.611 537.245 146.118 531.172 151.213C518.526 161.824 495.962 219.267 495.962 219.267C495.962 219.267 556.451 207.021 569.097 196.41C575.17 191.314 578.996 184.046 579.734 176.205C580.472 168.364 578.061 160.592 573.032 154.598ZM538.965 183.184C537.227 181.113 536.15 178.566 535.871 175.865C535.592 173.165 536.123 170.432 537.397 168.012C538.671 165.593 540.63 163.595 543.028 162.272C545.425 160.949 548.153 160.36 550.866 160.579C553.579 160.799 556.155 161.817 558.269 163.505C560.383 165.192 561.94 167.474 562.742 170.062C563.545 172.649 563.557 175.426 562.778 178.041C561.998 180.656 560.462 182.992 558.364 184.753C556.97 185.922 555.363 186.809 553.634 187.363C551.905 187.917 550.088 188.127 548.287 187.981C546.485 187.836 544.735 187.337 543.136 186.514C541.536 185.691 540.119 184.559 538.965 183.184Z" fill="#6C63FF"/>
<path d="M568.398 141.461C576.547 149.61 589.846 149.522 598.103 141.266C606.359 133.009 606.447 119.71 598.298 111.561C590.149 103.413 576.85 103.5 568.594 111.757C560.337 120.013 560.25 133.312 568.398 141.461Z" fill="white"/>
<path d="M605 104.86C599.467 99.3273 591.935 96.2484 584.059 96.3002C576.184 96.352 568.61 99.5303 563.004 105.136C551.331 116.809 533.86 176 533.86 176C533.86 176 593.051 158.528 604.724 146.855C610.329 141.25 613.507 133.676 613.559 125.8C613.611 117.925 610.532 110.392 605 104.86ZM573.554 136.306C571.642 134.394 570.347 131.95 569.834 129.284C569.321 126.618 569.611 123.85 570.669 121.328C571.727 118.807 573.505 116.646 575.778 115.119C578.051 113.592 580.717 112.768 583.439 112.75C586.161 112.732 588.816 113.521 591.069 115.019C593.322 116.516 595.072 118.653 596.097 121.161C597.122 123.669 597.376 126.434 596.828 129.107C596.279 131.78 594.952 134.241 593.015 136.178C591.729 137.464 590.205 138.488 588.531 139.19C586.857 139.893 585.065 140.26 583.258 140.272C581.451 140.284 579.664 139.94 577.999 139.259C576.334 138.579 574.823 137.575 573.554 136.306Z" fill="#276AFB"/>
<path d="M541.38 465.87C548.788 474.698 562.044 475.77 570.988 468.265C579.933 460.759 581.179 447.518 573.772 438.69C566.364 429.863 553.108 428.791 544.164 436.296C535.219 443.802 533.973 457.042 541.38 465.87Z" fill="white"/>
<path d="M581.032 432.598C576.003 426.605 568.767 422.881 560.917 422.246C553.067 421.611 545.245 424.118 539.172 429.213C526.526 439.824 503.962 497.267 503.962 497.267C503.962 497.267 564.451 485.021 577.097 474.41C583.17 469.314 586.996 462.046 587.734 454.205C588.472 446.364 586.061 438.592 581.032 432.598ZM546.965 461.184C545.227 459.113 544.15 456.566 543.871 453.865C543.592 451.165 544.123 448.432 545.397 446.012C546.671 443.593 548.63 441.595 551.028 440.272C553.425 438.949 556.153 438.36 558.866 438.579C561.579 438.799 564.155 439.817 566.269 441.505C568.383 443.192 569.94 445.474 570.742 448.062C571.545 450.649 571.557 453.426 570.778 456.041C569.998 458.656 568.462 460.992 566.364 462.753C564.97 463.922 563.363 464.809 561.634 465.363C559.905 465.917 558.088 466.127 556.287 465.981C554.485 465.836 552.735 465.337 551.136 464.514C549.536 463.691 548.119 462.559 546.965 461.184Z" fill="#F00946"/>
<path d="M474.97 47.5773C484.95 53.3392 497.774 49.8127 503.612 39.7006C509.45 29.5884 506.092 16.7199 496.112 10.958C486.132 5.19601 473.309 8.72249 467.471 18.8346C461.633 28.9468 464.99 41.8153 474.97 47.5773Z" fill="white"/>
<path d="M500.851 2.75C494.076 -1.16195 486.003 -2.1864 478.409 -0.0980029C470.815 1.9904 464.322 7.0206 460.358 13.886C452.104 28.1824 450.548 89.8785 450.548 89.8785C450.548 89.8785 503.2 57.6824 511.454 43.386C515.418 36.5206 516.527 28.3824 514.539 20.7617C512.551 13.1409 507.627 6.66195 500.851 2.75ZM478.616 41.2634C476.274 39.9115 474.391 37.8863 473.205 35.4441C472.02 33.0019 471.584 30.2523 471.953 27.5429C472.323 24.8336 473.481 22.2863 475.281 20.223C477.081 18.1598 479.443 16.6733 482.067 15.9516C484.692 15.2299 487.461 15.3053 490.025 16.1684C492.589 17.0314 494.832 18.6434 496.471 20.8003C498.11 22.9573 499.072 25.5624 499.233 28.2862C499.395 31.01 498.751 33.7302 497.381 36.1028C496.471 37.6781 495.265 39.0613 493.829 40.1732C492.394 41.2851 490.758 42.104 489.016 42.5832C487.273 43.0624 485.458 43.1925 483.674 42.966C481.889 42.7396 480.171 42.161 478.616 41.2634Z" fill="#276AFB"/>
<path d="M514.398 68.461C522.547 76.6096 535.846 76.5221 544.103 68.2656C552.359 60.0091 552.447 46.7101 544.298 38.5614C536.149 30.4128 522.85 30.5002 514.594 38.7567C506.337 47.0133 506.25 60.3123 514.398 68.461Z" fill="white"/>
<path d="M551 31.8596C545.467 26.3273 537.935 23.2484 530.059 23.3002C522.184 23.352 514.61 26.5303 509.004 32.1358C497.331 43.8088 479.86 103 479.86 103C479.86 103 539.051 85.5281 550.724 73.8551C556.329 68.2496 559.507 60.6759 559.559 52.8002C559.611 44.9245 556.532 37.392 551 31.8596ZM519.554 63.3057C517.642 61.3938 516.347 58.9504 515.834 56.2844C515.321 53.6185 515.611 50.8498 516.669 48.3284C517.727 45.807 519.505 43.6462 521.778 42.1192C524.051 40.5922 526.717 39.7676 529.439 39.7497C532.161 39.7318 534.816 40.5214 537.069 42.0187C539.322 43.5159 541.072 45.6535 542.097 48.1612C543.122 50.6689 543.376 53.434 542.828 56.107C542.279 58.7799 540.952 61.2405 539.015 63.1777C537.729 64.464 536.205 65.4876 534.531 66.1902C532.857 66.8927 531.065 67.2604 529.258 67.2723C527.451 67.2842 525.664 66.94 523.999 66.2594C522.334 65.5788 520.823 64.5751 519.554 63.3057Z" fill="#F00946"/>
<path d="M511.398 148.461C519.547 156.61 532.846 156.522 541.103 148.266C549.359 140.009 549.447 126.71 541.298 118.561C533.149 110.413 519.85 110.5 511.594 118.757C503.337 127.013 503.25 140.312 511.398 148.461Z" fill="white"/>
<path d="M548 111.86C542.467 106.327 534.935 103.248 527.059 103.3C519.184 103.352 511.61 106.53 506.004 112.136C494.331 123.809 476.86 183 476.86 183C476.86 183 536.051 165.528 547.724 153.855C553.329 148.25 556.507 140.676 556.559 132.8C556.611 124.925 553.532 117.392 548 111.86ZM516.554 143.306C514.642 141.394 513.347 138.95 512.834 136.284C512.321 133.618 512.611 130.85 513.669 128.328C514.727 125.807 516.505 123.646 518.778 122.119C521.051 120.592 523.717 119.768 526.439 119.75C529.161 119.732 531.816 120.521 534.069 122.019C536.322 123.516 538.072 125.653 539.097 128.161C540.122 130.669 540.376 133.434 539.828 136.107C539.279 138.78 537.952 141.241 536.015 143.178C534.729 144.464 533.205 145.488 531.531 146.19C529.857 146.893 528.065 147.26 526.258 147.272C524.451 147.284 522.664 146.94 520.999 146.259C519.334 145.579 517.823 144.575 516.554 143.306Z" fill="#1C2237"/>
<path d="M548.5 519H259.5V144.5C259.42 113.969 269.088 84.2103 287.096 59.5557C287.76 58.6509 288.422 57.7578 289.104 56.8745C297.815 45.4506 308.18 35.3897 319.859 27.0239C320.518 26.5439 321.181 26.0723 321.853 25.6006C331.625 18.838 342.196 13.3097 353.325 9.1416C353.986 8.89111 354.659 8.64013 355.332 8.3994C365.397 4.80747 375.83 2.34703 386.44 1.06348C387.098 0.973628 387.773 0.903319 388.448 0.833009C398.787 -0.272461 409.215 -0.272461 419.554 0.833009C420.227 0.903319 420.902 0.973619 421.568 1.06444C432.175 2.34807 442.606 4.80822 452.668 8.39945C453.341 8.64018 454.014 8.89114 454.677 9.14212C465.669 13.2577 476.115 18.7035 485.783 25.3579C486.455 25.8194 487.127 26.2911 487.79 26.7627C494.336 31.4355 500.485 36.6412 506.173 42.3267C510.735 46.8871 514.986 51.7483 518.898 56.8775C519.578 57.7579 520.24 58.6509 520.903 59.5543C538.911 84.2091 548.58 113.969 548.5 144.5V519Z" fill="#CCCCCC"/>
<path d="M525 351.5C533.837 351.5 541 344.337 541 335.5C541 326.663 533.837 319.5 525 319.5C516.163 319.5 509 326.663 509 335.5C509 344.337 516.163 351.5 525 351.5Z" fill="#6C63FF"/>
<path d="M594.599 507.783H582.339L576.506 460.495L594.601 460.496L594.599 507.783Z" fill="#FFB8B8"/>
<path d="M573.582 504.28H597.226V519.167H558.695C558.695 517.212 559.08 515.276 559.828 513.47C560.576 511.664 561.673 510.022 563.055 508.64C564.437 507.258 566.079 506.161 567.885 505.413C569.691 504.665 571.627 504.28 573.582 504.28V504.28Z" fill="#2F2E41"/>
<path d="M655.599 507.783H643.339L637.506 460.495L655.601 460.496L655.599 507.783Z" fill="#FFB8B8"/>
<path d="M634.582 504.28H658.226V519.167H619.695C619.695 517.212 620.08 515.276 620.828 513.47C621.576 511.664 622.673 510.022 624.055 508.64C625.437 507.258 627.079 506.161 628.885 505.413C630.691 504.665 632.627 504.28 634.582 504.28V504.28Z" fill="#2F2E41"/>
<path d="M533.098 338.67C532.216 337.37 531.629 335.893 531.38 334.343C531.131 332.792 531.224 331.206 531.654 329.695C532.084 328.185 532.84 326.787 533.869 325.6C534.898 324.413 536.174 323.467 537.608 322.827L579.284 207.96L599.791 219.151L552.206 328.922C553.122 331.403 553.096 334.133 552.133 336.595C551.17 339.058 549.337 341.082 546.982 342.283C544.626 343.485 541.912 343.781 539.353 343.115C536.794 342.449 534.568 340.867 533.098 338.67V338.67Z" fill="#FFB8B8"/>
<path d="M649.336 360.254C647.974 359.472 646.799 358.402 645.895 357.118C644.991 355.834 644.38 354.367 644.104 352.821C643.828 351.275 643.895 349.687 644.299 348.169C644.703 346.652 645.435 345.241 646.443 344.037L633.533 222.528L656.87 223.594L662.236 343.114C664.147 344.942 665.32 347.408 665.535 350.043C665.749 352.678 664.989 355.301 663.399 357.414C661.809 359.526 659.499 360.982 656.907 361.506C654.316 362.029 651.622 361.584 649.336 360.254V360.254Z" fill="#FFB8B8"/>
<path d="M612.106 186.684C625.671 186.684 636.667 175.687 636.667 162.123C636.667 148.558 625.671 137.562 612.106 137.562C598.541 137.562 587.545 148.558 587.545 162.123C587.545 175.687 598.541 186.684 612.106 186.684Z" fill="#FFB8B8"/>
<path d="M649.18 332.619H575.133L575.222 332.043C575.355 331.181 588.419 245.604 578.784 217.607C577.817 214.855 577.902 211.844 579.022 209.151C580.143 206.459 582.22 204.276 584.853 203.023H584.853C598.625 196.538 625.061 188.552 647.373 207.932C650.657 210.831 653.221 214.454 654.862 218.515C656.504 222.575 657.179 226.962 656.833 231.328L649.18 332.619Z" fill="#276AFB"/>
<path d="M589.354 258.25L556.018 251.487L571.644 214.457C572.579 210.871 574.898 207.802 578.093 205.923C581.288 204.044 585.098 203.51 588.687 204.436C592.276 205.363 595.351 207.675 597.237 210.865C599.123 214.056 599.667 217.864 598.75 221.455L589.354 258.25Z" fill="#276AFB"/>
<path d="M632.05 270.808L630.046 224.867C628.526 216.23 633.47 208.066 641.073 206.732C648.679 205.402 656.105 211.392 657.632 220.092L665.165 263.02L632.05 270.808Z" fill="#276AFB"/>
<path d="M646.716 327.119C658.63 372.495 659.93 430.188 656.716 493.119L640.716 491.119L611.716 371.119L595.716 493.119L577.716 492.119C572.338 426.089 567.103 369.403 575.716 332.119L646.716 327.119Z" fill="#2F2E41"/>
<path d="M628.289 181.104C623.707 185.985 615.198 183.365 614.601 176.697C614.554 176.179 614.557 175.658 614.611 175.141C614.919 172.188 616.625 169.506 616.217 166.388C616.124 165.611 615.835 164.872 615.377 164.239C611.725 159.349 603.154 166.426 599.708 161.999C597.595 159.285 600.079 155.012 598.458 151.979C596.318 147.975 589.979 149.95 586.004 147.758C581.581 145.318 581.846 138.532 584.757 134.405C588.307 129.371 594.533 126.685 600.68 126.298C606.828 125.911 612.933 127.573 618.673 129.81C625.194 132.351 631.66 135.863 635.673 141.597C640.553 148.571 641.023 157.945 638.582 166.099C637.098 171.059 632.031 177.118 628.289 181.104Z" fill="#2F2E41"/>
<path d="M839.982 519.643H101.688C101.373 519.643 101.071 519.517 100.848 519.293C100.625 519.07 100.5 518.768 100.5 518.453C100.5 518.138 100.625 517.835 100.848 517.612C101.071 517.389 101.373 517.263 101.688 517.262H839.982C840.297 517.263 840.599 517.389 840.821 517.612C841.044 517.835 841.169 518.138 841.169 518.453C841.169 518.768 841.044 519.07 840.821 519.293C840.599 519.517 840.297 519.643 839.982 519.643V519.643Z" fill="#3F3D56"/>
<path d="M469 410.5H339C337.288 410.509 335.642 409.839 334.424 408.636C333.205 407.434 332.513 405.797 332.5 404.085V113.915C332.513 112.203 333.205 110.566 334.424 109.364C335.642 108.161 337.288 107.491 339 107.5H469C470.712 107.491 472.358 108.161 473.576 109.364C474.795 110.566 475.487 112.203 475.5 113.915V404.085C475.487 405.797 474.795 407.434 473.576 408.636C472.358 409.839 470.712 410.509 469 410.5V410.5Z" fill="white"/>
<path d="M401.417 410.364C412.829 408.76 420.762 398.086 419.137 386.524C417.512 374.961 406.944 366.887 395.532 368.491C384.12 370.095 376.187 380.769 377.812 392.331C379.437 403.894 390.005 411.968 401.417 410.364Z" fill="white"/>
<path d="M394.213 359.106C386.465 360.194 379.473 364.357 374.775 370.678C370.076 376.999 368.057 384.961 369.16 392.811C371.457 409.158 408.215 458.734 408.215 458.734C408.215 458.734 429.883 400.947 427.586 384.6C426.482 376.749 422.347 369.653 416.088 364.872C409.829 360.091 401.961 358.017 394.213 359.106ZM400.402 403.144C397.725 403.52 394.994 403.084 392.556 401.889C390.118 400.695 388.082 398.797 386.705 396.434C385.328 394.072 384.672 391.351 384.821 388.617C384.969 385.883 385.915 383.258 387.539 381.073C389.162 378.889 391.391 377.243 393.943 376.345C396.494 375.447 399.254 375.336 401.874 376.026C404.494 376.717 406.855 378.178 408.66 380.225C410.464 382.271 411.631 384.812 412.012 387.525C412.265 389.326 412.166 391.159 411.719 392.919C411.273 394.679 410.488 396.331 409.41 397.781C408.332 399.232 406.982 400.452 405.436 401.372C403.89 402.292 402.18 402.894 400.402 403.144Z" fill="#F00946" fill-opacity="0.7"/>
<path d="M375.011 352.764C386.283 355.16 397.389 347.844 399.816 336.422C402.244 325.001 395.074 313.8 383.802 311.404C372.53 309.008 361.424 316.325 358.996 327.746C356.569 339.167 363.739 350.368 375.011 352.764Z" fill="white"/>
<path d="M385.773 302.133C378.12 300.507 370.126 302.027 363.549 306.36C356.972 310.693 352.351 317.483 350.703 325.237C347.271 341.385 364.855 400.542 364.855 400.542C364.855 400.542 404.981 353.652 408.414 337.504C410.062 329.75 408.602 321.667 404.356 315.034C400.11 308.4 393.426 303.76 385.773 302.133ZM376.527 345.633C373.882 345.071 371.466 343.727 369.583 341.77C367.7 339.814 366.436 337.334 365.95 334.643C365.465 331.952 365.779 329.171 366.853 326.653C367.928 324.134 369.715 321.991 371.988 320.493C374.261 318.996 376.918 318.212 379.623 318.241C382.328 318.269 384.959 319.109 387.185 320.654C389.41 322.199 391.129 324.379 392.125 326.92C393.121 329.46 393.348 332.246 392.779 334.926C392.401 336.705 391.68 338.394 390.659 339.895C389.637 341.396 388.335 342.68 386.826 343.674C385.317 344.669 383.63 345.353 381.863 345.689C380.096 346.025 378.283 346.006 376.527 345.633Z" fill="#276AFB"/>
<path d="M353.417 403.364C364.829 401.76 372.762 391.086 371.137 379.524C369.512 367.961 358.944 359.887 347.532 361.491C336.12 363.095 328.187 373.769 329.812 385.331C331.437 396.894 342.005 404.968 353.417 403.364Z" fill="white"/>
<path d="M346.213 352.106C338.465 353.194 331.473 357.357 326.775 363.678C322.076 369.999 320.057 377.961 321.16 385.811C323.457 402.158 360.215 451.734 360.215 451.734C360.215 451.734 381.883 393.947 379.586 377.6C378.482 369.749 374.347 362.653 368.088 357.872C361.829 353.091 353.961 351.017 346.213 352.106ZM352.402 396.144C349.725 396.52 346.994 396.084 344.556 394.889C342.118 393.695 340.082 391.797 338.705 389.434C337.328 387.072 336.672 384.351 336.821 381.617C336.969 378.883 337.915 376.258 339.539 374.073C341.162 371.889 343.391 370.243 345.943 369.345C348.494 368.447 351.254 368.336 353.874 369.026C356.494 369.717 358.855 371.178 360.66 373.225C362.464 375.271 363.631 377.812 364.012 380.525C364.265 382.326 364.166 384.159 363.719 385.919C363.273 387.679 362.488 389.331 361.41 390.781C360.332 392.232 358.982 393.452 357.436 394.372C355.89 395.292 354.18 395.894 352.402 396.144Z" fill="#1C2237"/>
<path d="M475.5 201.39H332.5V203.39H475.5V201.39Z" fill="#CCCCCC"/>
<path d="M476 315.5H333V317.5H476V315.5Z" fill="#CCCCCC"/>
<path d="M379.5 107.5H377.5V411.5H379.5V107.5Z" fill="#CCCCCC"/>
<path d="M429.5 107.5H427.5V411.5H429.5V107.5Z" fill="#CCCCCC"/>
<rect x="295" y="410" width="152" height="75" fill="#CCCCCC"/>
<rect x="281" y="217" width="52" height="195" fill="#CCCCCC"/>
<rect x="476" y="116" width="52" height="195" fill="#CCCCCC"/>
</g>
<defs>
<clipPath id="clip0">
<rect width="870" height="520.139" fill="white"/>
</clipPath>
</defs>
</svg>
