<svg width="888" height="638" viewBox="0 0 888 638" fill="none" xmlns="http://www.w3.org/2000/svg">
<g clip-path="url(#clip0)">
<path d="M174.023 107.128C191.142 107.128 205.02 93.25 205.02 76.131C205.02 59.012 191.142 45.1343 174.023 45.1343C156.904 45.1343 143.026 59.012 143.026 76.131C143.026 93.25 156.904 107.128 174.023 107.128Z" fill="#2F2E41"/>
<path d="M79.6147 449.308L98.6585 383.262L105.142 385.288C105.142 385.288 97.443 434.721 85.2874 447.282L79.6147 449.308Z" fill="#2F2E41"/>
<path d="M152.143 94.7697C152.143 94.7697 154.574 120.702 148.902 127.995C143.229 135.288 152.548 149.47 152.548 149.47L169.566 169.729L194.688 158.384L198.334 137.314L195.903 122.728C195.903 122.728 187.394 114.219 191.041 98.8216C194.688 83.4245 152.143 94.7697 152.143 94.7697Z" fill="#FFB9B9"/>
<path opacity="0.1" d="M152.143 94.7697C152.143 94.7697 154.574 120.702 148.902 127.995C143.229 135.288 152.548 149.47 152.548 149.47L169.566 169.729L194.688 158.384L198.334 137.314L195.903 122.728C195.903 122.728 187.394 114.219 191.041 98.8216C194.688 83.4245 152.143 94.7697 152.143 94.7697Z" fill="black"/>
<path d="M166.73 579.778V596.39L189.015 600.847L186.989 573.295L166.73 579.778Z" fill="#FFB9B9"/>
<path d="M233.586 573.295L228.723 596.39L238.448 603.278L255.466 590.718L253.44 570.863L233.586 573.295Z" fill="#FFB9B9"/>
<path d="M191.041 598.821C191.041 598.821 182.532 584.439 166.73 593.453C166.73 593.453 163.894 609.356 161.057 610.572C158.221 611.787 142.419 634.883 161.057 636.909C179.696 638.935 189.015 632.857 189.015 632.857C189.015 632.857 185.368 635.995 191.041 634.374C196.714 632.753 194.282 623.839 194.282 623.839L191.041 598.821Z" fill="#2F2E41"/>
<path d="M246.552 589.097C246.552 589.097 233.991 598.011 231.965 593.959C229.939 589.907 226.697 590.312 226.697 590.312C226.697 590.312 215.352 633.081 222.646 635.106C227.342 636.263 232.275 636.008 236.827 634.374C236.827 634.374 246.552 627.564 246.552 632.831C246.552 638.098 273.699 637.719 285.044 637.314C296.389 636.909 290.312 628.4 290.312 628.4L275.32 613.813L258.302 589.097C258.302 589.097 250.603 582.209 246.552 589.097Z" fill="#2F2E41"/>
<path d="M127.021 318.027L144.039 481.317C144.039 481.317 153.359 580.993 154.979 582.614C156.6 584.235 167.135 589.502 190.231 582.614L184.963 452.144L194.688 371.107L216.973 427.022C216.973 427.022 222.24 577.346 225.887 577.346C229.534 577.346 251.819 584.64 257.086 575.726C262.354 566.812 261.543 470.782 261.543 470.782C261.543 470.782 259.112 319.243 241.284 314.381C223.456 309.518 127.021 318.027 127.021 318.027Z" fill="#2F2E41"/>
<path d="M174.023 109.762C189.464 109.762 201.981 97.2445 201.981 81.8038C201.981 66.3631 189.464 53.8459 174.023 53.8459C158.582 53.8459 146.065 66.3631 146.065 81.8038C146.065 97.2445 158.582 109.762 174.023 109.762Z" fill="#FFB9B9"/>
<path d="M175.644 159.599C175.644 159.599 172.808 142.176 172.808 138.935C172.808 135.693 160.247 133.667 160.247 133.667C160.247 133.667 150.522 122.728 148.496 124.348C146.47 125.969 115.676 146.633 110.814 149.47C105.952 152.306 100.684 164.462 101.09 165.272C101.495 166.082 126.616 218.757 126.616 218.757C126.616 218.757 137.556 251.171 129.858 268.189C122.159 285.207 112.435 318.838 126.616 325.726C140.798 332.614 209.68 347.606 222.24 334.64C234.801 321.674 243.715 318.027 246.957 318.027C250.198 318.027 233.585 261.706 237.232 256.439C240.879 251.171 235.611 218.351 235.611 218.351L254.25 166.082C254.25 166.082 252.629 136.909 215.757 130.426L193.699 119.731L175.644 159.599Z" fill="#276AFB"/>
<path d="M99.8741 325.321C99.8741 325.321 97.8482 344.77 97.8482 350.442C97.8482 356.115 88.1237 389.34 102.305 393.392C116.487 397.444 115.271 349.227 115.271 349.227V324.51L99.8741 325.321Z" fill="#FFB9B9"/>
<path d="M268.026 307.087C268.026 307.087 270.458 325.726 269.242 329.778C268.026 333.829 280.992 369.081 263.569 371.107C246.146 373.133 250.603 328.967 250.603 328.967V307.087L268.026 307.087Z" fill="#FFB9B9"/>
<path d="M96.2274 442.825L107.978 380.426H111.624C114.174 383.713 115.847 387.594 116.484 391.705C117.122 395.816 116.705 400.022 115.271 403.927C110.409 417.703 106.357 442.825 106.357 442.825H96.2274Z" fill="#2F2E41"/>
<path d="M107.167 160.41L101.09 165.272C101.09 165.272 92.9859 294.121 95.0119 303.846C97.0378 313.57 87.7185 327.347 95.8223 328.562C103.926 329.778 113.65 335.045 118.108 331.804C122.565 328.562 123.375 316.812 124.996 313.975C126.616 311.139 129.453 277.509 129.453 277.509C129.453 277.509 137.962 243.878 132.694 218.757C127.427 193.635 122.565 168.108 122.565 168.108L107.167 160.41Z" fill="#276AFB"/>
<path d="M235.611 150.28L254.25 166.083L268.431 248.741C268.431 248.741 277.346 313.165 270.457 313.976C263.569 314.786 253.034 312.76 248.577 313.976C244.12 315.191 240.474 311.95 240.474 311.95C240.474 311.95 235.611 286.018 235.611 285.612C235.611 285.207 232.37 255.629 232.37 255.629L228.318 222.403L234.396 185.937L235.611 150.28Z" fill="#276AFB"/>
<path d="M147.686 532.776C147.686 532.776 145.052 540.341 141.422 550.641C139.736 555.43 137.836 560.815 135.879 566.305C134.619 569.855 133.338 573.449 132.078 576.958C130.069 582.569 128.116 587.958 126.41 592.586C124.157 598.692 122.33 603.477 121.349 605.71C116.892 615.839 35.4495 599.632 28.9665 595.58C22.4835 591.528 20.8628 577.752 20.0524 558.303C20.0484 558.201 20.0443 558.1 20.0443 557.999C19.939 554.073 20.9398 548.226 22.6132 541.366C23.4479 537.938 24.4527 534.259 25.5711 530.438C27.0703 525.312 28.7721 519.94 30.5508 514.591C38.1926 491.617 47.1999 469.162 47.1999 469.162C47.1999 469.162 63.0022 458.222 68.6748 450.928C74.3474 443.635 105.547 437.962 105.547 437.962C114.461 438.368 134.72 472.808 142.824 483.343C150.928 493.878 147.686 532.776 147.686 532.776Z" fill="#3F3D56"/>
<path d="M102.305 471.188C104.319 471.188 105.952 469.555 105.952 467.541C105.952 465.527 104.319 463.894 102.305 463.894C100.291 463.894 98.6586 465.527 98.6586 467.541C98.6586 469.555 100.291 471.188 102.305 471.188Z" fill="#2F2E41"/>
<path d="M107.978 473.619C109.097 473.619 110.004 472.712 110.004 471.593C110.004 470.474 109.097 469.567 107.978 469.567C106.859 469.567 105.952 470.474 105.952 471.593C105.952 472.712 106.859 473.619 107.978 473.619Z" fill="#2F2E41"/>
<path d="M141.422 550.641C139.736 555.43 137.836 560.815 135.879 566.305L25.571 530.438C27.0703 525.312 28.7721 519.94 30.5508 514.591L141.422 550.641Z" fill="#F2F2F2"/>
<path d="M132.078 576.958C130.069 582.569 128.116 587.958 126.41 592.586L20.0443 557.999C19.939 554.073 20.9398 548.226 22.6132 541.366L132.078 576.958Z" fill="#F2F2F2"/>
<path d="M102.305 468.351C102.305 468.351 110.409 504.008 105.547 535.612C100.684 567.217 117.702 596.795 117.702 596.795" stroke="#2F2E41" stroke-width="3" stroke-miterlimit="10"/>
<path d="M107.978 471.188C107.978 471.188 92.1755 528.724 91.7703 536.828C91.3652 544.932 84.8822 602.873 76.7784 608.951" stroke="#2F2E41" stroke-width="3" stroke-miterlimit="10"/>
<path d="M152.56 64.7433C152.56 64.7433 146.231 48.2893 155.407 42.9102L157.939 50.1879C157.939 50.1879 181.038 36.2653 187.05 39.4295L181.354 47.0237C181.354 47.0237 208.25 47.0237 210.148 57.4657L200.656 57.7821C200.656 57.7821 210.781 64.427 211.098 75.1853L190.847 76.451L200.656 82.1466C200.656 82.1466 163.951 87.2094 155.091 72.654L152.56 64.7433Z" fill="#2F2E41"/>
<path d="M147.078 65.3938C147.078 65.3938 154.372 79.9805 164.096 76.3338C173.821 72.6871 164.096 59.316 164.096 59.316L157.613 56.0745L147.078 65.3938Z" fill="#2F2E41"/>
<path d="M776 295.514L643.75 130.25C637.744 135.742 630.346 139.478 622.361 141.05C597.464 145.953 573.149 128.951 568.053 103.075C566.296 94.5169 566.91 85.6419 569.828 77.4075C572.747 69.1731 577.858 61.892 584.612 56.3501L539.518 0L282.615 219.563L519.097 515.077L776 295.514Z" fill="#F2F2F2"/>
<path d="M611.674 133.198C632.265 133.198 648.958 116.506 648.958 95.9147C648.958 75.3236 632.265 58.6311 611.674 58.6311C591.083 58.6311 574.39 75.3236 574.39 95.9147C574.39 116.506 591.083 133.198 611.674 133.198Z" fill="#F2F2F2"/>
<path d="M378.385 262.044L366.977 275.246L405.41 308.455L416.818 295.253L378.385 262.044Z" fill="#276AFB"/>
<path d="M625.446 498.145L614.038 511.347L648.105 540.783L659.513 527.581L625.446 498.145Z" fill="#276AFB"/>
<path d="M687 399.81V400.834C686.977 403.405 686.903 405.964 686.779 408.511C684.561 452.107 665.754 493.204 634.211 523.38C602.669 553.556 560.779 570.526 517.128 570.811C473.476 571.097 431.369 554.677 399.434 524.916C367.499 495.155 348.156 454.308 345.368 410.744C345.136 407.127 345.019 403.482 345.019 399.81C344.958 364.395 355.949 329.844 376.461 300.973C378.101 298.647 379.807 296.363 381.579 294.122C382.8 292.563 384.056 291.04 385.324 289.527C414.189 255.332 455.306 233.812 499.855 229.585C544.404 225.357 588.836 238.759 623.617 266.915C625.676 268.578 627.7 270.3 629.677 272.056C631.259 273.464 632.814 274.902 634.342 276.372C664.429 305.151 682.947 343.943 686.407 385.433C686.802 390.179 687 394.971 687 399.81Z" fill="#1C2237"/>
<path d="M516.01 592.32C409.86 592.32 323.5 505.96 323.5 399.81C323.437 351.244 341.793 304.461 374.866 268.895L379.129 272.852C347.056 307.342 329.255 352.712 329.316 399.81C329.316 502.754 413.066 586.504 516.01 586.504C541.022 586.589 565.793 581.606 588.827 571.857C611.862 562.108 632.683 547.794 650.035 529.779L654.211 533.827C636.319 552.404 614.849 567.163 591.096 577.216C567.344 587.269 541.802 592.407 516.01 592.32Z" fill="#276AFB"/>
<path d="M543.926 588.249H495.072V637.103H543.926V588.249Z" fill="#276AFB"/>
<path d="M381.579 294.122C381.662 294.157 381.741 294.204 381.811 294.262C382.73 295.018 381.579 296.472 381.718 297.67C381.881 299.205 383.928 299.543 385.475 299.694C387.022 299.857 388.977 301.101 388.244 302.474C384.359 303.812 380.427 302.497 376.46 300.973C355.949 329.844 344.958 364.395 345.019 399.81C345.019 403.486 345.136 407.131 345.368 410.745C345.693 410.982 346.05 411.174 346.427 411.315C347.59 411.757 348.939 411.675 350.009 412.303C350.858 412.803 351.428 413.688 352.278 414.153C354.709 415.479 358.082 412.931 360.35 414.513C360.936 415.047 361.492 415.614 362.014 416.212C364.107 418.026 367.55 416.805 369.97 418.166C371.529 419.038 372.331 420.783 373.169 422.365C375.251 426.32 378.624 430.205 383.079 430.519C384.484 430.454 385.892 430.501 387.29 430.659C388.662 430.973 390.012 432.171 389.791 433.555C389.407 435.939 390.582 438.545 390.268 440.93C389.698 445.292 383.521 447.199 382.998 451.561C382.996 452.521 382.942 453.48 382.835 454.434C382.556 455.574 381.695 456.505 381.392 457.645C380.811 459.797 382.358 461.949 384.045 463.391C385.743 464.845 387.767 466.101 388.697 468.125C389.674 470.277 389.198 472.778 389.512 475.116C390.21 480.223 394.618 484.003 399.155 486.446C400.608 487.053 401.899 487.993 402.923 489.191C404.087 490.877 403.97 493.099 404.366 495.112C405.32 500.032 409.461 504.091 409.577 509.105C409.658 512.676 407.681 515.91 406.494 519.271C405.274 522.795 404.911 526.559 405.436 530.252C412.068 535.877 419.118 540.99 426.525 545.548C426.928 544.953 427.223 544.291 427.397 543.594C427.538 542.823 427.441 542.027 427.119 541.312C426.797 540.598 426.265 539.998 425.594 539.592C426.844 539.12 427.981 538.391 428.932 537.452C429.4 536.971 429.708 536.359 429.816 535.698C429.925 535.036 429.827 534.357 429.537 533.753C431.584 534.009 434.016 534.137 435.365 532.566C436.447 531.31 436.377 529.426 435.947 527.832C435.356 526.283 434.965 524.665 434.783 523.017C439.526 523.248 444.281 523.088 448.998 522.54C448.315 520.239 446.763 518.295 444.671 517.119C446.811 516.759 448.753 514.2 449.428 512.141C450.011 510.04 450.044 507.825 449.521 505.708C449.359 505.164 449.335 504.589 449.451 504.033C449.795 503.296 450.4 502.711 451.15 502.393C454.686 500.357 458.222 498.326 461.758 496.298C462.389 495.98 462.963 495.559 463.456 495.053C464.561 493.739 464.398 491.773 463.828 490.156C463.258 488.539 462.351 487.016 462.13 485.317C461.479 480.234 466.923 476.582 468.76 471.789C469.385 469.876 469.722 467.881 469.761 465.869C469.912 463.705 469.924 461.204 468.272 459.82C466.678 458.482 464.201 458.785 462.537 457.54C461.013 456.4 460.49 454.202 458.827 453.283C457.314 452.445 455.43 452.98 453.744 452.585C450.789 451.899 448.928 448.49 445.903 448.176C444.205 447.99 442.274 448.828 440.878 447.839C439.645 446.955 439.599 445.199 439.366 443.71C438.953 441.391 437.84 439.253 436.177 437.586C434.513 435.918 432.379 434.8 430.061 434.381C428.304 434.102 426.397 434.206 424.896 433.241C423.384 432.264 422.698 430.438 421.5 429.077C419.592 426.901 416.568 426.122 413.741 425.459C409.902 424.563 406.068 423.664 402.237 422.76C400.201 422.272 397.573 422.016 396.468 423.807C396.141 424.489 395.913 425.213 395.793 425.959C395.377 427.302 394.549 428.479 393.425 429.323C392.301 430.166 390.94 430.634 389.535 430.659C388.573 429.016 387.015 427.808 385.185 427.285C383.989 427.085 382.807 426.805 381.648 426.448C381.043 426.151 380.505 425.734 380.066 425.223C379.628 424.711 379.298 424.115 379.098 423.471C378.897 422.828 378.83 422.15 378.901 421.48C378.972 420.81 379.178 420.161 379.508 419.573C380.168 418.393 380.421 417.028 380.23 415.69C380.039 414.351 379.413 413.112 378.45 412.164C376.495 410.407 373.669 409.977 371.04 410.151C370.354 408.651 371.505 406.964 372.738 405.871C373.983 404.789 375.483 403.719 375.751 402.09C376.181 399.531 372.913 397.589 370.435 398.345C367.958 399.113 366.376 401.52 365.329 403.893C364.821 405.293 364.129 406.62 363.27 407.837C362.83 408.439 362.232 408.907 361.542 409.19C360.852 409.474 360.098 409.561 359.361 409.442C357.314 408.918 356.535 406.487 356.081 404.44C355.354 401.704 354.987 398.885 354.988 396.053C355.006 393.194 356.141 390.456 358.152 388.423C361.537 385.305 366.748 385.608 371.319 386.108C370.83 385.455 370.595 384.646 370.659 383.832C370.723 383.018 371.082 382.256 371.668 381.688C372.28 381.145 373.015 380.759 373.81 380.564C374.604 380.37 375.434 380.372 376.228 380.571C377.606 380.857 378.848 381.598 379.752 382.677C381.055 384.259 381.427 386.41 382.405 388.202C383.393 390.005 385.603 391.54 387.406 390.575C388.977 389.737 389.221 387.574 388.837 385.84C388.442 384.119 387.616 382.432 387.755 380.664C388.023 377.303 391.524 375.267 394.606 373.883C397.689 372.499 401.213 370.626 401.702 367.276C401.725 366.624 401.85 365.98 402.074 365.368C402.415 364.822 402.892 364.373 403.458 364.065C412.45 358.121 421.604 352.096 431.887 348.851C432.422 348.676 432.48 348.862 433.027 348.734C433.795 348.292 433.283 347.071 432.55 346.582C431.817 346.094 430.84 345.71 430.654 344.849C430.526 344.221 430.898 343.593 430.991 342.953C431.016 342.567 430.945 342.18 430.785 341.828C430.625 341.475 430.381 341.167 430.075 340.93C429.768 340.694 429.408 340.536 429.027 340.471C428.645 340.406 428.253 340.436 427.886 340.557C427.06 339.464 428.688 338.196 430.014 337.824C433.985 336.736 438.059 336.073 442.17 335.846C442.644 335.768 443.131 335.85 443.554 336.079C443.856 336.37 444.035 336.767 444.055 337.186C444.074 337.606 443.933 338.017 443.659 338.335C443.099 338.957 442.48 339.522 441.809 340.022C441.142 340.67 440.665 341.489 440.431 342.39C440.198 343.29 440.215 344.237 440.483 345.128C442.635 346.222 444.961 347.35 447.346 346.966C449.719 346.582 451.824 343.907 450.708 341.778C449.672 339.789 446.543 339.336 446.008 337.161C445.38 334.613 448.986 332.345 448.172 329.856C447.823 328.762 446.73 328.111 445.892 327.332C444.906 326.361 444.236 325.116 443.968 323.759C443.701 322.402 443.848 320.996 444.391 319.724C443.03 319.962 441.631 319.871 440.312 319.458C438.992 319.045 437.791 318.323 436.807 317.351C434.993 315.525 433.55 312.629 430.968 312.722C428.607 312.792 426.571 315.548 424.361 314.711C423.814 314.501 423.244 314.083 422.721 314.327C422.548 314.438 422.403 314.587 422.296 314.762C422.19 314.937 422.124 315.135 422.105 315.339C421.546 318.026 422.512 321.085 421.046 323.412C419.452 325.936 415.765 326.285 413.834 328.565C412.787 329.798 412.38 331.461 411.415 332.764C410.449 334.066 408.414 334.904 407.25 333.764C407.82 332.596 407.976 331.27 407.693 330.002C407.41 328.734 406.704 327.599 405.692 326.785C404.62 326.082 403.463 325.519 402.249 325.11C400.892 324.537 399.601 323.82 398.399 322.97C397.799 322.605 397.312 322.081 396.991 321.457C396.737 320.673 396.77 319.824 397.084 319.061C397.673 317.381 398.709 315.894 400.08 314.758C401.451 313.623 403.106 312.883 404.866 312.617C406.401 312.408 408.193 312.478 409.216 311.303C409.751 310.686 410.03 309.744 410.821 309.5C411.32 309.396 411.838 309.457 412.299 309.674C414.218 310.349 416.126 311.023 418.045 311.698C418.685 311.992 419.392 312.108 420.092 312.035C420.439 311.991 420.756 311.815 420.979 311.545C421.201 311.275 421.313 310.931 421.29 310.581C421.104 309.628 419.639 309.174 419.778 308.209C419.846 307.893 420.013 307.608 420.255 307.394C422.33 305.188 424.866 303.467 427.684 302.355C430.501 301.243 433.529 300.767 436.551 300.962C437.273 302.16 436.133 303.567 435.167 304.579C434.213 305.603 433.446 307.418 434.609 308.197C435.078 308.443 435.603 308.563 436.133 308.546C437.547 308.736 438.922 309.152 440.204 309.779C442.193 310.64 444.147 311.593 446.055 312.617C445.774 311.37 445.822 310.071 446.194 308.848C446.405 308.248 446.831 307.748 447.39 307.444C447.949 307.141 448.601 307.057 449.219 307.208C450.359 307.65 450.94 309.162 452.162 309.302C453.778 309.488 454.418 307.092 453.744 305.603C453.069 304.114 451.72 302.881 451.615 301.241C451.533 300.148 451.952 298.787 451.08 298.124C450.77 297.918 450.415 297.79 450.045 297.751C442.74 296.414 435.431 295.072 428.118 293.727C426.815 293.482 424.943 293.669 424.885 294.983C424.85 295.727 425.513 296.46 425.222 297.135C424.908 297.856 423.884 297.798 423.14 298.054C422.58 298.308 422.119 298.737 421.825 299.276C421.531 299.815 421.421 300.436 421.511 301.043C421.71 302.253 422.179 303.402 422.884 304.405C421.453 303.812 419.301 303.707 417.871 303.102C417.662 301.445 417.24 299.823 416.614 298.275C416.578 298.028 416.489 297.793 416.353 297.585C416.216 297.377 416.035 297.201 415.824 297.07C415.612 296.939 415.374 296.857 415.127 296.828C414.879 296.798 414.629 296.824 414.393 296.902C412.508 297.193 410.624 297.472 408.739 297.763C408.266 297.785 407.813 297.961 407.448 298.263C406.715 299.043 407.437 300.287 407.413 301.357C407.345 301.956 407.092 302.518 406.69 302.966C406.288 303.414 405.756 303.726 405.168 303.858C403.984 304.099 402.763 304.083 401.586 303.812C398.945 303.405 396.316 302.997 393.676 302.59C396.007 301.848 398.079 300.46 399.655 298.589C400.702 297.356 401.26 295.053 399.748 294.471C399.301 294.349 398.835 294.313 398.375 294.366C394.793 294.39 391.966 291.4 388.616 290.132C387.563 289.74 386.448 289.535 385.324 289.528L381.579 294.122Z" fill="#276AFB"/>
<path d="M686.779 408.511C686.369 409.062 685.83 409.503 685.209 409.797C684.589 410.091 683.906 410.229 683.22 410.198C679.579 409.884 678.043 404.638 674.437 404.044C674.118 403.963 673.781 403.996 673.484 404.137C672.949 404.428 672.856 405.149 672.821 405.754C672.669 408.755 672.541 411.873 673.716 414.641C675.426 418.689 679.858 422.086 678.927 426.378C673.926 424.063 671.32 418.445 670.145 413.059C668.959 407.674 668.773 402.02 666.656 396.926C665.039 398.984 661.666 397.286 660.2 395.123C658.804 393.075 657.943 390.702 656.594 388.62C655.245 386.55 653.174 384.689 650.708 384.572C648.114 384.456 645.858 386.236 643.88 387.922C642.16 389.193 640.716 390.8 639.635 392.645C638.25 395.437 638.611 398.717 638.541 401.823C638.471 405.173 637.762 408.72 635.47 411.186C633.179 413.641 628.956 414.501 626.432 412.28C625.212 411.007 624.342 409.44 623.908 407.732C621.164 399.734 618.88 391.586 617.068 383.328C616.65 385.212 614.986 387.643 613.404 386.538C613.051 386.237 612.765 385.865 612.567 385.445C609.612 380.455 604.157 377.454 598.632 375.651C593.118 373.859 587.314 373.022 581.858 371.044C578.799 369.933 575.876 368.478 573.146 366.706C572.453 367.727 572.048 368.917 571.974 370.149C571.9 371.382 572.16 372.611 572.727 373.708C573.34 374.781 574.291 375.622 575.431 376.099C576.571 376.577 577.837 376.664 579.032 376.349C580.242 375.953 581.265 375.116 582.463 374.697C583.661 374.29 585.278 374.487 585.802 375.651C586.313 376.756 585.546 378.093 585.93 379.257C586.5 381.013 589.163 381.152 590.094 382.758C590.367 383.393 590.43 384.1 590.273 384.774C590.116 385.448 589.748 386.054 589.221 386.503C588.151 387.376 586.97 388.104 585.709 388.667C581.8 390.842 579.02 394.553 575.6 397.437C572.181 400.334 567.353 402.439 563.282 400.59C564.248 395.669 558.397 392.063 557.315 387.166C556.954 385.549 557.14 383.84 556.64 382.269C555.907 379.989 553.883 378.431 552.232 376.709C550.225 374.596 548.661 372.102 547.632 369.375C546.604 366.649 546.131 363.744 546.241 360.831C546.334 358.807 546.707 356.749 546.241 354.771C545.788 352.805 544.147 350.898 542.123 350.979C537.506 351.189 531.678 351.537 529.258 347.594C528.386 346.187 528.014 344.128 529.27 343.046C529.761 342.735 530.309 342.524 530.882 342.426C531.455 342.329 532.042 342.345 532.608 342.476C536.086 342.813 539.553 343.162 543.031 343.5C545.462 343.732 548.091 343.93 550.184 342.662C552.278 341.394 553.185 338.009 551.243 336.509C549.835 335.416 547.3 335.474 546.881 333.741C546.544 332.287 548.149 330.646 547.276 329.425C546.66 328.564 545.264 328.797 544.415 329.448C543.674 330.218 542.868 330.922 542.007 331.554C540.344 332.414 538.366 331.589 536.575 331.03C534.784 330.472 532.387 330.425 531.527 332.089C530.55 333.938 532.376 336.381 531.422 338.242C530.142 340.696 525.839 339.301 524.047 341.418C522 343.837 525.443 347.466 524.757 350.56C523.873 350.999 522.891 351.2 521.906 351.145C520.922 351.09 519.968 350.78 519.139 350.246C518.325 349.693 517.676 348.929 517.262 348.035C516.849 347.142 516.685 346.154 516.789 345.175C516.952 343.779 517.685 342.348 517.196 341.034C516.669 340.019 515.8 339.223 514.742 338.789C511.368 336.916 507.995 335.051 504.622 333.194C503.68 334.939 504.866 337.09 506.355 338.405C507.832 339.708 509.693 340.696 510.671 342.418C511.289 343.611 511.429 344.995 511.062 346.288C510.694 347.581 509.847 348.685 508.693 349.374C508.547 349.474 508.381 349.542 508.206 349.572C508.032 349.602 507.852 349.594 507.681 349.548C507.52 349.454 507.379 349.328 507.267 349.178C507.155 349.028 507.075 348.857 507.03 348.676C505.25 344.105 502.563 339.603 498.282 337.218C493.99 334.822 487.837 335.322 485.022 339.335C484.359 340.289 483.905 341.383 483.324 342.395C480.241 347.757 473.611 350.293 467.423 350.13C466.817 350.169 466.214 350.027 465.69 349.723C464.689 349.036 464.736 347.571 464.887 346.361C465.108 344.651 465.317 342.953 465.538 341.243C465.544 340.199 465.947 339.196 466.667 338.44C467.818 337.532 469.47 338.102 470.936 338.079C472.042 338.03 473.106 337.64 473.982 336.964C474.859 336.287 475.505 335.356 475.833 334.299C476.127 333.231 476.125 332.104 475.826 331.038C475.527 329.972 474.942 329.008 474.134 328.25C473.471 327.622 472.576 326.831 472.925 325.982C473.067 325.748 473.258 325.548 473.485 325.395C473.711 325.242 473.969 325.141 474.239 325.098C476.856 324.342 479.636 324.144 482.207 323.237C484.789 322.341 487.29 320.503 487.907 317.839C488.093 317.025 488.174 316.036 488.907 315.629C489.277 315.481 489.672 315.402 490.07 315.397C491.469 315.196 492.742 314.48 493.639 313.389C494.537 312.298 494.994 310.91 494.921 309.499C496.154 308.639 497.887 309.278 499.085 310.197C500.272 311.116 501.33 312.326 502.784 312.721C505.494 313.466 508.112 311.058 510.926 311.046C512.113 311.046 513.334 311.465 514.439 311.058C515.568 310.651 516.242 309.534 517.103 308.708C517.975 307.871 519.488 307.371 520.29 308.266C520.058 306.58 519.837 304.905 519.604 303.23C520.974 303.575 522.403 303.623 523.793 303.37C525.184 303.117 526.504 302.569 527.665 301.764C524.734 300.775 521.814 299.787 518.883 298.798C518.575 298.722 518.291 298.57 518.057 298.356C517.417 297.67 518.057 296.599 518.569 295.82C519.813 293.947 520.023 290.865 517.975 289.934C516.58 289.295 514.986 290.062 513.648 290.807C511.508 291.993 509.368 293.191 507.227 294.378C507.03 295.599 508.519 296.297 509.438 297.111C509.998 297.608 510.394 298.263 510.575 298.989C510.755 299.715 510.712 300.479 510.45 301.181C510.188 301.882 509.72 302.487 509.108 302.918C508.495 303.348 507.767 303.582 507.018 303.59C507.44 304.141 507.733 304.778 507.876 305.457C508.018 306.135 508.008 306.837 507.844 307.51C506.413 307.615 504.971 307.72 503.529 307.824C503.289 307.872 503.042 307.872 502.803 307.824C502.563 307.776 502.335 307.681 502.133 307.545C501.667 307.138 501.737 306.417 501.621 305.812C501.429 305.089 501.025 304.44 500.461 303.949C499.898 303.457 499.199 303.146 498.457 303.055C496.975 302.889 495.475 303.027 494.048 303.462C493.428 303.681 492.75 303.664 492.141 303.416C491.796 303.187 491.534 302.852 491.396 302.462C491.143 301.664 491.1 300.815 491.271 299.996C491.442 299.177 491.822 298.415 492.373 297.786C493.49 296.545 494.721 295.412 496.049 294.401C499.059 291.766 501.271 288.341 502.435 284.514C504.808 283.513 507.262 282.164 509.647 281.164C511.564 280.275 513.573 279.601 515.637 279.151C517.581 278.855 519.549 278.761 521.512 278.872C524.187 278.919 526.874 278.965 529.549 279.024C531.937 278.923 534.324 279.266 536.587 280.035C538.785 280.943 540.728 282.909 540.879 285.281C540.925 285.552 540.901 285.83 540.809 286.088C540.717 286.347 540.561 286.577 540.355 286.759C540.047 286.93 539.696 287.01 539.343 286.991C537.122 287.061 536.18 287.62 533.958 287.701C535.365 289.201 536.947 290.783 538.995 291.051C542.6 291.516 545.194 287.782 546.858 284.537C546.917 285.363 547.297 286.133 547.916 286.683C548.536 287.233 549.346 287.519 550.173 287.48C551.064 287.327 551.915 286.994 552.674 286.503C559.828 282.593 567.843 280.522 575.996 280.477C575.916 279.86 576.068 279.235 576.423 278.724C576.777 278.212 577.309 277.851 577.915 277.709C579.579 277.383 581.067 278.814 581.87 280.303C582.661 281.792 583.161 283.513 584.441 284.63C585.709 285.747 588.163 285.689 588.663 284.083C589.152 282.536 587.535 281.21 586.197 280.291C584.848 279.384 583.44 277.697 584.348 276.348C591.187 274.824 598.085 273.312 605.099 273.01C606.291 273.046 607.478 272.84 608.589 272.405C609.139 272.172 609.596 271.764 609.891 271.245C610.185 270.725 610.3 270.123 610.217 269.532C608.687 269.889 607.084 269.783 605.614 269.228C604.144 268.673 602.871 267.694 601.959 266.414C609.159 265.821 616.696 265.298 623.617 266.915L629.678 272.056C628.526 273.254 626.991 274.382 627.828 275.58C628.104 275.856 628.439 276.064 628.808 276.191C629.177 276.318 629.57 276.36 629.957 276.313C631.422 276.337 632.888 276.371 634.342 276.371C664.429 305.15 682.948 343.942 686.407 385.433C683.964 385.34 681.719 388.434 682.033 391.133C682.405 394.262 684.662 396.774 686.279 399.473C686.547 399.912 686.787 400.366 687 400.834L686.779 408.511Z" fill="#276AFB"/>
<path d="M0 636.962H888" stroke="#3F3D56" stroke-width="2" stroke-miterlimit="10"/>
<path d="M366.352 80.0253C374.502 80.0253 381.108 73.419 381.108 65.2697C381.108 57.1204 374.502 50.5142 366.352 50.5142C358.203 50.5142 351.597 57.1204 351.597 65.2697C351.597 73.419 358.203 80.0253 366.352 80.0253Z" stroke="#3F3D56" stroke-width="2" stroke-miterlimit="10"/>
<path d="M802.352 361.025C810.502 361.025 817.108 354.419 817.108 346.27C817.108 338.12 810.502 331.514 802.352 331.514C794.203 331.514 787.597 338.12 787.597 346.27C787.597 354.419 794.203 361.025 802.352 361.025Z" stroke="#3F3D56" stroke-width="2" stroke-miterlimit="10"/>
<path d="M701.619 214.025C709.768 214.025 716.374 207.419 716.374 199.27C716.374 191.12 709.768 184.514 701.619 184.514C693.47 184.514 686.863 191.12 686.863 199.27C686.863 207.419 693.47 214.025 701.619 214.025Z" stroke="#3F3D56" stroke-width="2" stroke-miterlimit="10"/>
<path d="M604.808 340.48C613.953 340.48 621.367 333.067 621.367 323.921C621.367 314.776 613.953 307.362 604.808 307.362C595.663 307.362 588.249 314.776 588.249 323.921C588.249 333.067 595.663 340.48 604.808 340.48Z" fill="#3F3D56"/>
<path d="M657.999 292.525C670.054 292.525 679.827 282.753 679.827 270.697C679.827 258.642 670.054 248.87 657.999 248.87C645.944 248.87 636.171 258.642 636.171 270.697C636.171 282.753 645.944 292.525 657.999 292.525Z" fill="white"/>
<path d="M680.074 248.069C674.215 242.353 666.326 239.2 658.142 239.301C649.958 239.402 642.15 242.751 636.435 248.609C624.533 260.809 607.542 322.42 607.542 322.42C607.542 322.42 668.713 303.908 680.614 291.708C686.33 285.849 689.483 277.96 689.382 269.776C689.281 261.592 685.932 253.784 680.074 248.069V248.069ZM648.013 280.934C645.988 278.959 644.594 276.428 644.008 273.661C643.422 270.894 643.67 268.015 644.72 265.389C645.77 262.762 647.575 260.506 649.907 258.906C652.239 257.305 654.994 256.432 657.822 256.397C660.65 256.362 663.425 257.167 665.796 258.709C668.167 260.251 670.028 262.462 671.143 265.061C672.257 267.661 672.576 270.533 672.059 273.313C671.541 276.094 670.211 278.659 668.236 280.684C665.587 283.399 661.969 284.95 658.176 284.997C654.383 285.044 650.728 283.583 648.013 280.934V280.934Z" fill="#F00946"/>
</g>
<defs>
<clipPath id="clip0">
<rect width="888" height="637.962" fill="white"/>
</clipPath>
</defs>
</svg>
