<svg width="886" height="623" viewBox="0 0 886 623" fill="none" xmlns="http://www.w3.org/2000/svg">
<g clip-path="url(#clip0)">
<path d="M461.601 348.37H400.416V350.344H409.958V369.094H411.932V350.344H449.098V369.094H451.072V350.344H461.601V348.37Z" fill="#3F3D56"/>
<path d="M484.299 300.014H468.509V315.803H475.829V369.007H477.803V315.803H484.299V300.014Z" fill="#3F3D56"/>
<path d="M461.722 342.465H400.536V344.439H461.722V342.465Z" fill="#3F3D56"/>
<path d="M461.722 337.531H400.536V339.504H461.722V337.531Z" fill="#3F3D56"/>
<path d="M461.722 332.596H400.536V334.57H461.722V332.596Z" fill="#3F3D56"/>
<path d="M618.512 374.783H616.538C616.538 281.187 540.393 205.043 446.798 205.043C353.203 205.043 277.058 281.187 277.058 374.783H275.084C275.084 280.099 352.115 203.069 446.798 203.069C541.482 203.069 618.512 280.099 618.512 374.783Z" fill="#3F3D56"/>
<path d="M328.651 162.551C337.983 166.559 349.184 161.343 353.669 150.901C358.154 140.459 354.224 128.745 344.892 124.736C335.56 120.728 324.358 125.944 319.874 136.386C315.389 146.828 319.318 158.543 328.651 162.551Z" fill="white"/>
<path d="M348.532 116.26C342.196 113.539 334.91 113.746 328.277 116.835C321.644 119.923 316.207 125.641 313.162 132.731C306.821 147.494 309.89 206.233 309.89 206.233C309.89 206.233 354.601 168.015 360.941 153.252C363.986 146.162 364.39 138.282 362.062 131.345C359.735 124.408 354.868 118.982 348.532 116.26ZM331.451 156.031C329.262 155.09 327.433 153.445 326.197 151.302C324.961 149.158 324.373 146.614 324.507 143.991C324.642 141.367 325.492 138.783 326.951 136.563C328.411 134.344 330.413 132.589 332.705 131.522C334.998 130.454 337.477 130.122 339.83 130.566C342.183 131.011 344.303 132.212 345.924 134.018C347.544 135.825 348.591 138.155 348.933 140.715C349.274 143.274 348.895 145.948 347.843 148.398C347.144 150.025 346.166 151.513 344.964 152.777C343.762 154.041 342.36 155.056 340.838 155.765C339.316 156.474 337.704 156.862 336.093 156.908C334.482 156.953 332.905 156.655 331.451 156.031Z" fill="#276AFB"/>
<path d="M161.352 322.704C250.464 322.704 322.704 250.464 322.704 161.352C322.704 72.2397 250.464 0 161.352 0C72.2397 0 0 72.2397 0 161.352C0 250.464 72.2397 322.704 161.352 322.704Z" fill="#276AFB"/>
<path opacity="0.2" d="M281.375 53.5814C296.426 88.7872 298.468 128.198 287.136 164.77C275.804 201.343 251.836 232.694 219.517 253.223C187.197 273.751 148.631 282.118 110.71 276.829C72.7895 271.54 37.9848 252.94 12.5156 224.351C21.7096 245.861 35.47 265.114 52.8436 280.777C70.2171 296.44 90.7883 308.139 113.132 315.063C135.476 321.987 159.058 323.97 182.244 320.875C205.43 317.78 227.666 309.682 247.412 297.14C267.157 284.598 283.94 267.914 296.597 248.242C309.254 228.57 317.483 206.382 320.714 183.214C323.945 160.047 322.1 136.454 315.307 114.07C308.514 91.686 296.936 71.0465 281.375 53.5814V53.5814Z" fill="black"/>
<path d="M744.26 550.484C751.076 548.756 754.915 540.705 752.834 532.502C750.754 524.298 743.543 519.049 736.727 520.777C729.911 522.505 726.072 530.557 728.152 538.76C730.232 546.964 737.444 552.213 744.26 550.484Z" fill="white"/>
<path d="M735.039 514.118C730.411 515.292 726.534 518.63 724.261 523.398C721.987 528.165 721.503 533.973 722.916 539.543C725.856 551.14 752.961 584.801 752.961 584.801C752.961 584.801 760.752 542.292 757.811 530.694C756.399 525.125 753.206 520.249 748.936 517.141C744.665 514.032 739.666 512.945 735.039 514.118ZM742.961 545.362C741.362 545.768 739.654 545.593 738.053 544.861C736.452 544.129 735.03 542.872 733.968 541.249C732.905 539.626 732.248 537.71 732.082 535.743C731.915 533.776 732.245 531.847 733.031 530.199C733.817 528.551 735.023 527.259 736.496 526.486C737.969 525.713 739.644 525.493 741.308 525.855C742.972 526.217 744.551 527.144 745.845 528.519C747.14 529.894 748.091 531.656 748.579 533.58C748.903 534.858 749.015 536.177 748.908 537.461C748.801 538.744 748.477 539.968 747.956 541.062C747.434 542.156 746.724 543.099 745.867 543.837C745.01 544.575 744.023 545.093 742.961 545.362Z" fill="#276AFB"/>
<path d="M681.06 347.716C674.793 344.526 666.601 348.055 662.762 355.597C658.923 363.139 660.891 371.839 667.157 375.029C673.424 378.218 681.616 374.69 685.455 367.148C689.294 359.606 687.326 350.906 681.06 347.716Z" fill="white"/>
<path d="M664.041 381.151C668.296 383.316 673.412 383.359 678.263 381.269C683.114 379.18 687.304 375.129 689.91 370.009C695.338 359.345 697.119 316.165 697.119 316.165C697.119 316.165 663.255 343.015 657.827 353.678C655.221 358.799 654.411 364.57 655.577 369.722C656.742 374.874 659.787 378.985 664.041 381.151ZM678.663 352.425C680.133 353.174 681.303 354.43 682.025 356.035C682.747 357.641 682.989 359.523 682.719 361.444C682.45 363.366 681.681 365.24 680.511 366.829C679.341 368.419 677.821 369.653 676.145 370.375C674.468 371.097 672.71 371.275 671.092 370.886C669.474 370.497 668.07 369.559 667.056 368.191C666.043 366.822 665.465 365.084 665.397 363.197C665.329 361.31 665.774 359.358 666.675 357.589C667.273 356.414 668.057 355.348 668.983 354.453C669.909 353.557 670.959 352.85 672.072 352.37C673.185 351.891 674.34 351.649 675.471 351.658C676.602 351.668 677.687 351.928 678.663 352.425Z" fill="#F00946"/>
<path d="M175.651 561.551C184.983 565.559 196.184 560.343 200.669 549.901C205.154 539.459 201.224 527.745 191.892 523.736C182.56 519.728 171.358 524.944 166.874 535.386C162.389 545.828 166.318 557.543 175.651 561.551Z" fill="white"/>
<path d="M195.532 515.26C189.196 512.539 181.91 512.746 175.277 515.835C168.644 518.923 163.207 524.641 160.162 531.731C153.821 546.494 156.89 605.233 156.89 605.233C156.89 605.233 201.601 567.015 207.941 552.252C210.986 545.162 211.39 537.282 209.062 530.345C206.735 523.408 201.868 517.982 195.532 515.26ZM178.451 555.031C176.262 554.09 174.433 552.445 173.197 550.302C171.961 548.158 171.373 545.614 171.507 542.991C171.642 540.367 172.492 537.783 173.951 535.563C175.411 533.344 177.413 531.589 179.705 530.522C181.998 529.454 184.477 529.122 186.83 529.566C189.183 530.011 191.303 531.212 192.924 533.018C194.544 534.825 195.591 537.155 195.933 539.715C196.274 542.274 195.895 544.948 194.843 547.398C194.144 549.025 193.166 550.513 191.964 551.777C190.762 553.041 189.36 554.056 187.838 554.765C186.316 555.474 184.704 555.862 183.093 555.908C181.482 555.953 179.905 555.655 178.451 555.031Z" fill="#1C2237"/>
<path d="M603.408 209.569C609.271 212.087 616.233 208.986 618.958 202.642C621.682 196.298 619.138 189.114 613.274 186.596C607.411 184.078 600.449 187.179 597.724 193.522C594.999 199.866 597.544 207.05 603.408 209.569Z" fill="white"/>
<path d="M615.486 181.447C611.505 179.737 606.952 179.808 602.829 181.645C598.706 183.481 595.351 186.932 593.501 191.239C589.649 200.208 592.01 236.106 592.01 236.106C592.01 236.106 619.669 213.101 623.521 204.133C625.371 199.826 625.564 195.016 624.057 190.762C622.55 186.507 619.467 183.156 615.486 181.447ZM605.109 205.608C603.733 205.017 602.578 203.998 601.789 202.68C601 201.361 600.613 199.803 600.678 198.202C600.742 196.601 601.254 195.028 602.149 193.684C603.045 192.339 604.283 191.283 605.708 190.648C607.133 190.014 608.68 189.829 610.154 190.118C611.628 190.407 612.963 191.157 613.989 192.273C615.015 193.388 615.687 194.819 615.92 196.385C616.153 197.951 615.936 199.581 615.297 201.07C614.872 202.058 614.272 202.959 613.53 203.722C612.789 204.485 611.92 205.095 610.974 205.516C610.028 205.937 609.023 206.162 608.017 206.178C607.01 206.194 606.022 206 605.109 205.608Z" fill="#276AFB"/>
<path d="M582.408 214.569C588.271 217.087 595.233 213.986 597.958 207.642C600.682 201.298 598.138 194.114 592.274 191.596C586.411 189.078 579.449 192.179 576.724 198.522C573.999 204.866 576.544 212.05 582.408 214.569Z" fill="white"/>
<path d="M594.486 186.447C590.505 184.737 585.952 184.808 581.829 186.645C577.706 188.481 574.351 191.932 572.501 196.239C568.649 205.208 571.01 241.106 571.01 241.106C571.01 241.106 598.669 218.101 602.521 209.133C604.371 204.826 604.564 200.016 603.057 195.762C601.55 191.507 598.467 188.156 594.486 186.447ZM584.109 210.608C582.733 210.017 581.578 208.998 580.789 207.68C580 206.361 579.613 204.803 579.678 203.202C579.742 201.601 580.254 200.028 581.149 198.684C582.045 197.339 583.283 196.283 584.708 195.648C586.133 195.014 587.68 194.829 589.154 195.118C590.628 195.407 591.963 196.157 592.989 197.273C594.015 198.388 594.687 199.819 594.92 201.385C595.153 202.951 594.936 204.581 594.297 206.07C593.872 207.058 593.272 207.959 592.53 208.722C591.789 209.485 590.92 210.095 589.974 210.516C589.028 210.937 588.023 211.162 587.017 211.178C586.01 211.194 585.022 211 584.109 210.608Z" fill="#1C2237"/>
<path d="M358.09 296.384C360.765 295.815 362.348 292.601 361.626 289.205C360.904 285.808 358.15 283.515 355.476 284.084C352.801 284.652 351.218 287.867 351.94 291.263C352.662 294.66 355.415 296.953 358.09 296.384Z" fill="white"/>
<path d="M354.89 281.327C353.074 281.713 351.527 282.999 350.589 284.903C349.652 286.806 349.4 289.171 349.891 291.477C350.911 296.279 361.11 310.593 361.11 310.593C361.11 310.593 364.605 293.368 363.585 288.566C363.095 286.26 361.903 284.202 360.272 282.844C358.642 281.487 356.705 280.941 354.89 281.327ZM357.639 294.263C357.012 294.397 356.348 294.291 355.732 293.959C355.116 293.627 354.576 293.084 354.179 292.399C353.782 291.714 353.547 290.917 353.504 290.109C353.46 289.302 353.609 288.519 353.933 287.862C354.257 287.204 354.741 286.7 355.324 286.413C355.906 286.127 356.561 286.071 357.206 286.253C357.85 286.435 358.456 286.846 358.945 287.434C359.435 288.023 359.786 288.762 359.956 289.559C360.068 290.089 360.098 290.63 360.042 291.153C359.986 291.675 359.847 292.169 359.632 292.606C359.417 293.043 359.13 293.414 358.788 293.698C358.446 293.983 358.056 294.175 357.639 294.263Z" fill="#1C2237"/>
<path d="M438.958 336.522C441.692 336.522 443.909 333.707 443.909 330.234C443.909 326.762 441.692 323.947 438.958 323.947C436.223 323.947 434.006 326.762 434.006 330.234C434.006 333.707 436.223 336.522 438.958 336.522Z" fill="white"/>
<path d="M438.958 321.128C437.101 321.128 435.321 322.065 434.008 323.732C432.695 325.399 431.958 327.66 431.958 330.018C431.958 334.927 438.958 351.048 438.958 351.048C438.958 351.048 445.958 334.927 445.958 330.018C445.958 327.66 445.22 325.399 443.907 323.732C442.595 322.065 440.814 321.128 438.958 321.128ZM438.958 334.354C438.316 334.354 437.689 334.112 437.155 333.66C436.622 333.207 436.206 332.564 435.961 331.811C435.715 331.058 435.651 330.23 435.776 329.431C435.901 328.632 436.21 327.898 436.664 327.322C437.117 326.745 437.695 326.353 438.325 326.194C438.954 326.035 439.606 326.117 440.199 326.429C440.792 326.74 441.298 327.268 441.655 327.946C442.011 328.623 442.201 329.42 442.201 330.234C442.201 330.775 442.118 331.311 441.955 331.811C441.792 332.311 441.553 332.765 441.251 333.147C440.95 333.53 440.592 333.833 440.199 334.04C439.805 334.247 439.384 334.354 438.958 334.354Z" fill="#F00946"/>
<path d="M446.867 336.513C449.542 337.081 452.296 334.788 453.018 331.392C453.739 327.995 452.156 324.781 449.482 324.212C446.807 323.644 444.053 325.936 443.331 329.333C442.609 332.73 444.193 335.944 446.867 336.513Z" fill="white"/>
<path d="M450.068 321.455C448.252 321.069 446.315 321.615 444.685 322.973C443.054 324.331 441.863 326.389 441.373 328.695C440.352 333.497 443.847 350.721 443.847 350.721C443.847 350.721 454.046 336.408 455.067 331.606C455.557 329.3 455.305 326.935 454.368 325.031C453.431 323.128 451.884 321.841 450.068 321.455ZM447.318 334.392C446.69 334.258 446.127 333.892 445.7 333.338C445.272 332.784 444.999 332.069 444.915 331.281C444.832 330.494 444.941 329.67 445.23 328.915C445.518 328.159 445.973 327.505 446.536 327.036C447.1 326.567 447.747 326.303 448.395 326.279C449.044 326.254 449.665 326.47 450.18 326.898C450.695 327.326 451.081 327.948 451.289 328.685C451.496 329.421 451.517 330.24 451.348 331.037C451.235 331.566 451.042 332.072 450.778 332.527C450.515 332.982 450.187 333.377 449.813 333.688C449.438 334 449.026 334.222 448.598 334.343C448.169 334.464 447.735 334.48 447.318 334.392Z" fill="#276AFB"/>
<path d="M161.795 161.352H162.238L170.217 618.811H153.373L161.795 161.352Z" fill="#3F3D56"/>
<path d="M191.174 410.527L187.457 403.467L160.785 417.509L164.502 424.569L191.174 410.527Z" fill="#3F3D56"/>
<path d="M755.277 360.4C827.401 360.4 885.87 301.931 885.87 229.806C885.87 157.682 827.401 99.2129 755.277 99.2129C683.152 99.2129 624.683 157.682 624.683 229.806C624.683 301.931 683.152 360.4 755.277 360.4Z" fill="#276AFB"/>
<path opacity="0.2" d="M852.42 142.58C864.601 171.075 866.254 202.972 857.082 232.573C847.91 262.174 828.512 287.549 802.353 304.164C776.195 320.779 744.981 327.551 714.289 323.27C683.596 318.99 655.427 303.935 634.812 280.796C642.254 298.205 653.391 313.788 667.453 326.466C681.514 339.143 698.164 348.612 716.248 354.216C734.333 359.82 753.419 361.425 772.186 358.92C790.952 356.415 808.949 349.86 824.93 339.709C840.912 329.559 854.495 316.055 864.74 300.133C874.984 284.211 881.645 266.253 884.259 247.501C886.874 228.75 885.381 209.655 879.883 191.538C874.385 173.421 865.015 156.716 852.42 142.58V142.58Z" fill="black"/>
<path d="M755.635 229.806H755.994L762.452 600.06H748.819L755.635 229.806Z" fill="#3F3D56"/>
<path d="M779.414 431.482L776.406 425.767L754.818 437.133L757.827 442.847L779.414 431.482Z" fill="#3F3D56"/>
<path d="M369.907 342.262C381.261 342.262 390.466 333.058 390.466 321.704C390.466 310.35 381.261 301.145 369.907 301.145C358.553 301.145 349.349 310.35 349.349 321.704C349.349 333.058 358.553 342.262 369.907 342.262Z" fill="#276AFB"/>
<path opacity="0.2" d="M385.2 307.972C387.118 312.458 387.378 317.479 385.934 322.139C384.49 326.799 381.436 330.794 377.318 333.409C373.2 336.025 368.287 337.091 363.455 336.417C358.623 335.743 354.189 333.373 350.944 329.731C352.115 332.471 353.868 334.924 356.082 336.92C358.296 338.916 360.917 340.406 363.763 341.289C366.61 342.171 369.615 342.423 372.569 342.029C375.524 341.635 378.357 340.603 380.873 339.005C383.388 337.407 385.527 335.281 387.14 332.775C388.752 330.268 389.801 327.441 390.212 324.489C390.624 321.537 390.389 318.531 389.523 315.679C388.658 312.827 387.183 310.197 385.2 307.972V307.972Z" fill="black"/>
<path d="M369.964 321.704H370.02L371.037 379.99H368.891L369.964 321.704Z" fill="#3F3D56"/>
<path d="M373.707 353.452L373.233 352.552L369.835 354.342L370.309 355.241L373.707 353.452Z" fill="#3F3D56"/>
<path d="M559.878 308.074C588.946 308.074 612.509 284.511 612.509 255.443C612.509 226.375 588.946 202.812 559.878 202.812C530.81 202.812 507.247 226.375 507.247 255.443C507.247 284.511 530.81 308.074 559.878 308.074Z" fill="#276AFB"/>
<path opacity="0.2" d="M599.029 220.289C603.938 231.773 604.604 244.628 600.908 256.558C597.211 268.488 589.393 278.714 578.851 285.41C568.309 292.107 555.729 294.836 543.359 293.111C530.99 291.385 519.637 285.318 511.329 275.993C514.328 283.009 518.817 289.289 524.484 294.399C530.151 299.508 536.861 303.324 544.149 305.582C551.438 307.841 559.13 308.488 566.693 307.478C574.256 306.469 581.509 303.827 587.95 299.736C594.391 295.645 599.865 290.203 603.994 283.786C608.123 277.369 610.807 270.132 611.861 262.574C612.914 255.017 612.313 247.322 610.097 240.02C607.881 232.719 604.105 225.986 599.029 220.289V220.289Z" fill="black"/>
<path d="M560.023 255.443H560.167L562.77 404.662H557.275L560.023 255.443Z" fill="#3F3D56"/>
<path d="M569.606 336.722L568.394 334.419L559.693 338.999L560.906 341.302L569.606 336.722Z" fill="#3F3D56"/>
<path d="M197.523 596.038C197.523 596.038 198.204 581.758 212.175 583.418Z" fill="#3F3D56"/>
<path d="M193.576 582.449C197.437 582.449 200.568 579.318 200.568 575.457C200.568 571.595 197.437 568.465 193.576 568.465C189.714 568.465 186.583 571.595 186.583 575.457C186.583 579.318 189.714 582.449 193.576 582.449Z" fill="#536DFE"/>
<path d="M194.412 587.231H192.438V601.047H194.412V587.231Z" fill="#3F3D56"/>
<path d="M246.866 563.471C246.866 563.471 247.548 549.192 261.518 550.852Z" fill="#3F3D56"/>
<path d="M242.919 549.883C246.78 549.883 249.911 546.752 249.911 542.89C249.911 539.029 246.78 535.898 242.919 535.898C239.057 535.898 235.927 539.029 235.927 542.89C235.927 546.752 239.057 549.883 242.919 549.883Z" fill="#536DFE"/>
<path d="M243.755 554.665H241.781V568.481H243.755V554.665Z" fill="#3F3D56"/>
<path d="M395.605 452.987C395.605 452.987 396.146 441.645 407.242 442.964Z" fill="#3F3D56"/>
<path d="M392.47 442.194C395.537 442.194 398.023 439.707 398.023 436.64C398.023 433.573 395.537 431.087 392.47 431.087C389.403 431.087 386.916 433.573 386.916 436.64C386.916 439.707 389.403 442.194 392.47 442.194Z" fill="#276AFB"/>
<path d="M393.134 445.992H391.566V456.965H393.134V445.992Z" fill="#3F3D56"/>
<path d="M612.714 417.46C612.714 417.46 613.256 406.118 624.352 407.436Z" fill="#3F3D56"/>
<path d="M609.579 406.667C612.646 406.667 615.132 404.18 615.132 401.113C615.132 398.046 612.646 395.56 609.579 395.56C606.512 395.56 604.025 398.046 604.025 401.113C604.025 404.18 606.512 406.667 609.579 406.667Z" fill="#276AFB"/>
<path d="M610.243 410.465H608.676V421.438H610.243V410.465Z" fill="#3F3D56"/>
<path d="M405.474 482.593C405.474 482.593 406.015 471.251 417.111 472.569Z" fill="#3F3D56"/>
<path d="M402.338 471.8C405.405 471.8 407.892 469.313 407.892 466.246C407.892 463.179 405.405 460.693 402.338 460.693C399.271 460.693 396.785 463.179 396.785 466.246C396.785 469.313 399.271 471.8 402.338 471.8Z" fill="#276AFB"/>
<path d="M403.002 475.598H401.435V486.571H403.002V475.598Z" fill="#3F3D56"/>
<path d="M381.789 504.304C381.789 504.304 382.33 492.962 393.426 494.28Z" fill="#3F3D56"/>
<path d="M378.654 493.511C381.721 493.511 384.207 491.024 384.207 487.957C384.207 484.89 381.721 482.404 378.654 482.404C375.586 482.404 373.1 484.89 373.1 487.957C373.1 491.024 375.586 493.511 378.654 493.511Z" fill="#276AFB"/>
<path d="M379.318 497.309H377.75V508.282H379.318V497.309Z" fill="#3F3D56"/>
<path d="M646.268 436.21C646.268 436.21 646.809 424.869 657.905 426.187Z" fill="#3F3D56"/>
<path d="M643.133 425.417C646.2 425.417 648.686 422.931 648.686 419.864C648.686 416.797 646.2 414.31 643.133 414.31C640.066 414.31 637.579 416.797 637.579 419.864C637.579 422.931 640.066 425.417 643.133 425.417Z" fill="#276AFB"/>
<path d="M643.797 429.215H642.229V440.189H643.797V429.215Z" fill="#3F3D56"/>
<path d="M326.525 460.882C326.525 460.882 327.066 449.54 338.162 450.858Z" fill="#3F3D56"/>
<path d="M323.389 450.089C326.457 450.089 328.943 447.602 328.943 444.535C328.943 441.468 326.457 438.982 323.389 438.982C320.322 438.982 317.836 441.468 317.836 444.535C317.836 447.602 320.322 450.089 323.389 450.089Z" fill="#276AFB"/>
<path d="M324.053 453.887H322.486V464.86H324.053V453.887Z" fill="#3F3D56"/>
<path d="M583.108 404.631C583.108 404.631 583.65 393.289 594.746 394.607Z" fill="#3F3D56"/>
<path d="M579.973 393.838C583.041 393.838 585.527 391.351 585.527 388.284C585.527 385.217 583.041 382.731 579.973 382.731C576.906 382.731 574.42 385.217 574.42 388.284C574.42 391.351 576.906 393.838 579.973 393.838Z" fill="#276AFB"/>
<path d="M580.637 397.636H579.07V408.609H580.637V397.636Z" fill="#3F3D56"/>
<path d="M111.666 598.998C111.666 598.998 112.348 584.719 126.318 586.378Z" fill="#3F3D56"/>
<path d="M107.719 585.409C111.58 585.409 114.711 582.279 114.711 578.417C114.711 574.556 111.58 571.425 107.719 571.425C103.857 571.425 100.727 574.556 100.727 578.417C100.727 582.279 103.857 585.409 107.719 585.409Z" fill="#536DFE"/>
<path d="M108.555 590.192H106.581V604.008H108.555V590.192Z" fill="#3F3D56"/>
<path d="M791.613 595.051C791.613 595.051 792.295 580.771 806.265 582.431Z" fill="#3F3D56"/>
<path d="M787.666 581.462C791.528 581.462 794.658 578.332 794.658 574.47C794.658 570.608 791.528 567.478 787.666 567.478C783.804 567.478 780.674 570.608 780.674 574.47C780.674 578.332 783.804 581.462 787.666 581.462Z" fill="#536DFE"/>
<path d="M788.502 586.244H786.528V600.06H788.502V586.244Z" fill="#3F3D56"/>
<path d="M726.48 611.828C726.48 611.828 727.162 597.548 741.133 599.208Z" fill="#3F3D56"/>
<path d="M722.533 598.239C726.395 598.239 729.525 595.108 729.525 591.247C729.525 587.385 726.395 584.254 722.533 584.254C718.672 584.254 715.541 587.385 715.541 591.247C715.541 595.108 718.672 598.239 722.533 598.239Z" fill="#536DFE"/>
<path d="M723.369 603.021H721.396V616.837H723.369V603.021Z" fill="#3F3D56"/>
<path d="M123.026 622.485C123.026 622.485 433.888 540.575 430.927 456.692C425.499 433.501 387.998 427.58 387.998 427.58C387.998 427.58 299.181 415.737 347.537 387.118C395.893 358.499 528.133 365.407 528.133 365.407C528.133 365.407 391.946 387.118 452.144 398.961C500.501 401.921 562.673 414.75 562.673 414.75C562.673 414.75 688.991 441.396 706.755 506.529C724.518 571.661 709.715 621.991 709.715 621.991L123.026 622.485Z" fill="#E6E6E6"/>
<path d="M461.608 622.804L460.444 621.177C462.088 620.001 463.708 618.832 465.303 617.669L466.481 619.287C464.879 620.452 463.255 621.624 461.608 622.804Z" fill="white"/>
<path d="M476.118 612.13L474.911 610.537C478.142 608.089 481.325 605.628 484.371 603.219L485.611 604.788C482.554 607.205 479.36 609.675 476.118 612.13ZM494.941 597.231L493.664 595.692C496.792 593.093 499.85 590.482 502.754 587.931L504.075 589.433C501.157 591.997 498.083 594.621 494.941 597.231V597.231ZM512.973 581.362L511.604 579.903C514.589 577.103 517.467 574.3 520.159 571.571L521.582 572.975C518.873 575.722 515.976 578.545 512.973 581.362V581.362ZM529.832 564.221L528.343 562.885C531.085 559.831 533.679 556.771 536.052 553.793L537.617 555.039C535.219 558.047 532.6 561.137 529.832 564.221V564.221ZM544.785 545.354L543.132 544.227C545.458 540.82 547.555 537.419 549.367 534.118L551.121 535.081C549.278 538.437 547.146 541.894 544.785 545.354ZM556.285 524.14L554.423 523.41C555.873 519.75 557.009 515.973 557.819 512.12L559.778 512.522C558.946 516.487 557.777 520.374 556.285 524.14V524.14ZM558.955 500.444C558.895 496.557 558.355 492.692 557.346 488.937L559.278 488.416C560.329 492.33 560.892 496.359 560.955 500.411L558.955 500.444ZM552.971 478.141C551.072 474.711 548.842 471.475 546.315 468.477L547.848 467.194C550.46 470.291 552.763 473.636 554.725 477.18L552.971 478.141ZM538.051 460.037C535.079 457.419 531.966 454.966 528.725 452.689L529.879 451.056C533.18 453.375 536.351 455.874 539.377 458.541L538.051 460.037ZM518.703 446.253C515.431 444.33 511.902 442.411 508.215 440.549L509.116 438.764C512.841 440.644 516.408 442.584 519.716 444.528L518.703 446.253ZM497.406 435.438C493.924 433.891 490.216 432.335 486.384 430.81L487.125 428.953C490.98 430.486 494.712 432.053 498.218 433.61L497.406 435.438ZM475.17 426.559C471.607 425.267 467.797 423.941 463.849 422.618L464.484 420.721C468.448 422.05 472.273 423.381 475.852 424.678L475.17 426.559ZM452.439 418.913C448.954 417.813 445.202 416.656 440.968 415.374L441.548 413.46C445.789 414.744 449.548 415.904 453.041 417.004L452.439 418.913ZM429.46 411.919C425.414 410.709 421.557 409.553 417.945 408.441L418.534 406.529C422.141 407.641 425.992 408.795 430.033 410.003L429.46 411.919ZM406.476 404.732C402.629 403.462 398.866 401.948 395.212 400.198L396.111 398.411C399.686 400.121 403.366 401.601 407.13 402.841L406.476 404.732ZM391.373 391.622L389.947 390.219C391.771 388.367 395.377 386.554 400.973 384.677L401.608 386.574C396.392 388.323 392.948 390.022 391.373 391.622L391.373 391.622ZM413.05 383.316L412.566 381.375C416.025 380.513 419.966 379.612 424.278 378.696L424.693 380.653C420.404 381.563 416.486 382.46 413.05 383.316V383.316ZM436.419 378.297L436.044 376.333C439.729 375.628 443.698 374.899 447.841 374.165L448.191 376.133C444.056 376.867 440.096 377.594 436.419 378.297V378.297ZM459.989 374.102L459.659 372.129C463.427 371.498 467.371 370.852 471.49 370.191L471.806 372.166C467.691 372.826 463.752 373.471 459.989 374.102Z" fill="white"/>
<path d="M483.866 370.267L483.559 368.291C485.503 367.99 487.482 367.686 489.495 367.379L489.795 369.356C487.784 369.663 485.807 369.966 483.866 370.267Z" fill="white"/>
<path d="M528.129 167.119L537.214 159.853C530.156 159.074 527.256 162.923 526.07 165.97C520.556 163.68 514.554 166.681 514.554 166.681L532.731 173.28C531.814 170.83 530.217 168.693 528.129 167.119V167.119Z" fill="#3F3D56"/>
<path d="M359.376 223.37L368.461 216.104C361.403 215.325 358.503 219.174 357.316 222.221C351.803 219.931 345.801 222.932 345.801 222.932L363.977 229.53C363.06 227.081 361.464 224.944 359.376 223.37V223.37Z" fill="#3F3D56"/>
<path d="M403.784 106.92L412.869 99.6541C405.812 98.8755 402.912 102.725 401.725 105.771C396.211 103.482 390.209 106.482 390.209 106.482L408.386 113.081C407.469 110.632 405.873 108.495 403.784 106.92Z" fill="#3F3D56"/>
<path d="M502.544 430.442C502.544 430.442 494.675 430.442 493.801 435.251C492.927 440.059 491.615 492.518 492.49 499.075C493.364 505.632 493.364 504.321 493.364 504.321C493.364 504.321 491.621 516.782 495.552 517.327C499.484 517.872 499.484 503.009 499.484 503.009L502.544 449.677V430.442Z" fill="#9E616A"/>
<path d="M536.642 430.442C536.642 430.442 544.511 430.442 545.385 435.251C546.259 440.059 547.571 492.518 546.697 499.075C545.822 505.632 545.822 504.321 545.822 504.321C545.822 504.321 547.565 516.782 543.634 517.327C539.702 517.872 539.702 503.009 539.702 503.009L536.642 449.677V430.442Z" fill="#9E616A"/>
<path d="M501.233 613.172H497.735C496.702 613.172 495.679 613.375 494.724 613.771C493.77 614.166 492.902 614.746 492.171 615.476C491.441 616.207 490.861 617.074 490.466 618.029C490.07 618.984 489.867 620.007 489.867 621.04V621.04H511.287V610.986H501.233V613.172Z" fill="#2F2E41"/>
<path d="M534.893 613.172H538.391C540.478 613.172 542.479 614.001 543.955 615.476C545.43 616.952 546.259 618.953 546.259 621.04V621.04H524.839V610.986H534.893V613.172Z" fill="#2F2E41"/>
<path d="M516.095 420.387C522.373 420.387 527.461 415.298 527.461 409.021C527.461 402.744 522.373 397.655 516.095 397.655C509.818 397.655 504.729 402.744 504.729 409.021C504.729 415.298 509.818 420.387 516.095 420.387Z" fill="#9E616A"/>
<path d="M513.473 415.142C513.473 415.142 512.161 429.568 510.412 430.879C508.664 432.191 528.773 430.005 528.773 430.005C528.773 430.005 521.778 419.513 523.09 416.016C524.401 412.519 513.473 415.142 513.473 415.142Z" fill="#9E616A"/>
<path d="M539.265 430.442C539.265 430.442 515.222 420.387 499.484 430.442C499.484 430.442 495.55 440.496 498.61 446.179C501.67 451.862 506.478 465.414 501.67 474.594C496.861 483.774 502.107 479.84 502.107 479.84C502.107 479.84 495.987 504.321 495.113 523.555C494.238 542.79 497.735 611.86 500.358 612.297C502.981 612.734 511.287 613.609 512.162 612.297C513.036 610.986 519.156 519.621 519.156 519.621C519.156 519.621 521.779 613.172 524.402 613.172C527.025 613.172 534.019 613.172 535.331 610.986C536.642 608.8 547.571 524.43 543.637 506.944C539.702 489.457 537.079 480.714 537.079 480.714C537.079 480.714 541.888 477.654 540.576 475.906C539.265 474.157 532.708 455.36 535.768 452.299C538.828 449.239 539.265 430.442 539.265 430.442Z" fill="#2F2E41"/>
<path d="M523.309 420.531C533.449 420.531 541.669 412.311 541.669 402.171C541.669 392.031 533.449 383.811 523.309 383.811C513.168 383.811 504.948 392.031 504.948 402.171C504.948 412.311 513.168 420.531 523.309 420.531Z" fill="#2F2E41"/>
<path d="M534.774 392.98C531.68 392.253 528.985 390.362 527.247 387.701C525.51 385.04 524.863 381.812 525.442 378.687C525.389 378.875 525.338 379.064 525.293 379.257C524.545 382.449 525.095 385.808 526.823 388.595C528.55 391.382 531.314 393.369 534.506 394.119C537.698 394.869 541.057 394.321 543.845 392.595C546.634 390.869 548.622 388.107 549.374 384.915C549.419 384.723 549.459 384.53 549.494 384.338C548.621 387.394 546.605 389.996 543.864 391.605C541.123 393.214 537.868 393.707 534.774 392.98V392.98Z" fill="#2F2E41"/>
<path d="M535.521 395.372C540.483 395.372 544.506 391.349 544.506 386.387C544.506 381.425 540.483 377.402 535.521 377.402C530.559 377.402 526.536 381.425 526.536 386.387C526.536 391.349 530.559 395.372 535.521 395.372Z" fill="#2F2E41"/>
<path d="M325.401 392.258C330.137 392.756 334.417 388.956 334.962 383.772C335.507 378.587 332.11 373.98 327.375 373.482C322.64 372.985 318.359 376.784 317.814 381.969C317.269 387.154 320.666 391.761 325.401 392.258Z" fill="white"/>
<path d="M327.817 369.274C324.602 368.936 321.372 370.01 318.837 372.261C316.302 374.511 314.67 377.752 314.3 381.273C313.53 388.603 323.122 413.948 323.122 413.948C323.122 413.948 337.773 391.151 338.544 383.821C338.914 380.301 337.992 376.79 335.98 374.062C333.968 371.334 331.032 369.612 327.817 369.274ZM325.742 389.021C324.631 388.904 323.582 388.429 322.73 387.656C321.877 386.884 321.258 385.847 320.951 384.679C320.644 383.51 320.663 382.262 321.005 381.091C321.347 379.921 321.997 378.881 322.873 378.104C323.749 377.326 324.812 376.845 325.926 376.723C327.041 376.6 328.158 376.84 329.135 377.414C330.113 377.987 330.907 378.868 331.418 379.944C331.929 381.02 332.133 382.244 332.006 383.461C331.921 384.268 331.691 385.053 331.331 385.77C330.97 386.486 330.485 387.121 329.903 387.637C329.321 388.153 328.655 388.541 327.941 388.779C327.227 389.016 326.479 389.099 325.742 389.021Z" fill="#F00946"/>
<path d="M528.5 354.908C531.82 354.908 534.512 351.999 534.512 348.41C534.512 344.822 531.82 341.913 528.5 341.913C525.18 341.913 522.488 344.822 522.488 348.41C522.488 351.999 525.18 354.908 528.5 354.908Z" fill="white"/>
<path d="M528.5 339C526.246 339 524.084 339.968 522.49 341.691C520.896 343.413 520 345.75 520 348.186C520 353.26 528.5 369.92 528.5 369.92C528.5 369.92 537 353.26 537 348.186C537 345.75 536.104 343.413 534.51 341.691C532.916 339.968 530.754 339 528.5 339ZM528.5 352.667C527.721 352.667 526.959 352.418 526.312 351.95C525.664 351.482 525.159 350.817 524.861 350.039C524.563 349.262 524.485 348.406 524.637 347.58C524.789 346.754 525.164 345.995 525.715 345.4C526.266 344.805 526.967 344.399 527.732 344.235C528.496 344.071 529.288 344.155 530.007 344.477C530.727 344.8 531.342 345.345 531.775 346.045C532.208 346.745 532.439 347.568 532.439 348.41C532.439 348.969 532.337 349.523 532.139 350.039C531.941 350.556 531.651 351.025 531.285 351.421C530.92 351.816 530.485 352.129 530.007 352.343C529.53 352.557 529.017 352.667 528.5 352.667Z" fill="#276AFB"/>
</g>
<defs>
<clipPath id="clip0">
<rect width="885.87" height="622.804" fill="white"/>
</clipPath>
</defs>
</svg>
