<svg width="840" height="835" viewBox="0 0 840 835" fill="none" xmlns="http://www.w3.org/2000/svg">
<g clip-path="url(#clip0)">
<path d="M569.347 224.369C579.42 229.686 589.267 235.127 598.887 240.692" stroke="white" stroke-miterlimit="10"/>
<path d="M381.885 191.421C425.824 200.922 473.795 217.324 522.12 240.472C557.123 257.126 590.616 276.784 622.223 299.223" stroke="#E9E9E9" stroke-miterlimit="10"/>
<path d="M235.63 832.573H686.164" stroke="#3F3D56" stroke-miterlimit="10"/>
<path d="M340.771 184.389C353.974 186.013 367.72 188.359 381.885 191.421" stroke="white" stroke-miterlimit="10"/>
<path d="M211.555 322.155C187.161 286.456 178.781 252.727 191.314 226.561C205.177 197.62 242.283 182.816 292.583 181.725" stroke="#E9E9E9" stroke-miterlimit="10"/>
<path d="M725.253 401.891C745.586 434.622 751.894 465.309 740.297 489.52C730.091 510.826 707.288 524.471 675.896 530.622" stroke="#E9E9E9" stroke-miterlimit="10"/>
<path d="M622.223 299.223C642.6 313.674 661.86 329.638 679.842 346.979" stroke="#E9E9E9" stroke-miterlimit="10"/>
<path d="M198.048 139.888C238.54 131.189 290.939 132.736 349.542 144.287" stroke="#E9E9E9" stroke-miterlimit="10"/>
<path d="M787.386 401.887C805.514 428.367 816.663 453.992 819.577 477.327" stroke="#E9E9E9" stroke-miterlimit="10"/>
<path d="M598.887 240.692C617.07 251.205 634.37 262.079 650.786 273.312" stroke="#E9E9E9" stroke-miterlimit="10"/>
<path d="M522.642 270.647H533.396C533.396 270.647 543.255 346.825 536.085 353.995C528.915 361.165 509.199 365.646 506.51 353.995C503.821 342.344 506.51 299.326 506.51 299.326L522.642 270.647Z" fill="#276AFB"/>
<path d="M452.289 280.954C488.421 280.954 517.713 246.647 517.713 204.328C517.713 162.008 488.421 127.701 452.289 127.701C416.157 127.701 386.865 162.008 386.865 204.328C386.865 246.647 416.157 280.954 452.289 280.954Z" fill="#2F2E41"/>
<path d="M437.501 218.667C437.501 218.667 441.086 248.242 430.332 254.516C419.577 260.789 442.879 296.638 442.879 296.638L470.661 303.807L489.482 277.817L485.897 250.931C485.897 250.931 464.388 229.422 474.246 209.705L437.501 218.667Z" fill="#FFC1C7"/>
<path opacity="0.1" d="M437.501 218.667C437.501 218.667 441.086 248.242 430.332 254.516C419.577 260.789 442.879 296.638 442.879 296.638L470.661 303.807L489.482 277.817L485.897 250.931C485.897 250.931 464.388 229.422 474.246 209.705L437.501 218.667Z" fill="black"/>
<path d="M397.172 539.709C397.172 539.709 386.417 637.396 397.172 660.697C407.926 683.999 436.605 749.422 436.605 749.422L427.643 768.243L451.841 762.865L461.699 744.045C461.699 744.045 450.048 698.338 448.256 682.206C446.464 666.075 433.02 636.5 433.02 636.5L458.114 529.85L397.172 539.709Z" fill="black"/>
<path d="M482.312 523.379C482.312 523.379 483.208 621.963 489.482 637.255L485.897 770.79L505.614 773.423C505.614 773.423 534.292 661.396 529.811 634.51C525.33 607.623 530.708 510.832 530.708 510.832L482.312 523.379Z" fill="black"/>
<path d="M452.289 230.766C471.098 230.766 486.345 215.518 486.345 196.71C486.345 177.901 471.098 162.654 452.289 162.654C433.48 162.654 418.233 177.901 418.233 196.71C418.233 215.518 433.48 230.766 452.289 230.766Z" fill="#FFC1C7"/>
<path d="M568.348 535.926C568.348 535.926 544.151 552.058 534.292 540.407C524.434 528.757 403.445 547.577 388.21 543.992C372.974 540.407 396.276 483.05 396.276 453.475C396.276 431.347 404.306 397.685 408.348 382.127C409.71 376.893 410.615 373.712 410.615 373.712C410.615 373.712 419.81 347.551 418.09 336.68C417.973 335.856 417.747 335.052 417.417 334.287C417.274 333.968 417.097 333.664 416.889 333.382C412.596 327.655 400.291 285.892 395.514 267.959C394.734 265.305 394.091 262.613 393.587 259.893C393.587 257.204 426.747 249.138 435.037 248.753C443.336 248.368 445.567 259.893 445.567 259.893C448.256 261.685 460.803 293.053 460.803 293.053L472.454 263.478C472.454 263.478 471.557 257.204 470.661 257.204C469.765 257.204 483.916 248.744 483.916 248.744C483.916 248.744 498.444 258.997 506.51 257.204C514.576 255.412 533.396 271.544 533.396 271.544C533.396 271.544 500.236 354.891 513.679 372.816C527.123 390.74 568.348 535.926 568.348 535.926Z" fill="#276AFB"/>
<path d="M459.01 740.46C459.01 740.46 443.775 755.696 443.775 757.488L431.228 752.111C431.228 752.111 425.851 771.828 424.954 774.516C424.058 777.205 408.823 801.403 393.587 812.157C378.351 822.912 393.587 836.355 407.03 833.666C420.473 830.978 454.529 800.506 454.529 800.506C454.529 800.506 477.831 800.506 485.897 782.582C485.897 782.582 464.388 738.668 459.01 740.46Z" fill="#2F2E41"/>
<path d="M503.821 766.309C503.821 766.309 480.798 749.581 479.315 765.115C477.831 780.649 477.831 814.705 477.831 814.705C477.831 814.705 470.661 837.11 493.067 834.422C515.472 831.733 517.264 825.459 517.264 825.459L506.51 782.441V763.621L503.821 766.309Z" fill="#2F2E41"/>
<path opacity="0.1" d="M416.889 333.382C412.596 327.655 400.291 285.892 395.514 267.959H399.86C399.86 267.959 410.776 310.681 417.417 334.287C417.274 333.968 417.097 333.664 416.889 333.382Z" fill="black"/>
<path opacity="0.1" d="M476.039 392.532C476.039 392.532 463.492 393.428 417.785 384.466C414.6 383.855 411.45 383.074 408.348 382.127C409.71 376.893 410.615 373.712 410.615 373.712C410.615 373.712 419.81 347.551 418.09 336.68C420.231 344.208 421.827 349.29 422.266 349.514C424.058 350.41 481.416 360.269 489.482 363.853C497.548 367.438 476.039 392.532 476.039 392.532Z" fill="black"/>
<path opacity="0.1" d="M492.17 275.237C492.17 275.237 516.89 272.187 518.422 276.195C519.953 280.203 526.227 318.938 528.915 323.905C531.604 328.871 532.5 359.66 521.745 360.654C510.991 361.647 496.651 350.721 499.34 341.782C502.029 332.843 492.17 275.237 492.17 275.237Z" fill="black"/>
<path d="M479.624 357.58C479.624 357.58 517.264 362.061 523.538 357.58C529.811 353.099 555.802 353.099 550.424 365.646C545.047 378.193 498.444 379.089 498.444 379.089H471.558L479.624 357.58Z" fill="#FFC1C7"/>
<path d="M399.86 261.685H393.587C393.587 261.685 381.04 264.374 382.832 303.807C384.625 343.241 372.078 369.231 417.785 378.193C463.492 387.155 476.039 386.259 476.039 386.259C476.039 386.259 497.548 361.165 489.482 357.58C481.416 353.995 424.058 344.137 422.266 343.241C420.473 342.344 399.86 261.685 399.86 261.685Z" fill="#276AFB"/>
<path d="M517.733 279.374C517.733 279.374 502.029 220.459 489.482 220.459C476.935 220.459 462.595 223.148 473.35 234.799C484.104 246.45 497.548 258.997 498.444 265.27C499.34 271.544 502.925 280.506 502.925 280.506L517.733 279.374Z" fill="#FFC1C7"/>
<path d="M495.755 275.237C495.755 275.237 520.475 272.187 522.006 276.195C523.538 280.203 529.811 318.938 532.5 323.905C535.189 328.871 536.085 359.66 525.33 360.654C514.576 361.647 500.236 350.721 502.925 341.782C505.614 332.843 495.755 275.237 495.755 275.237Z" fill="#276AFB"/>
<path d="M443.327 196.71C461.146 196.71 475.591 182.265 475.591 164.446C475.591 146.627 461.146 132.182 443.327 132.182C425.508 132.182 411.063 146.627 411.063 164.446C411.063 182.265 425.508 196.71 443.327 196.71Z" fill="#2F2E41"/>
<path d="M573.337 529.167C523.269 520.915 466.628 502.978 409.491 475.609C344.434 444.448 289.307 406.124 250.026 367.393" stroke="#E9E9E9" stroke-miterlimit="10"/>
<path d="M370.336 492.465C325.544 469.259 284.993 443.459 250.024 416.599" stroke="#E9E9E9" stroke-miterlimit="10"/>
<path d="M122.7 245.278C152.358 245.278 176.4 221.236 176.4 191.578C176.4 161.92 152.358 137.878 122.7 137.878C93.0424 137.878 69 161.92 69 191.578C69 221.236 93.0424 245.278 122.7 245.278Z" fill="#276AFB"/>
<path d="M135.297 223.4C164.954 223.4 188.997 199.358 188.997 169.7C188.997 140.042 164.954 116 135.297 116C105.639 116 81.5964 140.042 81.5964 169.7C81.5964 199.358 105.639 223.4 135.297 223.4Z" stroke="white" stroke-miterlimit="10"/>
<path d="M800.314 301.288C817.57 301.288 831.558 287.299 831.558 270.044C831.558 252.788 817.57 238.8 800.314 238.8C783.059 238.8 769.07 252.788 769.07 270.044C769.07 287.299 783.059 301.288 800.314 301.288Z" fill="#F2F2F2"/>
<path d="M807.643 288.559C824.898 288.559 838.887 274.57 838.887 257.315C838.887 240.059 824.898 226.071 807.643 226.071C790.387 226.071 776.399 240.059 776.399 257.315C776.399 274.57 790.387 288.559 807.643 288.559Z" stroke="white" stroke-miterlimit="10"/>
<path d="M230.363 640.642C255.167 640.642 275.276 620.533 275.276 595.729C275.276 570.924 255.167 550.816 230.363 550.816C205.558 550.816 185.45 570.924 185.45 595.729C185.45 620.533 205.558 640.642 230.363 640.642Z" fill="#F2F2F2"/>
<path d="M240.898 622.344C265.702 622.344 285.81 602.236 285.81 577.431C285.81 552.626 265.702 532.518 240.898 532.518C216.093 532.518 195.985 552.626 195.985 577.431C195.985 602.236 216.093 622.344 240.898 622.344Z" stroke="white" stroke-miterlimit="10"/>
<path opacity="0.1" d="M235.5 609.917C250.466 609.917 262.598 598.896 262.598 585.3C262.598 571.704 250.466 560.682 235.5 560.682C220.535 560.682 208.403 571.704 208.403 585.3C208.403 598.896 220.535 609.917 235.5 609.917Z" fill="black"/>
<path d="M235.5 511.448C255.227 511.448 271.22 496.919 271.22 478.997C271.22 461.076 255.227 446.547 235.5 446.547C215.773 446.547 199.78 461.076 199.78 478.997C199.78 496.919 215.773 511.448 235.5 511.448Z" fill="white"/>
<path d="M235.5 432C222.107 432 209.262 436.834 199.791 445.437C190.32 454.041 185 465.71 185 477.878C185 503.216 235.5 586.419 235.5 586.419C235.5 586.419 286 503.216 286 477.878C286 465.71 280.68 454.041 271.209 445.437C261.738 436.834 248.893 432 235.5 432ZM235.5 500.258C230.871 500.258 226.347 499.011 222.498 496.674C218.65 494.338 215.65 491.018 213.879 487.133C212.108 483.248 211.644 478.973 212.547 474.849C213.45 470.725 215.679 466.937 218.952 463.963C222.225 460.99 226.395 458.965 230.934 458.145C235.474 457.325 240.18 457.746 244.456 459.355C248.732 460.964 252.387 463.689 254.959 467.185C257.53 470.681 258.903 474.792 258.903 478.997C258.903 481.789 258.297 484.554 257.121 487.133C255.945 489.713 254.221 492.056 252.048 494.03C249.875 496.005 247.295 497.571 244.456 498.639C241.616 499.708 238.573 500.258 235.5 500.258Z" fill="#CCCCCC"/>
<path opacity="0.1" d="M803.5 273.917C812.243 273.917 819.33 266.736 819.33 257.878C819.33 249.02 812.243 241.839 803.5 241.839C794.758 241.839 787.671 249.02 787.671 257.878C787.671 266.736 794.758 273.917 803.5 273.917Z" fill="black"/>
<path d="M803.5 209.762C815.024 209.762 824.366 200.296 824.366 188.62C824.366 176.943 815.024 167.478 803.5 167.478C791.976 167.478 782.634 176.943 782.634 188.62C782.634 200.296 791.976 209.762 803.5 209.762Z" fill="white"/>
<path d="M803.5 158C795.676 158 788.173 161.149 782.64 166.755C777.108 172.36 774 179.963 774 187.891C774 204.399 803.5 258.607 803.5 258.607C803.5 258.607 833 204.399 833 187.891C833 179.963 829.892 172.36 824.36 166.755C818.827 161.149 811.324 158 803.5 158ZM803.5 202.471C800.796 202.471 798.153 201.659 795.905 200.137C793.657 198.615 791.905 196.452 790.87 193.92C789.835 191.389 789.564 188.604 790.092 185.917C790.619 183.23 791.921 180.762 793.833 178.825C795.745 176.888 798.181 175.568 800.833 175.034C803.485 174.5 806.234 174.774 808.732 175.822C811.23 176.871 813.365 178.646 814.867 180.924C816.369 183.202 817.171 185.88 817.171 188.62C817.171 190.439 816.817 192.24 816.13 193.92C815.443 195.601 814.436 197.128 813.167 198.414C811.897 199.701 810.39 200.721 808.732 201.417C807.073 202.113 805.295 202.471 803.5 202.471Z" fill="#276AFB"/>
<path opacity="0.1" d="M134.5 181.917C143.243 181.917 150.33 174.736 150.33 165.878C150.33 157.02 143.243 149.839 134.5 149.839C125.758 149.839 118.671 157.02 118.671 165.878C118.671 174.736 125.758 181.917 134.5 181.917Z" fill="black"/>
<path d="M134.5 117.762C146.024 117.762 155.366 108.296 155.366 96.6199C155.366 84.9434 146.024 75.4778 134.5 75.4778C122.976 75.4778 113.634 84.9434 113.634 96.6199C113.634 108.296 122.976 117.762 134.5 117.762Z" fill="white"/>
<path d="M134.5 66C126.676 66 119.173 69.1492 113.64 74.7547C108.108 80.3603 105 87.9631 105 95.8906C105 112.399 134.5 166.607 134.5 166.607C134.5 166.607 164 112.399 164 95.8906C164 87.9631 160.892 80.3603 155.36 74.7547C149.827 69.1492 142.324 66 134.5 66ZM134.5 110.471C131.796 110.471 129.153 109.659 126.905 108.137C124.657 106.615 122.905 104.452 121.87 101.92C120.835 99.3894 120.564 96.6042 121.092 93.9173C121.619 91.2303 122.921 88.7621 124.833 86.8249C126.745 84.8877 129.181 83.5685 131.833 83.034C134.485 82.4995 137.234 82.7738 139.732 83.8222C142.23 84.8707 144.365 86.6461 145.867 88.924C147.369 91.2019 148.171 93.88 148.171 96.6196C148.171 98.4386 147.817 100.24 147.13 101.92C146.443 103.601 145.436 105.128 144.167 106.414C142.897 107.701 141.39 108.721 139.732 109.417C138.073 110.113 136.295 110.471 134.5 110.471Z" fill="#F00946"/>
</g>
<defs>
<clipPath id="clip0">
<rect width="839.387" height="834.646" fill="white"/>
</clipPath>
</defs>
</svg>
