<svg width="1143" height="960" viewBox="0 0 1143 960" fill="none" xmlns="http://www.w3.org/2000/svg">
<g clip-path="url(#clip0)">
<path d="M829.064 752.8H669.299L397.178 779.244L122.951 752.8V104.907L396.041 124.74L675.029 104.907L947.951 142.37L940.945 639.909L829.064 752.8Z" fill="url(#paint0_linear)"/>
<path d="M823.856 743.794H667.586L401.418 769.524L133.19 743.794V113.412L400.306 132.709L673.19 113.412L940.142 149.863L933.289 633.955L823.856 743.794Z" fill="white"/>
<path d="M824.736 726.631H660.154L409.096 750.901L156.095 726.631V132.035L408.047 150.237L665.44 132.035L917.237 166.417V633.6L824.736 726.631Z" fill="#276AFB"/>
<path d="M1142.05 905.143L564.089 585.083L710.891 97.332L660.931 77.52L589.788 313.893L22.967 0L0 54.646L572.409 371.634L441.726 805.828L491.686 825.64L546.71 642.823L1119.08 959.789L1142.05 905.143Z" fill="white"/>
<path d="M813.083 742.811L815.019 620.076L933.289 624.847L813.083 742.811Z" fill="url(#paint1_linear)"/>
<path d="M156.095 388.993L518.844 549.605L542.951 599.576L518.951 624.576L156.095 452.489V388.993Z" fill="white"/>
<path d="M823.856 742.811L825.618 629.555L933.289 633.957L823.856 742.811Z" fill="white"/>
<path d="M648.951 647.576L800.309 150.451L860.519 158.672L690.951 673.576L648.951 647.576Z" fill="white"/>
<path d="M784.67 388.993L917.237 423.009V486.505L754.951 428.576L784.67 388.993Z" fill="white"/>
<path d="M279.434 510.983L245.951 742.576L283.951 750.576L334.01 536.866L333.951 506.576L279.434 510.983Z" fill="white"/>
<path d="M278.084 208.643L240.514 426.371L269.604 442.076L338.951 208.576L278.084 208.643Z" fill="white"/>
<rect x="566.483" y="366" width="33" height="94" transform="rotate(17 566.483 366)" fill="#276AFB"/>
<rect x="781" y="420" width="43" height="46" fill="white"/>
<rect x="260.315" y="360.218" width="53" height="90" transform="rotate(17 260.315 360.218)" fill="white"/>
<rect x="182" y="389" width="58.7913" height="85.4856" transform="rotate(17 182 389)" fill="#276AFB"/>
<path d="M207.619 483L223.522 407.112C224.638 401.904 225.475 397.347 226.033 393.441C226.777 389.349 227.149 385.722 227.149 382.56C227.149 374.004 223.894 369.726 217.384 369.726C214.222 369.726 211.06 370.563 207.898 372.237C204.736 373.911 201.76 376.05 198.97 378.654C196.366 381.258 193.855 384.141 191.437 387.303C189.205 390.279 187.345 393.162 185.857 395.952L168.001 483H133.684L163.258 343.5H190.042L188.368 368.052H189.484C192.274 365.076 195.25 361.914 198.412 358.566C201.76 355.218 205.48 352.149 209.572 349.359C213.664 346.569 218.221 344.244 223.243 342.384C228.265 340.524 233.752 339.594 239.704 339.594C247.144 339.594 252.724 342.291 256.444 347.685C260.35 353.079 262.117 360.24 261.745 369.168C264.535 365.634 267.697 362.1 271.231 358.566C274.951 355.032 278.857 351.87 282.949 349.08C287.227 346.29 291.691 344.058 296.341 342.384C301.177 340.524 306.106 339.594 311.128 339.594C319.684 339.594 326.194 341.64 330.658 345.732C335.308 349.638 337.633 357.078 337.633 368.052C337.633 376.05 336.238 386.466 333.448 399.3L315.871 483H281.554L298.015 404.601C298.945 400.323 299.689 396.324 300.247 392.604C300.805 388.884 301.084 385.629 301.084 382.839C301.084 378.561 300.247 375.306 298.573 373.074C297.085 370.842 294.481 369.726 290.761 369.726C287.785 369.726 284.716 370.656 281.554 372.516C278.578 374.19 275.695 376.422 272.905 379.212C270.115 381.816 267.511 384.699 265.093 387.861C262.861 391.023 261.094 393.999 259.792 396.789L241.936 483H207.619ZM466.42 427.2C464.932 434.268 463.816 441.429 463.072 448.683C462.514 455.937 462.235 462.819 462.235 469.329C462.235 471.933 462.235 474.444 462.235 476.862C462.421 479.094 462.607 481.233 462.793 483.279H437.404L433.498 459.285H432.382C430.336 462.633 427.639 465.981 424.291 469.329C421.129 472.491 417.595 475.467 413.689 478.257C409.783 480.861 405.598 482.907 401.134 484.395C396.856 486.069 392.392 486.906 387.742 486.906C375.466 486.906 366.352 482.907 360.4 474.909C354.634 466.911 351.751 456.216 351.751 442.824C351.751 429.246 353.425 416.226 356.773 403.764C360.307 391.302 365.701 380.328 372.955 370.842C380.209 361.356 389.323 353.823 400.297 348.243C411.457 342.477 424.663 339.594 439.915 339.594C446.425 339.594 453.493 340.245 461.119 341.547C468.931 342.663 476.464 344.244 483.718 346.29L466.42 427.2ZM400.855 458.169C404.203 458.169 407.365 457.518 410.341 456.216C413.317 454.728 416.014 452.868 418.432 450.636C421.036 448.404 423.268 445.986 425.128 443.382C427.174 440.778 428.941 438.36 430.429 436.128L444.379 371.121C442.333 370.191 439.915 369.54 437.125 369.168C434.521 368.61 431.917 368.331 429.313 368.331C422.617 368.331 416.665 370.377 411.457 374.469C406.249 378.375 401.785 383.583 398.065 390.093C394.531 396.417 391.834 403.671 389.974 411.855C388.114 419.853 387.184 427.944 387.184 436.128C387.184 442.08 388.114 447.288 389.974 451.752C392.02 456.03 395.647 458.169 400.855 458.169ZM516.899 343.5H542.288L540.893 368.052H542.009C544.613 364.518 547.589 361.077 550.937 357.729C554.285 354.195 558.005 351.126 562.097 348.522C566.189 345.918 570.56 343.779 575.21 342.105C579.86 340.431 584.882 339.594 590.276 339.594C599.762 339.594 607.388 342.849 613.154 349.359C618.92 355.869 621.803 366.099 621.803 380.049C621.803 395.859 619.664 410.367 615.386 423.573C611.294 436.593 605.714 447.846 598.646 457.332C591.764 466.632 583.58 473.886 574.094 479.094C564.794 484.302 555.029 486.906 544.799 486.906C539.963 486.906 535.406 486.441 531.128 485.511C526.85 484.581 523.688 483.372 521.642 481.884L509.645 538.8H475.607L516.899 343.5ZM527.501 453.426C532.151 456.588 537.359 458.169 543.125 458.169C548.891 458.169 554.378 456.216 559.586 452.31C564.794 448.404 569.351 443.196 573.257 436.686C577.349 430.176 580.511 422.643 582.743 414.087C585.161 405.345 586.37 396.231 586.37 386.745C586.37 381.351 585.068 376.98 582.464 373.632C580.046 370.098 576.698 368.331 572.42 368.331C569.072 368.331 565.817 369.168 562.655 370.842C559.493 372.516 556.517 374.655 553.727 377.259C550.937 379.677 548.426 382.467 546.194 385.629C543.962 388.791 542.009 391.86 540.335 394.836L527.501 453.426ZM747.314 433.896C745.64 441.708 744.431 448.962 743.687 455.658C742.943 462.354 742.571 468.678 742.571 474.63C742.571 476.118 742.571 477.606 742.571 479.094C742.571 480.396 742.664 481.791 742.85 483.279H719.414L715.508 459.285H714.392C712.346 462.633 709.649 465.981 706.301 469.329C703.139 472.491 699.605 475.467 695.699 478.257C691.793 480.861 687.608 482.907 683.144 484.395C678.866 486.069 674.588 486.906 670.31 486.906C658.778 486.906 649.85 482.814 643.526 474.63C637.388 466.446 634.319 455.193 634.319 440.871C634.319 427.851 636.086 415.296 639.62 403.206C643.154 391.116 648.083 380.421 654.407 371.121C660.917 361.635 668.729 354.102 677.843 348.522C687.143 342.942 697.373 340.152 708.533 340.152C713.927 340.152 718.391 340.524 721.925 341.268C725.459 341.826 728.807 342.849 731.969 344.337L743.966 287.7H778.283L747.314 433.896ZM725.831 373.074C723.599 371.586 720.995 370.563 718.019 370.005C715.229 369.261 711.416 368.889 706.58 368.889C701 368.889 695.885 370.842 691.235 374.748C686.771 378.468 682.958 383.583 679.796 390.093C676.634 396.417 674.123 403.764 672.263 412.134C670.589 420.504 669.752 429.246 669.752 438.36C669.752 443.754 670.961 448.404 673.379 452.31C675.797 456.216 679.238 458.169 683.702 458.169C686.492 458.169 689.282 457.518 692.072 456.216C695.048 454.728 697.745 452.868 700.163 450.636C702.767 448.404 705.092 445.986 707.138 443.382C709.37 440.778 711.137 438.36 712.439 436.128L725.831 373.074ZM853.827 343.5H871.962L877.542 317.274L914.091 306.951L906.279 343.5H938.922L932.505 372.237H900.141L886.47 435.291C885.354 440.313 884.796 444.405 884.796 447.567C884.796 451.659 885.726 454.449 887.586 455.937C889.446 457.425 892.236 458.169 895.956 458.169C899.49 458.169 902.652 457.797 905.442 457.053C908.418 456.309 911.487 455.1 914.649 453.426V479.094C912.603 480.21 910.092 481.326 907.116 482.442C904.326 483.372 901.257 484.116 897.909 484.674C894.561 485.418 891.12 485.976 887.586 486.348C884.052 486.72 880.797 486.906 877.821 486.906C868.335 486.906 860.988 484.767 855.78 480.489C850.758 476.025 848.247 469.329 848.247 460.401C848.247 458.541 848.34 456.588 848.526 454.542C848.898 452.496 849.27 450.357 849.642 448.125L865.824 372.237H847.131L853.827 343.5Z" fill="#1C2337"/>
<path d="M809.5 295C797.074 295 787 307.088 787 322C787 336.912 797.074 349 809.5 349C821.926 349 832 336.912 832 322C832 307.088 821.926 295 809.5 295Z" fill="#1C2337"/>
<path d="M810.143 313.514C805.882 313.514 802.429 317.659 802.429 322.771C802.429 327.884 805.882 332.029 810.143 332.029C814.403 332.029 817.857 327.884 817.857 322.771C817.857 317.659 814.403 313.514 810.143 313.514Z" fill="white"/>
<path d="M802.219 436.088C796.614 436.088 792.071 440.628 792.071 446.228C792.071 451.828 796.614 456.368 802.219 456.368C807.823 456.368 812.367 451.828 812.367 446.228C812.367 440.628 807.823 436.088 802.219 436.088Z" fill="#1C2337"/>
<path d="M798.517 488.426C802.656 488.788 806.84 488.162 810.832 486.582C814.823 485.003 818.543 482.502 821.779 479.222C825.016 475.942 827.705 471.947 829.693 467.466C831.681 462.985 832.93 458.105 833.368 453.104C835.209 432.075 808.982 351.624 808.982 351.624C808.982 351.624 772.175 426.564 770.334 447.593C769.45 457.692 771.922 467.668 777.208 475.325C782.493 482.983 790.158 487.696 798.517 488.426ZM804.073 424.964C807.339 425.249 810.428 426.698 812.951 429.127C815.474 431.556 817.317 434.856 818.248 438.61C819.178 442.364 819.154 446.403 818.178 450.216C817.202 454.029 815.319 457.446 812.766 460.033C810.213 462.621 807.105 464.263 803.835 464.753C800.565 465.242 797.28 464.557 794.396 462.784C791.512 461.011 789.157 458.229 787.63 454.79C786.103 451.352 785.473 447.411 785.818 443.466C786.281 438.176 788.465 433.255 791.888 429.785C795.312 426.315 799.695 424.581 804.073 424.964Z" fill="#1C2337"/>
</g>
<defs>
<linearGradient id="paint0_linear" x1="535.451" y1="779.244" x2="535.451" y2="104.907" gradientUnits="userSpaceOnUse">
<stop stop-color="#808080" stop-opacity="0.25"/>
<stop offset="0.53514" stop-color="#808080" stop-opacity="0.12"/>
<stop offset="1" stop-color="#808080" stop-opacity="0.1"/>
</linearGradient>
<linearGradient id="paint1_linear" x1="873.186" y1="742.811" x2="873.186" y2="620.076" gradientUnits="userSpaceOnUse">
<stop stop-opacity="0.12"/>
<stop offset="0.55135" stop-opacity="0.09"/>
<stop offset="1" stop-opacity="0.02"/>
</linearGradient>
<clipPath id="clip0">
<rect width="1142.05" height="959.789" fill="white"/>
</clipPath>
</defs>
</svg>
