<svg width="1143" height="960" viewBox="0 0 1143 960" fill="none" xmlns="http://www.w3.org/2000/svg">
<g clip-path="url(#clip0)">
<path d="M829.064 752.8H669.299L397.178 779.244L122.951 752.8V104.907L396.041 124.74L675.029 104.907L947.951 142.37L940.945 639.909L829.064 752.8Z" fill="url(#paint0_linear)"/>
<path d="M823.856 743.794H667.586L401.418 769.524L133.19 743.794V113.412L400.306 132.709L673.19 113.412L940.142 149.863L933.289 633.955L823.856 743.794Z" fill="white"/>
<path d="M824.736 726.631H660.154L409.096 750.901L156.095 726.631V132.035L408.047 150.237L665.44 132.035L917.237 166.417V633.6L824.736 726.631Z" fill="#276AFB"/>
<path d="M1142.05 905.143L564.089 585.083L710.891 97.332L660.931 77.52L589.788 313.893L22.967 0L0 54.646L572.409 371.634L441.726 805.828L491.686 825.64L546.71 642.823L1119.08 959.789L1142.05 905.143Z" fill="white"/>
<path d="M813.083 742.811L815.019 620.076L933.289 624.847L813.083 742.811Z" fill="url(#paint1_linear)"/>
<path d="M156.095 388.993L518.844 549.605L542.951 599.576L518.951 624.576L156.095 452.489V388.993Z" fill="white"/>
<path d="M823.856 742.811L825.618 629.555L933.289 633.957L823.856 742.811Z" fill="white"/>
<path d="M648.951 647.576L800.309 150.451L860.519 158.672L690.951 673.576L648.951 647.576Z" fill="white"/>
<path d="M784.67 388.993L917.237 423.009V486.505L754.951 428.576L784.67 388.993Z" fill="white"/>
<path d="M279.434 510.983L245.951 742.576L283.951 750.576L334.01 536.866L333.951 506.576L279.434 510.983Z" fill="white"/>
<path d="M278.084 208.643L240.514 426.371L269.604 442.076L338.951 208.576L278.084 208.643Z" fill="white"/>
<rect x="269" y="411" width="21" height="43" fill="white"/>
<rect x="559.095" y="415.893" width="23" height="58" transform="rotate(17 559.095 415.893)" fill="#276AFB"/>
<path d="M266.382 498L278.637 439.52C279.497 435.507 280.142 431.995 280.572 428.985C281.145 425.832 281.432 423.037 281.432 420.6C281.432 414.007 278.924 410.71 273.907 410.71C271.47 410.71 269.034 411.355 266.597 412.645C264.16 413.935 261.867 415.583 259.717 417.59C257.71 419.597 255.775 421.818 253.912 424.255C252.192 426.548 250.759 428.77 249.612 430.92L235.852 498H209.407L232.197 390.5H252.837L251.547 409.42H252.407C254.557 407.127 256.85 404.69 259.287 402.11C261.867 399.53 264.734 397.165 267.887 395.015C271.04 392.865 274.552 391.073 278.422 389.64C282.292 388.207 286.52 387.49 291.107 387.49C296.84 387.49 301.14 389.568 304.007 393.725C307.017 397.882 308.379 403.4 308.092 410.28C310.242 407.557 312.679 404.833 315.402 402.11C318.269 399.387 321.279 396.95 324.432 394.8C327.729 392.65 331.169 390.93 334.752 389.64C338.479 388.207 342.277 387.49 346.147 387.49C352.74 387.49 357.757 389.067 361.197 392.22C364.78 395.23 366.572 400.963 366.572 409.42C366.572 415.583 365.497 423.61 363.347 433.5L349.802 498H323.357L336.042 437.585C336.759 434.288 337.332 431.207 337.762 428.34C338.192 425.473 338.407 422.965 338.407 420.815C338.407 417.518 337.762 415.01 336.472 413.29C335.325 411.57 333.319 410.71 330.452 410.71C328.159 410.71 325.794 411.427 323.357 412.86C321.064 414.15 318.842 415.87 316.692 418.02C314.542 420.027 312.535 422.248 310.672 424.685C308.952 427.122 307.59 429.415 306.587 431.565L292.827 498H266.382ZM465.816 455C464.67 460.447 463.81 465.965 463.236 471.555C462.806 477.145 462.591 482.448 462.591 487.465C462.591 489.472 462.591 491.407 462.591 493.27C462.735 494.99 462.878 496.638 463.021 498.215H443.456L440.446 479.725H439.586C438.01 482.305 435.931 484.885 433.351 487.465C430.915 489.902 428.191 492.195 425.181 494.345C422.171 496.352 418.946 497.928 415.506 499.075C412.21 500.365 408.77 501.01 405.186 501.01C395.726 501.01 388.703 497.928 384.116 491.765C379.673 485.602 377.451 477.36 377.451 467.04C377.451 456.577 378.741 446.543 381.321 436.94C384.045 427.337 388.201 418.88 393.791 411.57C399.381 404.26 406.405 398.455 414.861 394.155C423.461 389.712 433.638 387.49 445.391 387.49C450.408 387.49 455.855 387.992 461.731 388.995C467.751 389.855 473.556 391.073 479.146 392.65L465.816 455ZM415.291 478.865C417.871 478.865 420.308 478.363 422.601 477.36C424.895 476.213 426.973 474.78 428.836 473.06C430.843 471.34 432.563 469.477 433.996 467.47C435.573 465.463 436.935 463.6 438.081 461.88L448.831 411.785C447.255 411.068 445.391 410.567 443.241 410.28C441.235 409.85 439.228 409.635 437.221 409.635C432.061 409.635 427.475 411.212 423.461 414.365C419.448 417.375 416.008 421.388 413.141 426.405C410.418 431.278 408.34 436.868 406.906 443.175C405.473 449.338 404.756 455.573 404.756 461.88C404.756 466.467 405.473 470.48 406.906 473.92C408.483 477.217 411.278 478.865 415.291 478.865ZM504.716 390.5H524.281L523.206 409.42H524.066C526.073 406.697 528.366 404.045 530.946 401.465C533.526 398.742 536.393 396.377 539.546 394.37C542.7 392.363 546.068 390.715 549.651 389.425C553.235 388.135 557.105 387.49 561.261 387.49C568.571 387.49 574.448 389.998 578.891 395.015C583.335 400.032 585.556 407.915 585.556 418.665C585.556 430.848 583.908 442.028 580.611 452.205C577.458 462.238 573.158 470.91 567.711 478.22C562.408 485.387 556.101 490.977 548.791 494.99C541.625 499.003 534.1 501.01 526.216 501.01C522.49 501.01 518.978 500.652 515.681 499.935C512.385 499.218 509.948 498.287 508.371 497.14L499.126 541H472.896L504.716 390.5ZM512.886 475.21C516.47 477.647 520.483 478.865 524.926 478.865C529.37 478.865 533.598 477.36 537.611 474.35C541.625 471.34 545.136 467.327 548.146 462.31C551.3 457.293 553.736 451.488 555.456 444.895C557.32 438.158 558.251 431.135 558.251 423.825C558.251 419.668 557.248 416.3 555.241 413.72C553.378 410.997 550.798 409.635 547.501 409.635C544.921 409.635 542.413 410.28 539.976 411.57C537.54 412.86 535.246 414.508 533.096 416.515C530.946 418.378 529.011 420.528 527.291 422.965C525.571 425.402 524.066 427.767 522.776 430.06L512.886 475.21ZM682.276 460.16C680.986 466.18 680.054 471.77 679.481 476.93C678.908 482.09 678.621 486.963 678.621 491.55C678.621 492.697 678.621 493.843 678.621 494.99C678.621 495.993 678.693 497.068 678.836 498.215H660.776L657.766 479.725H656.906C655.329 482.305 653.251 484.885 650.671 487.465C648.234 489.902 645.511 492.195 642.501 494.345C639.491 496.352 636.266 497.928 632.826 499.075C629.529 500.365 626.233 501.01 622.936 501.01C614.049 501.01 607.169 497.857 602.296 491.55C597.566 485.243 595.201 476.572 595.201 465.535C595.201 455.502 596.563 445.827 599.286 436.51C602.009 427.193 605.808 418.952 610.681 411.785C615.698 404.475 621.718 398.67 628.741 394.37C635.908 390.07 643.791 387.92 652.391 387.92C656.548 387.92 659.988 388.207 662.711 388.78C665.434 389.21 668.014 389.998 670.451 391.145L679.696 347.5H706.141L682.276 460.16ZM665.721 413.29C664.001 412.143 661.994 411.355 659.701 410.925C657.551 410.352 654.613 410.065 650.886 410.065C646.586 410.065 642.644 411.57 639.061 414.58C635.621 417.447 632.683 421.388 630.246 426.405C627.809 431.278 625.874 436.94 624.441 443.39C623.151 449.84 622.506 456.577 622.506 463.6C622.506 467.757 623.438 471.34 625.301 474.35C627.164 477.36 629.816 478.865 633.256 478.865C635.406 478.865 637.556 478.363 639.706 477.36C641.999 476.213 644.078 474.78 645.941 473.06C647.948 471.34 649.739 469.477 651.316 467.47C653.036 465.463 654.398 463.6 655.401 461.88L665.721 413.29ZM764.356 390.5H778.331L782.631 370.29L810.796 362.335L804.776 390.5H829.931L824.986 412.645H800.046L789.511 461.235C788.651 465.105 788.221 468.258 788.221 470.695C788.221 473.848 788.937 475.998 790.371 477.145C791.804 478.292 793.954 478.865 796.821 478.865C799.544 478.865 801.981 478.578 804.131 478.005C806.424 477.432 808.789 476.5 811.226 475.21V494.99C809.649 495.85 807.714 496.71 805.421 497.57C803.271 498.287 800.906 498.86 798.326 499.29C795.746 499.863 793.094 500.293 790.371 500.58C787.647 500.867 785.139 501.01 782.846 501.01C775.536 501.01 769.874 499.362 765.861 496.065C761.991 492.625 760.056 487.465 760.056 480.585C760.056 479.152 760.127 477.647 760.271 476.07C760.557 474.493 760.844 472.845 761.131 471.125L773.601 412.645H759.196L764.356 390.5Z" fill="#1C2337"/>
<path d="M728.5 345C718.835 345 711 352.835 711 362.5C711 372.165 718.835 380 728.5 380C738.165 380 746 372.165 746 362.5C746 352.835 738.165 345 728.5 345Z" fill="#1C2337"/>
<path d="M729 357C725.686 357 723 359.686 723 363C723 366.314 725.686 369 729 369C732.314 369 735 366.314 735 363C735 359.686 732.314 357 729 357Z" fill="#276AFB"/>
<path d="M722.5 460C717.806 460 714 463.806 714 468.5C714 473.194 717.806 477 722.5 477C727.194 477 731 473.194 731 468.5C731 463.806 727.194 460 722.5 460Z" fill="#1C2337"/>
<path d="M719.399 503.872C722.866 504.175 726.371 503.65 729.714 502.326C733.057 501.002 736.173 498.906 738.884 496.157C741.595 493.407 743.847 490.059 745.513 486.302C747.178 482.546 748.224 478.455 748.591 474.264C750.133 456.636 728.165 389.2 728.165 389.2C728.165 389.2 697.335 452.017 695.792 469.645C695.052 478.11 697.123 486.471 701.55 492.89C705.977 499.309 712.398 503.259 719.399 503.872ZM724.053 450.676C726.788 450.915 729.376 452.129 731.489 454.165C733.603 456.201 735.146 458.968 735.926 462.114C736.705 465.261 736.685 468.646 735.868 471.843C735.05 475.039 733.473 477.903 731.334 480.072C729.196 482.241 726.593 483.618 723.854 484.028C721.115 484.438 718.363 483.864 715.947 482.378C713.531 480.891 711.559 478.559 710.28 475.677C709.001 472.795 708.473 469.491 708.762 466.185C709.15 461.75 710.979 457.625 713.847 454.717C716.714 451.808 720.386 450.355 724.053 450.676Z" fill="#1C2337"/>
</g>
<defs>
<linearGradient id="paint0_linear" x1="535.451" y1="779.244" x2="535.451" y2="104.907" gradientUnits="userSpaceOnUse">
<stop stop-color="#808080" stop-opacity="0.25"/>
<stop offset="0.53514" stop-color="#808080" stop-opacity="0.12"/>
<stop offset="1" stop-color="#808080" stop-opacity="0.1"/>
</linearGradient>
<linearGradient id="paint1_linear" x1="873.186" y1="742.811" x2="873.186" y2="620.076" gradientUnits="userSpaceOnUse">
<stop stop-opacity="0.12"/>
<stop offset="0.55135" stop-opacity="0.09"/>
<stop offset="1" stop-opacity="0.02"/>
</linearGradient>
<clipPath id="clip0">
<rect width="1142.05" height="959.789" fill="white"/>
</clipPath>
</defs>
</svg>
