<svg width="1210" height="960" viewBox="0 0 1210 960" fill="none" xmlns="http://www.w3.org/2000/svg">
<path d="M896.064 752.8H736.299L464.178 779.244L189.951 752.8V104.907L463.041 124.74L742.029 104.907L1014.95 142.37L1007.95 639.909L896.064 752.8Z" fill="url(#paint0_linear)"/>
<path d="M890.856 743.794H734.586L468.418 769.524L200.19 743.794V113.412L467.306 132.709L740.19 113.412L1007.14 149.863L1000.29 633.955L890.856 743.794Z" fill="white"/>
<path d="M891.736 726.631H727.154L476.096 750.901L223.095 726.631V132.035L475.047 150.237L732.44 132.035L984.237 166.417V633.6L891.736 726.631Z" fill="#276AFB"/>
<path d="M1209.05 905.143L631.089 585.083L777.891 97.332L727.931 77.52L656.788 313.893L89.967 0L67 54.646L639.409 371.634L508.726 805.828L558.686 825.64L613.71 642.823L1186.08 959.789L1209.05 905.143Z" fill="white"/>
<path d="M880.083 742.811L882.019 620.076L1000.29 624.847L880.083 742.811Z" fill="url(#paint1_linear)"/>
<path d="M223.095 388.993L585.844 549.605L609.951 599.576L585.951 624.576L223.095 452.489V388.993Z" fill="white"/>
<path d="M890.856 742.811L892.618 629.555L1000.29 633.957L890.856 742.811Z" fill="white"/>
<path d="M715.951 647.576L867.309 150.451L927.519 158.672L757.951 673.576L715.951 647.576Z" fill="white"/>
<path d="M851.67 388.993L984.237 423.009V486.505L821.951 428.576L851.67 388.993Z" fill="white"/>
<path d="M346.434 510.983L312.951 742.576L350.951 750.576L401.01 536.866L400.951 506.576L346.434 510.983Z" fill="white"/>
<path d="M345.084 208.643L307.514 426.371L336.604 442.076L405.951 208.576L345.084 208.643Z" fill="white"/>
<rect x="633.483" y="366" width="33" height="94" transform="rotate(17 633.483 366)" fill="#276AFB"/>
<rect x="842" y="412" width="43" height="46" fill="#276AFB"/>
<rect x="327.315" y="360.218" width="53" height="90" transform="rotate(17 327.315 360.218)" fill="white"/>
<rect x="594.801" y="331.188" width="38" height="34" transform="rotate(17 594.801 331.188)" fill="white"/>
<rect x="249" y="389" width="58.7913" height="85.4856" transform="rotate(17 249 389)" fill="#276AFB"/>
<rect x="291.953" y="255.203" width="106.517" height="246.842" transform="rotate(12 291.953 255.203)" fill="#276AFB"/>
<path d="M274.619 483L290.522 407.112C291.638 401.904 292.475 397.347 293.033 393.441C293.777 389.349 294.149 385.722 294.149 382.56C294.149 374.004 290.894 369.726 284.384 369.726C281.222 369.726 278.06 370.563 274.898 372.237C271.736 373.911 268.76 376.05 265.97 378.654C263.366 381.258 260.855 384.141 258.437 387.303C256.205 390.279 254.345 393.162 252.857 395.952L235.001 483H200.684L230.258 343.5H257.042L255.368 368.052H256.484C259.274 365.076 262.25 361.914 265.412 358.566C268.76 355.218 272.48 352.149 276.572 349.359C280.664 346.569 285.221 344.244 290.243 342.384C295.265 340.524 300.752 339.594 306.704 339.594C314.144 339.594 319.724 342.291 323.444 347.685C327.35 353.079 329.117 360.24 328.745 369.168C331.535 365.634 334.697 362.1 338.231 358.566C341.951 355.032 345.857 351.87 349.949 349.08C354.227 346.29 358.691 344.058 363.341 342.384C368.177 340.524 373.106 339.594 378.128 339.594C386.684 339.594 393.194 341.64 397.658 345.732C402.308 349.638 404.633 357.078 404.633 368.052C404.633 376.05 403.238 386.466 400.448 399.3L382.871 483H348.554L365.015 404.601C365.945 400.323 366.689 396.324 367.247 392.604C367.805 388.884 368.084 385.629 368.084 382.839C368.084 378.561 367.247 375.306 365.573 373.074C364.085 370.842 361.481 369.726 357.761 369.726C354.785 369.726 351.716 370.656 348.554 372.516C345.578 374.19 342.695 376.422 339.905 379.212C337.115 381.816 334.511 384.699 332.093 387.861C329.861 391.023 328.094 393.999 326.792 396.789L308.936 483H274.619ZM533.42 427.2C531.932 434.268 530.816 441.429 530.072 448.683C529.514 455.937 529.235 462.819 529.235 469.329C529.235 471.933 529.235 474.444 529.235 476.862C529.421 479.094 529.607 481.233 529.793 483.279H504.404L500.498 459.285H499.382C497.336 462.633 494.639 465.981 491.291 469.329C488.129 472.491 484.595 475.467 480.689 478.257C476.783 480.861 472.598 482.907 468.134 484.395C463.856 486.069 459.392 486.906 454.742 486.906C442.466 486.906 433.352 482.907 427.4 474.909C421.634 466.911 418.751 456.216 418.751 442.824C418.751 429.246 420.425 416.226 423.773 403.764C427.307 391.302 432.701 380.328 439.955 370.842C447.209 361.356 456.323 353.823 467.297 348.243C478.457 342.477 491.663 339.594 506.915 339.594C513.425 339.594 520.493 340.245 528.119 341.547C535.931 342.663 543.464 344.244 550.718 346.29L533.42 427.2ZM467.855 458.169C471.203 458.169 474.365 457.518 477.341 456.216C480.317 454.728 483.014 452.868 485.432 450.636C488.036 448.404 490.268 445.986 492.128 443.382C494.174 440.778 495.941 438.36 497.429 436.128L511.379 371.121C509.333 370.191 506.915 369.54 504.125 369.168C501.521 368.61 498.917 368.331 496.313 368.331C489.617 368.331 483.665 370.377 478.457 374.469C473.249 378.375 468.785 383.583 465.065 390.093C461.531 396.417 458.834 403.671 456.974 411.855C455.114 419.853 454.184 427.944 454.184 436.128C454.184 442.08 455.114 447.288 456.974 451.752C459.02 456.03 462.647 458.169 467.855 458.169ZM583.899 343.5H609.288L607.893 368.052H609.009C611.613 364.518 614.589 361.077 617.937 357.729C621.285 354.195 625.005 351.126 629.097 348.522C633.189 345.918 637.56 343.779 642.21 342.105C646.86 340.431 651.882 339.594 657.276 339.594C666.762 339.594 674.388 342.849 680.154 349.359C685.92 355.869 688.803 366.099 688.803 380.049C688.803 395.859 686.664 410.367 682.386 423.573C678.294 436.593 672.714 447.846 665.646 457.332C658.764 466.632 650.58 473.886 641.094 479.094C631.794 484.302 622.029 486.906 611.799 486.906C606.963 486.906 602.406 486.441 598.128 485.511C593.85 484.581 590.688 483.372 588.642 481.884L576.645 538.8H542.607L583.899 343.5ZM594.501 453.426C599.151 456.588 604.359 458.169 610.125 458.169C615.891 458.169 621.378 456.216 626.586 452.31C631.794 448.404 636.351 443.196 640.257 436.686C644.349 430.176 647.511 422.643 649.743 414.087C652.161 405.345 653.37 396.231 653.37 386.745C653.37 381.351 652.068 376.98 649.464 373.632C647.046 370.098 643.698 368.331 639.42 368.331C636.072 368.331 632.817 369.168 629.655 370.842C626.493 372.516 623.517 374.655 620.727 377.259C617.937 379.677 615.426 382.467 613.194 385.629C610.962 388.791 609.009 391.86 607.335 394.836L594.501 453.426ZM814.314 433.896C812.64 441.708 811.431 448.962 810.687 455.658C809.943 462.354 809.571 468.678 809.571 474.63C809.571 476.118 809.571 477.606 809.571 479.094C809.571 480.396 809.664 481.791 809.85 483.279H786.414L782.508 459.285H781.392C779.346 462.633 776.649 465.981 773.301 469.329C770.139 472.491 766.605 475.467 762.699 478.257C758.793 480.861 754.608 482.907 750.144 484.395C745.866 486.069 741.588 486.906 737.31 486.906C725.778 486.906 716.85 482.814 710.526 474.63C704.388 466.446 701.319 455.193 701.319 440.871C701.319 427.851 703.086 415.296 706.62 403.206C710.154 391.116 715.083 380.421 721.407 371.121C727.917 361.635 735.729 354.102 744.843 348.522C754.143 342.942 764.373 340.152 775.533 340.152C780.927 340.152 785.391 340.524 788.925 341.268C792.459 341.826 795.807 342.849 798.969 344.337L810.966 287.7H845.283L814.314 433.896ZM792.831 373.074C790.599 371.586 787.995 370.563 785.019 370.005C782.229 369.261 778.416 368.889 773.58 368.889C768 368.889 762.885 370.842 758.235 374.748C753.771 378.468 749.958 383.583 746.796 390.093C743.634 396.417 741.123 403.764 739.263 412.134C737.589 420.504 736.752 429.246 736.752 438.36C736.752 443.754 737.961 448.404 740.379 452.31C742.797 456.216 746.238 458.169 750.702 458.169C753.492 458.169 756.282 457.518 759.072 456.216C762.048 454.728 764.745 452.868 767.163 450.636C769.767 448.404 772.092 445.986 774.138 443.382C776.37 440.778 778.137 438.36 779.439 436.128L792.831 373.074ZM920.827 343.5H938.962L944.542 317.274L981.091 306.951L973.279 343.5H1005.92L999.505 372.237H967.141L953.47 435.291C952.354 440.313 951.796 444.405 951.796 447.567C951.796 451.659 952.726 454.449 954.586 455.937C956.446 457.425 959.236 458.169 962.956 458.169C966.49 458.169 969.652 457.797 972.442 457.053C975.418 456.309 978.487 455.1 981.649 453.426V479.094C979.603 480.21 977.092 481.326 974.116 482.442C971.326 483.372 968.257 484.116 964.909 484.674C961.561 485.418 958.12 485.976 954.586 486.348C951.052 486.72 947.797 486.906 944.821 486.906C935.335 486.906 927.988 484.767 922.78 480.489C917.758 476.025 915.247 469.329 915.247 460.401C915.247 458.541 915.34 456.588 915.526 454.542C915.898 452.496 916.27 450.357 916.642 448.125L932.824 372.237H914.131L920.827 343.5Z" fill="#1C2337"/>
<path d="M876.5 291C867.387 291 860 297.716 860 306C860 314.284 867.387 321 876.5 321C885.613 321 893 314.284 893 306C893 297.716 885.613 291 876.5 291Z" fill="#1C2337"/>
<path d="M861.142 425.425C855.355 425.324 850.577 430.264 850.469 436.459C850.361 442.655 854.964 447.759 860.75 447.86C866.536 447.961 871.315 443.02 871.423 436.825C871.531 430.63 866.928 425.526 861.142 425.425Z" fill="#1C2337"/>
<path d="M856.31 483.259C860.577 483.733 864.909 483.116 869.06 481.441C873.212 479.765 877.101 477.066 880.505 473.496C883.91 469.925 886.763 465.555 888.903 460.633C891.042 455.712 892.426 450.335 892.974 444.812C895.281 421.581 869.757 332.11 869.757 332.11C869.757 332.11 830.308 414.349 828.001 437.58C826.893 448.735 829.254 459.815 834.563 468.382C839.872 476.948 847.695 482.3 856.31 483.259ZM863.273 413.154C866.638 413.528 869.8 415.187 872.358 417.919C874.916 420.652 876.755 424.335 877.643 428.505C878.531 432.674 878.428 437.142 877.347 441.343C876.266 445.544 874.256 449.289 871.57 452.106C868.884 454.922 865.644 456.683 862.258 457.166C858.873 457.648 855.495 456.831 852.551 454.818C849.607 452.804 847.23 449.684 845.72 445.853C844.21 442.021 843.635 437.65 844.068 433.292C844.648 427.449 846.997 422.044 850.599 418.268C854.201 414.491 858.759 412.651 863.273 413.154Z" fill="#1C2337"/>
<rect x="337.813" y="204.42" width="78" height="87" transform="rotate(29 337.813 204.42)" fill="#276AFB"/>
<rect x="107.989" y="486.234" width="284.349" height="48.9478" transform="rotate(25 107.989 486.234)" fill="white"/>
<path d="M137.534 323.174L239.435 57.7121L285.132 75.2534L234.181 207.985L183.23 340.716L137.534 323.174Z" fill="white"/>
<defs>
<linearGradient id="paint0_linear" x1="602.451" y1="779.244" x2="602.451" y2="104.907" gradientUnits="userSpaceOnUse">
<stop stop-color="#808080" stop-opacity="0.25"/>
<stop offset="0.53514" stop-color="#808080" stop-opacity="0.12"/>
<stop offset="1" stop-color="#808080" stop-opacity="0.1"/>
</linearGradient>
<linearGradient id="paint1_linear" x1="940.186" y1="742.811" x2="940.186" y2="620.076" gradientUnits="userSpaceOnUse">
<stop stop-opacity="0.12"/>
<stop offset="0.55135" stop-opacity="0.09"/>
<stop offset="1" stop-opacity="0.02"/>
</linearGradient>
</defs>
</svg>
